{
.appVersion = "1356";
classes = (
{
automatic = 1;
code = "A Aacute Abreve Abreveacute Abrevedotbelow Abrevegrave Abrevehookabove Abrevetilde Acircumflex Acircumflexacute Acircumflexdotbelow Acircumflexgrave Acircumflexhookabove Acircumflextilde Adblgrave Adieresis Adotbelow Agrave Ahookabove Ainvertedbreve Amacron Aogonek Aring Aringacute Atilde AE AEacute B C Cacute Ccaron Ccedilla Ccircumflex Cdotaccent D DZcaron Eth Dcaron Dcroat Dzcaron E Eacute Ebreve Ecaron Ecircumflex Ecircumflexacute Ecircumflexdotbelow Ecircumflexgrave Ecircumflexhookabove Ecircumflextilde Edblgrave Edieresis Edotaccent Edotbelow Egrave Ehookabove Einvertedbreve Emacron Eogonek Etilde F G Gbreve Gcaron Gcircumflex Gcommaaccent Gdotaccent H Hbar Hcircumflex I IJ Iacute Ibreve Icircumflex Idblgrave Idieresis Idotaccent Idotbelow Igrave Ihookabove Iinvertedbreve Imacron Iogonek Itilde J Jcircumflex K Kcommaaccent L LJ Lacute Lcaron Lcommaaccent Ldot Lj Lslash M N NJ Nacute Ncaron Ncommaaccent Eng Nhookleft Nj Ntilde O Oacute Obreve Ocircumflex Ocircumflexacute Ocircumflexdotbelow Ocircumflexgrave Ocircumflexhookabove Ocircumflextilde Odblgrave Odieresis Odieresismacron Odotaccentmacron Odotbelow Ograve Ohookabove Ohorn Ohornacute Ohorndotbelow Ohorngrave Ohornhookabove Ohorntilde Ohungarumlaut Oinvertedbreve Omacron Oogonek Oslash Oslashacute Otilde Otildemacron OE P Thorn Q R Racute Rcaron Rcommaaccent Rdblgrave Rinvertedbreve S Sacute Scaron Scedilla Scircumflex Scommaaccent Germandbls Schwa T Tbar Tcaron Tcedilla Tcommaaccent U Uacute Ubreve Ucircumflex Udblgrave Udieresis Udotbelow Ugrave Uhookabove Uhorn Uhornacute Uhorndotbelow Uhorngrave Uhornhookabove Uhorntilde Uhungarumlaut Uinvertedbreve Umacron Uogonek Uring Utilde V W Wacute Wcircumflex Wdieresis Wgrave X Y Yacute Ycircumflex Ydieresis Ydotbelow Ygrave Yhookabove Ymacron Ytilde Z Zacute Zcaron Zdotaccent Iacute_J.loclNLD Delta Omega";
name = Uppercase;
}
);
copyright = "Copyright © 2021 by Octavio Pardo. All rights reserved.";

glyphs = (
{
color = 4;
glyphname = A;
lastChange = "2020-03-07 19:16:38 +0000";
layers = (
{
anchors = (
{
name = bottom;
position = "{664, -72}";
},
{
name = ogonek;
position = "{1196, 20}";
},
{
name = top.case;
position = "{664, 1475}";
}
);
background = {
paths = (
{
closed = 1;
nodes = (
"47 0 LINE",
"664 1384 LINE",
"1282 0 LINE",
"1370 0 LINE",
"721 1434 LINE",
"608 1434 LINE",
"-39 0 LINE"
);
},
{
closed = 1;
nodes = (
"1126 410 LINE",
"1126 483 LINE",
"215 483 LINE",
"215 410 LINE"
);
}
);
};
guideLines = (
{
angle = 90;
position = "{324, 83}";
}
);
layerId = "620D8D18-E43F-4D11-9420-7EF908A5CAE8";
paths = (
{
closed = 1;
nodes = (
"96 0 LINE",
"662 1376 LINE",
"666 1376 LINE",
"1233 0 LINE",
"1321 0 LINE",
"721 1434 LINE",
"608 1434 LINE",
"10 0 LINE"
);
},
{
closed = 1;
nodes = (
"1085 410 LINE",
"1085 483 LINE",
"236 483 LINE",
"236 410 LINE"
);
}
);
width = 1331;
},
{
anchors = (
{
name = bottom;
position = "{797, -72}";
},
{
name = ogonek;
position = "{1311, 20}";
},
{
name = top.case;
position = "{797, 1475}";
}
);
background = {
paths = (
{
closed = 1;
nodes = (
"500 0 LINE",
"795 969 LINE",
"803 969 LINE",
"1098 0 LINE",
"1577 0 LINE",
"1061 1434 LINE",
"551 1434 LINE",
"31 0 LINE"
);
},
{
closed = 1;
nodes = (
"1104 201 LINE",
"1104 535 LINE",
"498 535 LINE",
"498 201 LINE"
);
}
);
};
guideLines = (
{
angle = 90;
position = "{389, 624}";
}
);
layerId = "5C950900-0D0F-4959-81DE-75F048290F1B";
paths = (
{
closed = 1;
nodes = (
"500 0 LINE",
"795 969 LINE",
"803 969 LINE",
"1098 0 LINE",
"1577 0 LINE",
"1055 1434 LINE",
"545 1434 LINE",
"31 0 LINE"
);
},
{
closed = 1;
nodes = (
"1104 201 LINE",
"1104 535 LINE",
"498 535 LINE",
"498 201 LINE"
);
}
);
width = 1608;
},
{
anchors = (
{
name = bottom;
position = "{731, -72}";
},
{
name = ogonek;
position = "{1253, 20}";
},
{
name = top.case;
position = "{731, 1475}";
}
);
background = {
paths = (
{
closed = 1;
nodes = (
"305 0 LINE",
"723 1137 LINE",
"731 1137 LINE",
"1155 0 LINE",
"1452 0 LINE",
"877 1434 LINE",
"602 1434 LINE",
"8 0 LINE"
);
},
{
closed = 1;
nodes = (
"1141 289 LINE",
"1141 524 LINE",
"322 524 LINE",
"322 289 LINE"
);
}
);
};
guideLines = (
{
angle = 90;
position = "{358, 646}";
}
);
layerId = "514A1583-697A-4C0A-B081-2869E94CF283";
paths = (
{
closed = 1;
nodes = (
"299 0 LINE",
"729 1147 LINE",
"735 1147 LINE",
"1155 0 LINE",
"1450 0 LINE",
"889 1434 LINE",
"578 1434 LINE",
"20 0 LINE"
);
},
{
closed = 1;
nodes = (
"1096 285 LINE",
"1096 520 LINE",
"367 520 LINE",
"367 285 LINE"
);
}
);
width = 1470;
},
{
anchors = (
{
name = bottom;
position = "{799, -72}";
},
{
name = ogonek;
position = "{1348, 20}";
},
{
name = top.case;
position = "{799, 1475}";
}
);
associatedMasterId = "5C950900-0D0F-4959-81DE-75F048290F1B";
background = {
paths = (
{
closed = 1;
nodes = (
"518 -45 LINE",
"944 1323 LINE",
"508 1460 LINE",
"82 92 LINE"
);
},
{
closed = 1;
nodes = (
"1120 1460 LINE",
"684 1323 LINE",
"1110 -45 LINE",
"1546 92 LINE"
);
}
);
};
guideLines = (
{
angle = 90;
position = "{390, 624}";
}
);
layerId = "2AEDD731-7297-45D9-8D56-7E1DAB8699E9";
name = "Dec 10 18, 08:56";
paths = (
{
closed = 1;
nodes = (
"500 0 LINE",
"795 969 LINE",
"803 969 LINE",
"1098 0 LINE",
"1577 0 LINE",
"1061 1434 LINE",
"551 1434 LINE",
"31 0 LINE"
);
},
{
closed = 1;
nodes = (
"1104 201 LINE",
"1104 535 LINE",
"498 535 LINE",
"498 201 LINE"
);
}
);
width = 1608;
},
{
anchors = (
{
name = bottom;
position = "{840, -72}";
},
{
name = ogonek;
position = "{1389, 20}";
},
{
name = top.case;
position = "{840, 1475}";
}
);
associatedMasterId = "5C950900-0D0F-4959-81DE-75F048290F1B";
background = {
paths = (
{
closed = 1;
nodes = (
"43 0 LINE",
"461 0 LINE",
"563 256 LINE",
"1116 256 LINE",
"1221 0 LINE",
"1647 0 LINE",
"1036 1444 LINE",
"653 1444 LINE"
);
},
{
closed = 1;
nodes = (
"680 565 LINE",
"842 973 LINE",
"1001 565 LINE"
);
}
);
};
guideLines = (
{
angle = 90;
position = "{410, 624}";
}
);
layerId = "B04B5D5B-6545-4356-A1D3-121C57C8E934";
name = "Dec 10 18, 09:03";
paths = (
{
closed = 1;
nodes = (
"500 0 LINE",
"840 969 LINE",
"1180 0 LINE",
"1659 0 LINE",
"1061 1434 LINE",
"633 1434 LINE",
"31 0 LINE"
);
},
{
closed = 1;
nodes = (
"1145 201 LINE",
"1145 575 LINE",
"539 575 LINE",
"539 201 LINE"
);
}
);
width = 1690;
},
{
anchors = (
{
name = bottom;
position = "{797, -72}";
},
{
name = ogonek;
position = "{1358, 20}";
},
{
name = top.case;
position = "{797, 1475}";
}
);
associatedMasterId = "514A1583-697A-4C0A-B081-2869E94CF283";
background = {
paths = (
{
closed = 1;
nodes = (
"334 0 LINE",
"793 1137 LINE",
"801 1137 LINE",
"1266 0 LINE",
"1563 0 LINE",
"946 1434 LINE",
"672 1434 LINE",
"37 0 LINE"
);
},
{
closed = 1;
nodes = (
"1210 289 LINE",
"1210 535 LINE",
"391 535 LINE",
"391 289 LINE"
);
}
);
};
guideLines = (
{
angle = 90;
position = "{389, 646}";
}
);
layerId = "A11BCA9E-E538-458E-AB07-570FF5C905CF";
name = "Dec 11 18, 09:55";
paths = (
{
closed = 1;
nodes = (
"334 0 LINE",
"793 1137 LINE",
"801 1137 LINE",
"1266 0 LINE",
"1563 0 LINE",
"946 1434 LINE",
"672 1434 LINE",
"37 0 LINE"
);
},
{
closed = 1;
nodes = (
"1210 289 LINE",
"1210 535 LINE",
"391 535 LINE",
"391 289 LINE"
);
}
);
width = 1599;
}
);
leftKerningGroup = A;
rightKerningGroup = A;
unicode = 0041;
},
{
glyphname = Ahookabove;
lastChange = "2020-03-07 19:16:40 +0000";
layers = (
{
background = {
paths = (
{
closed = 1;
nodes = (
"698 1444 LINE",
"594 1468 LINE",
"614 1511 OFFCURVE",
"647 1548 OFFCURVE",
"700 1563 CURVE SMOOTH",
"729 1571 LINE SMOOTH",
"825 1597 OFFCURVE",
"862 1645 OFFCURVE",
"866 1722 CURVE SMOOTH",
"870 1817 OFFCURVE",
"786 1882 OFFCURVE",
"647 1892 CURVE SMOOTH",
"588 1896 OFFCURVE",
"524 1888 OFFCURVE",
"467 1878 CURVE SMOOTH",
"424 1870 LINE",
"438 1890 LINE",
"459 1806 LINE",
"412 1815 LINE",
"459 1823 LINE SMOOTH",
"522 1833 OFFCURVE",
"578 1837 OFFCURVE",
"643 1831 CURVE SMOOTH",
"741 1823 OFFCURVE",
"801 1776 OFFCURVE",
"797 1716 CURVE SMOOTH",
"793 1661 OFFCURVE",
"778 1638 OFFCURVE",
"698 1614 CURVE SMOOTH",
"672 1606 LINE SMOOTH",
"588 1579 OFFCURVE",
"545 1516 OFFCURVE",
"557 1427 CURVE",
"475 1538 LINE"
);
}
);
};
components = (
{
name = A;
},
{
name = hookabovecomb.case;
transform = "{1, 0, 0, 1, 664, 0}";
}
);
layerId = "620D8D18-E43F-4D11-9420-7EF908A5CAE8";
width = 1331;
},
{
components = (
{
name = A;
},
{
name = hookabovecomb.case;
transform = "{1, 0, 0, 1, 751, 0}";
}
);
layerId = "514A1583-697A-4C0A-B081-2869E94CF283";
width = 1470;
},
{
components = (
{
name = A;
},
{
name = hookabovecomb.case;
transform = "{1, 0, 0, 1, 838, 0}";
}
);
layerId = "5C950900-0D0F-4959-81DE-75F048290F1B";
width = 1608;
}
);
unicode = 1EA2;
},
{
color = 3;
glyphname = AE;
lastChange = "2020-03-07 19:37:52 +0000";
layers = (
{
anchors = (
{
name = top.case;
position = "{1368, 1475}";
}
);
background = {
components = (
{
name = I;
transform = "{0.86978, -0.49344, 0.49344, 0.86978, -36, 107}";
}
);
};
guideLines = (
{
angle = 90;
position = "{955, 96}";
}
);
layerId = "620D8D18-E43F-4D11-9420-7EF908A5CAE8";
paths = (
{
closed = 1;
nodes = (
"143 0 LINE",
"909 1360 LINE",
"1036 1360 LINE",
"1036 1434 LINE",
"862 1434 LINE",
"51 0 LINE"
);
},
{
closed = 1;
nodes = (
"1038 655 LINE",
"1038 729 LINE",
"492 729 LINE",
"492 655 LINE"
);
},
{
closed = 1;
nodes = (
"1956 0 LINE",
"1956 74 LINE",
"1063 74 LINE",
"1063 655 LINE",
"1860 655 LINE",
"1860 729 LINE",
"1063 729 LINE",
"1063 1360 LINE",
"1942 1360 LINE",
"1942 1434 LINE",
"983 1434 LINE",
"983 0 LINE"
);
}
);
width = 2068;
},
{
anchors = (
{
name = top.case;
position = "{1409, 1475}";
}
);
background = {
components = (
{
name = E;
transform = "{1, 0, 0, 1, 413, 0}";
}
);
paths = (
{
closed = 1;
nodes = (
"338 0 LINE",
"950 1180 LINE",
"1210 1180 LINE",
"1210 1434 LINE",
"795 1434 LINE",
"37 0 LINE"
);
},
{
closed = 1;
nodes = (
"1223 535 LINE",
"1223 780 LINE",
"494 780 LINE",
"494 535 LINE"
);
}
);
};
layerId = "514A1583-697A-4C0A-B081-2869E94CF283";
paths = (
{
closed = 1;
nodes = (
"338 0 LINE",
"950 1180 LINE",
"1210 1180 LINE",
"1210 1434 LINE",
"795 1434 LINE",
"37 0 LINE"
);
},
{
closed = 1;
nodes = (
"1223 541 LINE",
"1223 776 LINE",
"494 776 LINE",
"494 541 LINE"
);
},
{
closed = 1;
nodes = (
"2054 0 LINE",
"2054 236 LINE",
"1284 236 LINE",
"1284 541 LINE",
"1958 541 LINE",
"1958 776 LINE",
"1284 776 LINE",
"1284 1198 LINE",
"2040 1198 LINE",
"2040 1434 LINE",
"1016 1434 LINE",
"1016 0 LINE"
);
}
);
width = 2135;
},
{
anchors = (
{
name = top.case;
position = "{1489, 1475}";
}
);
background = {
components = (
{
name = E;
transform = "{1, 0, 0, 1, 465, -18}";
}
);
};
layerId = "5C950900-0D0F-4959-81DE-75F048290F1B";
paths = (
{
closed = 1;
nodes = (
"541 0 LINE",
"1010 1075 LINE",
"1374 1075 LINE",
"1350 1434 LINE",
"733 1434 LINE",
"31 0 LINE"
);
},
{
closed = 1;
nodes = (
"1165 451 LINE",
"1165 784 LINE",
"559 784 LINE",
"559 451 LINE"
);
},
{
closed = 1;
nodes = (
"2218 0 LINE",
"2218 393 LINE",
"1522 393 LINE",
"1522 520 LINE",
"2122 520 LINE",
"2122 858 LINE",
"1522 858 LINE",
"1522 1044 LINE",
"2204 1044 LINE",
"2204 1434 LINE",
"1065 1434 LINE",
"1065 0 LINE"
);
}
);
width = 2270;
}
);
leftKerningGroup = AE;
rightKerningGroup = E;
rightMetricsKey = E;
unicode = 00C6;
},
{
color = 4;
glyphname = B;
lastChange = "2020-03-07 19:16:38 +0000";
layers = (
{
background = {
paths = (
{
closed = 1;
nodes = (
"784 0 LINE SMOOTH",
"1090 0 OFFCURVE",
"1260 170 OFFCURVE",
"1260 428 CURVE SMOOTH",
"1260 584 OFFCURVE",
"1161 702 OFFCURVE",
"1030 741 CURVE",
"1030 743 LINE",
"1167 805 OFFCURVE",
"1202 928 OFFCURVE",
"1202 1055 CURVE SMOOTH",
"1202 1274 OFFCURVE",
"1055 1434 OFFCURVE",
"762 1434 CURVE SMOOTH",
"88 1434 LINE",
"88 0 LINE"
);
},
{
closed = 1;
nodes = (
"356 614 LINE",
"774 614 LINE SMOOTH",
"901 614 OFFCURVE",
"977 553 OFFCURVE",
"977 434 CURVE SMOOTH",
"977 297 OFFCURVE",
"905 236 OFFCURVE",
"762 236 CURVE SMOOTH",
"356 236 LINE"
);
},
{
closed = 1;
nodes = (
"356 1198 LINE",
"745 1198 LINE SMOOTH",
"885 1198 OFFCURVE",
"946 1137 OFFCURVE",
"946 1026 CURVE SMOOTH",
"946 909 OFFCURVE",
"885 850 OFFCURVE",
"762 850 CURVE SMOOTH",
"356 850 LINE"
);
}
);
};
layerId = "620D8D18-E43F-4D11-9420-7EF908A5CAE8";
paths = (
{
closed = 1;
nodes = (
"803 0 LINE SMOOTH",
"1090 0 OFFCURVE",
"1257 152 OFFCURVE",
"1257 403 CURVE SMOOTH",
"1257 594 OFFCURVE",
"1139 717 OFFCURVE",
"973 750 CURVE",
"973 752 LINE",
"1135 799 OFFCURVE",
"1202 924 OFFCURVE",
"1202 1077 CURVE SMOOTH",
"1202 1290 OFFCURVE",
"1034 1434 OFFCURVE",
"784 1434 CURVE SMOOTH",
"215 1434 LINE",
"215 0 LINE"
);
},
{
closed = 1;
nodes = (
"295 709 LINE",
"811 709 LINE SMOOTH",
"1034 709 OFFCURVE",
"1174 590 OFFCURVE",
"1174 410 CURVE SMOOTH",
"1174 188 OFFCURVE",
"1053 74 OFFCURVE",
"803 74 CURVE SMOOTH",
"295 74 LINE"
);
},
{
closed = 1;
nodes = (
"295 1360 LINE",
"784 1360 LINE SMOOTH",
"1016 1360 OFFCURVE",
"1118 1245 OFFCURVE",
"1118 1071 CURVE SMOOTH",
"1118 893 OFFCURVE",
"1020 782 OFFCURVE",
"815 782 CURVE SMOOTH",
"295 782 LINE"
);
}
);
width = 1370;
},
{
background = {
paths = (
{
closed = 1;
nodes = (
"958 0 LINE SMOOTH",
"1284 0 OFFCURVE",
"1454 188 OFFCURVE",
"1454 453 CURVE SMOOTH",
"1454 573 OFFCURVE",
"1389 688 OFFCURVE",
"1280 739 CURVE",
"1280 741 LINE",
"1378 819 OFFCURVE",
"1417 930 OFFCURVE",
"1417 1032 CURVE SMOOTH",
"1417 1262 OFFCURVE",
"1260 1434 OFFCURVE",
"958 1434 CURVE SMOOTH",
"113 1434 LINE",
"113 0 LINE"
);
},
{
closed = 1;
nodes = (
"569 596 LINE",
"856 596 LINE SMOOTH",
"948 596 OFFCURVE",
"987 559 OFFCURVE",
"987 475 CURVE SMOOTH",
"987 385 OFFCURVE",
"928 360 OFFCURVE",
"821 360 CURVE SMOOTH",
"569 360 LINE"
);
},
{
closed = 1;
nodes = (
"569 1096 LINE",
"813 1096 LINE SMOOTH",
"926 1096 OFFCURVE",
"971 1059 OFFCURVE",
"971 981 CURVE SMOOTH",
"971 901 OFFCURVE",
"922 866 OFFCURVE",
"842 866 CURVE SMOOTH",
"569 866 LINE"
);
}
);
};
guideLines = (
{
position = "{278, 176}";
},
{
position = "{278, 291}";
}
);
layerId = "5C950900-0D0F-4959-81DE-75F048290F1B";
paths = (
{
closed = 1;
nodes = (
"958 0 LINE SMOOTH",
"1284 0 OFFCURVE",
"1454 188 OFFCURVE",
"1454 453 CURVE SMOOTH",
"1454 571 OFFCURVE",
"1382 686 OFFCURVE",
"1268 737 CURVE",
"1268 741 LINE",
"1360 819 OFFCURVE",
"1397 930 OFFCURVE",
"1397 1032 CURVE SMOOTH",
"1397 1262 OFFCURVE",
"1239 1434 OFFCURVE",
"938 1434 CURVE SMOOTH",
"113 1434 LINE",
"113 0 LINE"
);
},
{
closed = 1;
nodes = (
"569 596 LINE",
"856 596 LINE SMOOTH",
"948 596 OFFCURVE",
"987 559 OFFCURVE",
"987 475 CURVE SMOOTH",
"987 385 OFFCURVE",
"928 360 OFFCURVE",
"821 360 CURVE SMOOTH",
"569 360 LINE"
);
},
{
closed = 1;
nodes = (
"569 1096 LINE",
"813 1096 LINE SMOOTH",
"926 1096 OFFCURVE",
"971 1059 OFFCURVE",
"971 981 CURVE SMOOTH",
"971 901 OFFCURVE",
"922 866 OFFCURVE",
"842 866 CURVE SMOOTH",
"569 866 LINE"
);
}
);
width = 1505;
},
{
background = {
paths = (
{
closed = 1;
nodes = (
"846 0 LINE SMOOTH",
"1171 0 OFFCURVE",
"1341 188 OFFCURVE",
"1341 453 CURVE SMOOTH",
"1341 571 OFFCURVE",
"1270 686 OFFCURVE",
"1155 737 CURVE",
"1155 741 LINE",
"1247 819 OFFCURVE",
"1284 930 OFFCURVE",
"1284 1032 CURVE SMOOTH",
"1284 1262 OFFCURVE",
"1126 1434 OFFCURVE",
"825 1434 CURVE SMOOTH",
"0 1434 LINE",
"0 0 LINE"
);
},
{
closed = 1;
nodes = (
"457 596 LINE",
"743 596 LINE SMOOTH",
"836 596 OFFCURVE",
"874 559 OFFCURVE",
"874 475 CURVE SMOOTH",
"874 385 OFFCURVE",
"815 360 OFFCURVE",
"709 360 CURVE SMOOTH",
"457 360 LINE"
);
},
{
closed = 1;
nodes = (
"457 1096 LINE",
"700 1096 LINE SMOOTH",
"813 1096 OFFCURVE",
"858 1059 OFFCURVE",
"858 981 CURVE SMOOTH",
"858 901 OFFCURVE",
"809 866 OFFCURVE",
"729 866 CURVE SMOOTH",
"457 866 LINE"
);
}
);
};
guideLines = (
{
position = "{214, 585}";
},
{
position = "{214, 115}";
},
{
position = "{214, 300}";
},
{
position = "{214, 415}";
}
);
layerId = "514A1583-697A-4C0A-B081-2869E94CF283";
paths = (
{
closed = 1;
nodes = (
"866 0 LINE SMOOTH",
"1171 0 OFFCURVE",
"1341 170 OFFCURVE",
"1341 428 CURVE SMOOTH",
"1341 584 OFFCURVE",
"1243 702 OFFCURVE",
"1112 741 CURVE",
"1112 743 LINE",
"1249 805 OFFCURVE",
"1284 928 OFFCURVE",
"1284 1055 CURVE SMOOTH",
"1284 1274 OFFCURVE",
"1137 1434 OFFCURVE",
"844 1434 CURVE SMOOTH",
"170 1434 LINE",
"170 0 LINE"
);
},
{
closed = 1;
nodes = (
"438 614 LINE",
"864 614 LINE SMOOTH",
"991 614 OFFCURVE",
"1067 553 OFFCURVE",
"1067 434 CURVE SMOOTH",
"1067 297 OFFCURVE",
"995 236 OFFCURVE",
"852 236 CURVE SMOOTH",
"438 236 LINE"
);
},
{
closed = 1;
nodes = (
"438 1198 LINE",
"827 1198 LINE SMOOTH",
"967 1198 OFFCURVE",
"1028 1137 OFFCURVE",
"1028 1026 CURVE SMOOTH",
"1028 909 OFFCURVE",
"967 850 OFFCURVE",
"844 850 CURVE SMOOTH",
"438 850 LINE"
);
}
);
width = 1434;
},
{
associatedMasterId = "5C950900-0D0F-4959-81DE-75F048290F1B";
background = {
paths = (
{
closed = 1;
nodes = (
"958 0 LINE SMOOTH",
"1284 0 OFFCURVE",
"1454 188 OFFCURVE",
"1454 453 CURVE SMOOTH",
"1454 573 OFFCURVE",
"1389 688 OFFCURVE",
"1280 739 CURVE",
"1280 741 LINE",
"1378 819 OFFCURVE",
"1417 930 OFFCURVE",
"1417 1032 CURVE SMOOTH",
"1417 1262 OFFCURVE",
"1260 1434 OFFCURVE",
"958 1434 CURVE SMOOTH",
"113 1434 LINE",
"113 0 LINE"
);
},
{
closed = 1;
nodes = (
"569 584 LINE",
"885 584 LINE SMOOTH",
"952 584 OFFCURVE",
"987 563 OFFCURVE",
"987 481 CURVE SMOOTH",
"987 403 OFFCURVE",
"950 383 OFFCURVE",
"885 383 CURVE SMOOTH",
"569 383 LINE"
);
},
{
closed = 1;
nodes = (
"569 1073 LINE",
"870 1073 LINE SMOOTH",
"936 1073 OFFCURVE",
"971 1053 OFFCURVE",
"971 975 CURVE SMOOTH",
"971 899 OFFCURVE",
"934 879 OFFCURVE",
"870 879 CURVE SMOOTH",
"569 879 LINE"
);
}
);
};
layerId = "F07FACC6-3F1E-468F-828B-374D214A166F";
name = "Dec 7 18, 17:12";
paths = (
{
closed = 1;
nodes = (
"958 0 LINE SMOOTH",
"1284 0 OFFCURVE",
"1454 188 OFFCURVE",
"1454 453 CURVE SMOOTH",
"1454 573 OFFCURVE",
"1364 754 OFFCURVE",
"1192 754 CURVE",
"1192 756 LINE",
"1290 834 OFFCURVE",
"1335 930 OFFCURVE",
"1335 1032 CURVE SMOOTH",
"1335 1262 OFFCURVE",
"1178 1434 OFFCURVE",
"877 1434 CURVE SMOOTH",
"113 1434 LINE",
"113 0 LINE"
);
},
{
closed = 1;
nodes = (
"569 584 LINE",
"885 584 LINE SMOOTH",
"952 584 OFFCURVE",
"987 563 OFFCURVE",
"987 481 CURVE SMOOTH",
"987 403 OFFCURVE",
"950 383 OFFCURVE",
"885 383 CURVE SMOOTH",
"569 383 LINE"
);
},
{
closed = 1;
nodes = (
"569 1073 LINE",
"788 1073 LINE SMOOTH",
"854 1073 OFFCURVE",
"889 1053 OFFCURVE",
"889 975 CURVE SMOOTH",
"889 899 OFFCURVE",
"852 879 OFFCURVE",
"788 879 CURVE SMOOTH",
"569 879 LINE"
);
}
);
width = 1505;
},
{
associatedMasterId = "5C950900-0D0F-4959-81DE-75F048290F1B";
background = {
paths = (
{
closed = 1;
nodes = (
"958 0 LINE SMOOTH",
"1284 0 OFFCURVE",
"1454 188 OFFCURVE",
"1454 453 CURVE SMOOTH",
"1454 573 OFFCURVE",
"1389 688 OFFCURVE",
"1280 739 CURVE",
"1280 741 LINE",
"1378 819 OFFCURVE",
"1417 930 OFFCURVE",
"1417 1032 CURVE SMOOTH",
"1417 1262 OFFCURVE",
"1260 1434 OFFCURVE",
"958 1434 CURVE SMOOTH",
"113 1434 LINE",
"113 0 LINE"
);
},
{
closed = 1;
nodes = (
"569 584 LINE",
"885 584 LINE SMOOTH",
"952 584 OFFCURVE",
"987 563 OFFCURVE",
"987 481 CURVE SMOOTH",
"987 403 OFFCURVE",
"950 383 OFFCURVE",
"885 383 CURVE SMOOTH",
"569 383 LINE"
);
},
{
closed = 1;
nodes = (
"569 1073 LINE",
"870 1073 LINE SMOOTH",
"934 1073 OFFCURVE",
"971 1047 OFFCURVE",
"971 977 CURVE SMOOTH",
"971 901 OFFCURVE",
"934 879 OFFCURVE",
"870 879 CURVE SMOOTH",
"569 879 LINE"
);
}
);
};
layerId = "38B5EB85-1C05-4399-AC77-7CF939E8E5E4";
name = "Dec 9 18, 12:56";
paths = (
{
closed = 1;
nodes = (
"958 0 LINE SMOOTH",
"1270 0 OFFCURVE",
"1454 172 OFFCURVE",
"1454 438 CURVE SMOOTH",
"1454 551 OFFCURVE",
"1401 662 OFFCURVE",
"1280 739 CURVE",
"1280 741 LINE",
"1374 834 OFFCURVE",
"1415 940 OFFCURVE",
"1415 1042 CURVE SMOOTH",
"1415 1276 OFFCURVE",
"1239 1434 OFFCURVE",
"958 1434 CURVE SMOOTH",
"113 1434 LINE",
"113 0 LINE"
);
},
{
closed = 1;
nodes = (
"569 584 LINE",
"885 584 LINE SMOOTH",
"952 584 OFFCURVE",
"987 563 OFFCURVE",
"987 481 CURVE SMOOTH",
"987 403 OFFCURVE",
"950 383 OFFCURVE",
"885 383 CURVE SMOOTH",
"569 383 LINE"
);
},
{
closed = 1;
nodes = (
"569 1073 LINE",
"870 1073 LINE SMOOTH",
"934 1073 OFFCURVE",
"971 1047 OFFCURVE",
"971 977 CURVE SMOOTH",
"971 901 OFFCURVE",
"934 879 OFFCURVE",
"870 879 CURVE SMOOTH",
"569 879 LINE"
);
}
);
width = 1505;
},
{
associatedMasterId = "5C950900-0D0F-4959-81DE-75F048290F1B";
background = {
paths = (
{
closed = 1;
nodes = (
"958 0 LINE SMOOTH",
"1284 0 OFFCURVE",
"1454 188 OFFCURVE",
"1454 453 CURVE SMOOTH",
"1454 573 OFFCURVE",
"1389 688 OFFCURVE",
"1280 739 CURVE",
"1280 741 LINE",
"1378 819 OFFCURVE",
"1417 930 OFFCURVE",
"1417 1032 CURVE SMOOTH",
"1417 1262 OFFCURVE",
"1260 1434 OFFCURVE",
"958 1434 CURVE SMOOTH",
"113 1434 LINE",
"113 0 LINE"
);
},
{
closed = 1;
nodes = (
"569 584 LINE",
"885 584 LINE SMOOTH",
"952 584 OFFCURVE",
"987 563 OFFCURVE",
"987 481 CURVE SMOOTH",
"987 403 OFFCURVE",
"950 383 OFFCURVE",
"885 383 CURVE SMOOTH",
"569 383 LINE"
);
},
{
closed = 1;
nodes = (
"569 1073 LINE",
"870 1073 LINE SMOOTH",
"934 1073 OFFCURVE",
"971 1047 OFFCURVE",
"971 977 CURVE SMOOTH",
"971 901 OFFCURVE",
"934 879 OFFCURVE",
"870 879 CURVE SMOOTH",
"569 879 LINE"
);
}
);
};
layerId = "49BF9C82-37AE-4B85-A9AA-A9CBC973ADCF";
name = "Dec 9 18, 12:58";
paths = (
{
closed = 1;
nodes = (
"918 0 LINE SMOOTH",
"1229 0 OFFCURVE",
"1413 172 OFFCURVE",
"1413 438 CURVE SMOOTH",
"1413 551 OFFCURVE",
"1360 662 OFFCURVE",
"1239 739 CURVE",
"1239 741 LINE",
"1333 834 OFFCURVE",
"1374 940 OFFCURVE",
"1374 1042 CURVE SMOOTH",
"1374 1276 OFFCURVE",
"1198 1434 OFFCURVE",
"918 1434 CURVE SMOOTH",
"113 1434 LINE",
"113 0 LINE"
);
},
{
closed = 1;
nodes = (
"569 584 LINE",
"844 584 LINE SMOOTH",
"911 584 OFFCURVE",
"946 563 OFFCURVE",
"946 481 CURVE SMOOTH",
"946 403 OFFCURVE",
"909 383 OFFCURVE",
"844 383 CURVE SMOOTH",
"569 383 LINE"
);
},
{
closed = 1;
nodes = (
"569 1073 LINE",
"829 1073 LINE SMOOTH",
"893 1073 OFFCURVE",
"930 1047 OFFCURVE",
"930 977 CURVE SMOOTH",
"930 901 OFFCURVE",
"893 879 OFFCURVE",
"829 879 CURVE SMOOTH",
"569 879 LINE"
);
}
);
width = 1464;
}
);
leftMetricsKey = H;
rightKerningGroup = B;
unicode = 0042;
},
{
color = 4;
glyphname = C;
lastChange = "2021-02-24 21:24:41 +0000";
layers = (
{
anchors = (
{
name = bottom;
position = "{805, -72}";
},
{
name = top.case;
position = "{856, 1475}";
}
);
background = {
paths = (
{
closed = 0;
nodes = (
"1452 176 LINE",
"1255 88 LINE SMOOTH",
"1110 25 OFFCURVE",
"969 -12 OFFCURVE",
"838 -12 CURVE SMOOTH"
);
}
);
};
guideLines = (
{
angle = 90;
position = "{587, 236}";
}
);
layerId = "620D8D18-E43F-4D11-9420-7EF908A5CAE8";
paths = (
{
closed = 1;
nodes = (
"973 -12 OFFCURVE",
"1116 27 OFFCURVE",
"1257 88 CURVE SMOOTH",
"1352.76 130.284 LINE",
"1327.01 185.663 LINE",
"1227 145 LINE SMOOTH",
"1094 92 OFFCURVE",
"963 61 OFFCURVE",
"842 61 CURVE SMOOTH",
"481 61 OFFCURVE",
"217 299 OFFCURVE",
"217 719 CURVE SMOOTH",
"217 1135 OFFCURVE",
"498 1380 OFFCURVE",
"852 1380 CURVE SMOOTH",
"971 1380 OFFCURVE",
"1083 1356 OFFCURVE",
"1221 1311 CURVE SMOOTH",
"1286.296 1290.5 LINE",
"1307.283 1347.164 LINE",
"1243 1374 LINE SMOOTH",
"1128 1421 OFFCURVE",
"997 1454 OFFCURVE",
"848 1454 CURVE SMOOTH",
"461 1454 OFFCURVE",
"133 1182 OFFCURVE",
"133 717 CURVE SMOOTH",
"133 252 OFFCURVE",
"449 -12 OFFCURVE",
"838 -12 CURVE SMOOTH"
);
}
);
width = 1444;
},
{
anchors = (
{
name = bottom;
position = "{739, -72}";
},
{
name = top.case;
position = "{829, 1475}";
}
);
background = {
paths = (
{
closed = 1;
nodes = (
"940 -18 OFFCURVE",
"1100 14 OFFCURVE",
"1270 80 CURVE SMOOTH",
"1405 131 LINE",
"1317 2 LINE",
"1208 565 LINE",
"1298 436 LINE",
"1147 420 LINE SMOOTH",
"1030 410 OFFCURVE",
"932 399 OFFCURVE",
"850 399 CURVE SMOOTH",
"637 399 OFFCURVE",
"539 473 OFFCURVE",
"539 721 CURVE SMOOTH",
"539 956 OFFCURVE",
"649 1038 OFFCURVE",
"862 1038 CURVE SMOOTH",
"940 1038 OFFCURVE",
"1030 1030 OFFCURVE",
"1135 1016 CURVE SMOOTH",
"1286 995 LINE",
"1178 879 LINE",
"1298 1448 LINE",
"1427 1305 LINE",
"1249 1372 LINE SMOOTH",
"1104 1427 OFFCURVE",
"961 1454 OFFCURVE",
"827 1454 CURVE SMOOTH",
"397 1454 OFFCURVE",
"72 1200 OFFCURVE",
"72 719 CURVE SMOOTH",
"72 219 OFFCURVE",
"362 -18 OFFCURVE",
"795 -18 CURVE SMOOTH"
);
}
);
};
guideLines = (
{
angle = 90;
position = "{619, 362}";
},
{
angle = 90;
position = "{587, 380}";
},
{
angle = 90;
position = "{433, 342}";
}
);
layerId = "5C950900-0D0F-4959-81DE-75F048290F1B";
paths = (
{
closed = 1;
nodes = (
"971 -18 OFFCURVE",
"1137 14 OFFCURVE",
"1276 66 CURVE SMOOTH",
"1302.7 75.861 LINE",
"1234.282 429.248 LINE",
"1147 420 LINE SMOOTH",
"1030 410 OFFCURVE",
"932 399 OFFCURVE",
"850 399 CURVE SMOOTH",
"637 399 OFFCURVE",
"539 473 OFFCURVE",
"539 721 CURVE SMOOTH",
"539 956 OFFCURVE",
"649 1038 OFFCURVE",
"862 1038 CURVE SMOOTH",
"961 1038 OFFCURVE",
"1051 1030 OFFCURVE",
"1155 1018 CURVE SMOOTH",
"1206.161 1012.532 LINE",
"1280.971 1367.252 LINE",
"1268 1372 LINE SMOOTH",
"1137 1421 OFFCURVE",
"985 1454 OFFCURVE",
"840 1454 CURVE SMOOTH",
"403 1454 OFFCURVE",
"72 1200 OFFCURVE",
"72 719 CURVE SMOOTH",
"72 219 OFFCURVE",
"373 -18 OFFCURVE",
"821 -18 CURVE SMOOTH"
);
}
);
width = 1335;
},
{
associatedMasterId = "5C950900-0D0F-4959-81DE-75F048290F1B";
background = {
paths = (
{
closed = 1;
nodes = (
"991 -20 OFFCURVE",
"1176 43 OFFCURVE",
"1368 154 CURVE",
"1294 2 LINE",
"1184 565 LINE",
"1315 473 LINE",
"1141 436 OFFCURVE",
"1008 420 OFFCURVE",
"887 420 CURVE SMOOTH",
"625 420 OFFCURVE",
"539 481 OFFCURVE",
"539 725 CURVE SMOOTH",
"539 940 OFFCURVE",
"637 1026 OFFCURVE",
"887 1026 CURVE SMOOTH",
"1016 1026 OFFCURVE",
"1135 1008 OFFCURVE",
"1303 969 CURVE",
"1176 879 LINE",
"1280 1448 LINE",
"1358 1307 LINE",
"1169 1409 OFFCURVE",
"977 1452 OFFCURVE",
"805 1452 CURVE SMOOTH",
"389 1452 OFFCURVE",
"72 1180 OFFCURVE",
"72 719 CURVE SMOOTH",
"72 219 OFFCURVE",
"399 -20 OFFCURVE",
"791 -20 CURVE SMOOTH"
);
}
);
};
layerId = "6285A972-DFB4-4FE1-81D2-2CF20050DF9C";
name = "Mar 11 18, 18:06";
paths = (
{
closed = 1;
nodes = (
"991 -20 OFFCURVE",
"1176 43 OFFCURVE",
"1368 154 CURVE",
"1335 2 LINE",
"1225 565 LINE",
"1315 473 LINE",
"1141 436 OFFCURVE",
"1008 420 OFFCURVE",
"887 420 CURVE SMOOTH",
"625 420 OFFCURVE",
"539 481 OFFCURVE",
"539 725 CURVE SMOOTH",
"539 940 OFFCURVE",
"637 1026 OFFCURVE",
"887 1026 CURVE SMOOTH",
"1016 1026 OFFCURVE",
"1135 1008 OFFCURVE",
"1303 969 CURVE",
"1217 879 LINE",
"1321 1448 LINE",
"1358 1307 LINE",
"1169 1409 OFFCURVE",
"977 1452 OFFCURVE",
"805 1452 CURVE SMOOTH",
"389 1452 OFFCURVE",
"72 1180 OFFCURVE",
"72 719 CURVE SMOOTH",
"72 219 OFFCURVE",
"399 -20 OFFCURVE",
"791 -20 CURVE SMOOTH"
);
}
);
width = 1362;
},
{
associatedMasterId = "5C950900-0D0F-4959-81DE-75F048290F1B";
background = {
paths = (
{
closed = 1;
nodes = (
"991 -20 OFFCURVE",
"1176 43 OFFCURVE",
"1368 154 CURVE",
"1335 2 LINE",
"1225 565 LINE",
"1315 473 LINE",
"1141 436 OFFCURVE",
"1008 420 OFFCURVE",
"887 420 CURVE SMOOTH",
"625 420 OFFCURVE",
"539 481 OFFCURVE",
"539 725 CURVE SMOOTH",
"539 940 OFFCURVE",
"637 1026 OFFCURVE",
"887 1026 CURVE SMOOTH",
"1016 1026 OFFCURVE",
"1135 1008 OFFCURVE",
"1303 969 CURVE",
"1190 879 LINE",
"1294 1448 LINE",
"1358 1307 LINE",
"1169 1409 OFFCURVE",
"977 1452 OFFCURVE",
"805 1452 CURVE SMOOTH",
"389 1452 OFFCURVE",
"72 1180 OFFCURVE",
"72 719 CURVE SMOOTH",
"72 219 OFFCURVE",
"399 -20 OFFCURVE",
"791 -20 CURVE SMOOTH"
);
}
);
};
guideLines = (
{
angle = 90;
position = "{639, 351}";
},
{
angle = 90;
position = "{610, 361}";
}
);
layerId = "EB6E93E2-2B5B-46BD-BBDC-0098E29ACC2B";
name = "Mar 12 18, 17:47";
paths = (
{
closed = 1;
nodes = (
"657 -217 OFFCURVE",
"1368 154 CURVE",
"1286 2 LINE",
"1286 565 LINE",
"1417 473 LINE",
"1200 436 OFFCURVE",
"1036 420 OFFCURVE",
"887 420 CURVE SMOOTH",
"625 420 OFFCURVE",
"539 481 OFFCURVE",
"539 725 CURVE SMOOTH",
"539 938 OFFCURVE",
"643 1026 OFFCURVE",
"739 1026 CURVE SMOOTH",
"887 1026 OFFCURVE",
"1217 813 OFFCURVE",
"1376 752 CURVE",
"1049 684 LINE",
"1464 1296 LINE",
"1579 989 LINE",
"1333 1165 OFFCURVE",
"1063 1450 OFFCURVE",
"696 1450 CURVE SMOOTH",
"414 1450 OFFCURVE",
"72 1202 OFFCURVE",
"72 719 CURVE SMOOTH",
"72 25 OFFCURVE"
);
}
);
width = 1362;
},
{
associatedMasterId = "5C950900-0D0F-4959-81DE-75F048290F1B";
background = {
paths = (
{
closed = 1;
nodes = (
"391 -10 OFFCURVE",
"891 -10 CURVE SMOOTH",
"1096 -10 OFFCURVE",
"1337 66 OFFCURVE",
"1593 217 CURVE",
"1313 -45 LINE",
"1313 598 LINE",
"1579 514 LINE",
"1329 449 OFFCURVE",
"1106 403 OFFCURVE",
"940 403 CURVE SMOOTH",
"666 403 OFFCURVE",
"539 465 OFFCURVE",
"539 727 CURVE SMOOTH",
"539 946 OFFCURVE",
"651 1030 OFFCURVE",
"803 1030 CURVE SMOOTH",
"1030 1030 OFFCURVE",
"1333 850 OFFCURVE",
"1477 762 CURVE",
"1032 676 LINE",
"1458 1307 LINE",
"1593 983 LINE",
"1395 1176 OFFCURVE",
"1171 1452 OFFCURVE",
"772 1452 CURVE SMOOTH",
"444 1452 OFFCURVE",
"72 1217 OFFCURVE",
"72 696 CURVE SMOOTH",
"72 180 OFFCURVE"
);
}
);
};
guideLines = (
{
angle = 90;
position = "{619, 362}";
},
{
angle = 90;
position = "{587, 380}";
}
);
layerId = "EFACE00A-C00A-4DD3-9E64-F7D17A972130";
name = "Mar 31 18, 23:28";
paths = (
{
closed = 1;
nodes = (
"72 180 OFFCURVE",
"391 -10 OFFCURVE",
"848 -10 CURVE SMOOTH",
"1087 -10 OFFCURVE",
"1389 84 OFFCURVE",
"1593 268 CURVE",
"1313 -45 LINE",
"1313 598 LINE",
"1579 481 LINE",
"1329 436 OFFCURVE",
"1106 403 OFFCURVE",
"940 403 CURVE SMOOTH",
"666 403 OFFCURVE",
"539 465 OFFCURVE",
"539 727 CURVE SMOOTH",
"539 946 OFFCURVE",
"651 1030 OFFCURVE",
"803 1030 CURVE SMOOTH",
"1030 1030 OFFCURVE",
"1333 850 OFFCURVE",
"1477 762 CURVE",
"1032 676 LINE",
"1458 1307 LINE",
"1565 983 LINE",
"1389 1176 OFFCURVE",
"1194 1452 OFFCURVE",
"821 1452 CURVE SMOOTH",
"475 1452 OFFCURVE",
"72 1225 OFFCURVE",
"72 696 CURVE SMOOTH"
);
}
);
width = 1403;
},
{
associatedMasterId = "5C950900-0D0F-4959-81DE-75F048290F1B";
background = {
paths = (
{
closed = 1;
nodes = (
"385 -10 OFFCURVE",
"831 -10 CURVE SMOOTH",
"1022 -10 OFFCURVE",
"1245 43 OFFCURVE",
"1483 147 CURVE",
"1313 -45 LINE",
"1313 598 LINE",
"1579 514 LINE",
"1329 449 OFFCURVE",
"1106 403 OFFCURVE",
"940 403 CURVE SMOOTH",
"666 403 OFFCURVE",
"539 465 OFFCURVE",
"539 727 CURVE SMOOTH",
"539 946 OFFCURVE",
"651 1030 OFFCURVE",
"803 1030 CURVE SMOOTH",
"1030 1030 OFFCURVE",
"1333 850 OFFCURVE",
"1477 762 CURVE",
"1032 676 LINE",
"1458 1307 LINE",
"1614 983 LINE",
"1411 1176 OFFCURVE",
"1182 1452 OFFCURVE",
"772 1452 CURVE SMOOTH",
"444 1452 OFFCURVE",
"72 1217 OFFCURVE",
"72 696 CURVE SMOOTH",
"72 197 OFFCURVE"
);
}
);
};
guideLines = (
{
angle = 90;
position = "{619, 362}";
},
{
angle = 90;
position = "{587, 380}";
},
{
angle = 90;
position = "{433, 342}";
}
);
layerId = "DB4D3AC3-6F44-4189-8FD3-377A68E70E21";
name = "Mar 31 18, 23:37";
paths = (
{
closed = 1;
nodes = (
"391 -10 OFFCURVE",
"891 -10 CURVE SMOOTH",
"1096 -10 OFFCURVE",
"1337 66 OFFCURVE",
"1593 217 CURVE",
"1313 -45 LINE",
"1313 598 LINE",
"1579 514 LINE",
"1329 449 OFFCURVE",
"1106 403 OFFCURVE",
"940 403 CURVE SMOOTH",
"666 403 OFFCURVE",
"539 465 OFFCURVE",
"539 727 CURVE SMOOTH",
"539 946 OFFCURVE",
"651 1030 OFFCURVE",
"803 1030 CURVE SMOOTH",
"1030 1030 OFFCURVE",
"1333 850 OFFCURVE",
"1477 762 CURVE",
"1032 676 LINE",
"1458 1307 LINE",
"1593 983 LINE",
"1395 1176 OFFCURVE",
"1171 1452 OFFCURVE",
"772 1452 CURVE SMOOTH",
"444 1452 OFFCURVE",
"72 1217 OFFCURVE",
"72 696 CURVE SMOOTH",
"72 180 OFFCURVE"
);
}
);
width = 1403;
},
{
anchors = (
{
name = bottom;
position = "{762, -72}";
},
{
name = top.case;
position = "{858, 1475}";
}
);
guideLines = (
{
position = "{192, 583}";
},
{
position = "{192, 117}";
}
);
layerId = "514A1583-697A-4C0A-B081-2869E94CF283";
paths = (
{
closed = 1;
nodes = (
"973 -16 OFFCURVE",
"1128 14 OFFCURVE",
"1268 76 CURVE SMOOTH",
"1331.856 102.866 LINE",
"1280.017 307.944 LINE",
"1188 283 LINE SMOOTH",
"1063 252 OFFCURVE",
"948 231 OFFCURVE",
"846 231 CURVE SMOOTH",
"559 231 OFFCURVE",
"377 387 OFFCURVE",
"377 721 CURVE SMOOTH",
"377 1047 OFFCURVE",
"573 1206 OFFCURVE",
"858 1206 CURVE SMOOTH",
"967 1206 OFFCURVE",
"1065 1184 OFFCURVE",
"1188 1161 CURVE SMOOTH",
"1243.655 1150.694 LINE",
"1294.587 1358.383 LINE",
"1255 1374 LINE SMOOTH",
"1133 1421 OFFCURVE",
"991 1454 OFFCURVE",
"844 1454 CURVE SMOOTH",
"432 1454 OFFCURVE",
"102 1192 OFFCURVE",
"102 719 CURVE SMOOTH",
"102 236 OFFCURVE",
"412 -16 OFFCURVE",
"829 -16 CURVE SMOOTH"
);
}
);
width = 1393;
},
{
anchors = (
{
name = bottom;
position = "{813, -72}";
},
{
name = top.case;
position = "{903, 1475}";
}
);
associatedMasterId = "620D8D18-E43F-4D11-9420-7EF908A5CAE8";
background = {
paths = (
{
closed = 1;
nodes = (
"1034 1358 OFFCURVE",
"1151 1337 OFFCURVE",
"1257 1303 CURVE SMOOTH",
"1413 1253 LINE",
"1327 1241 LINE",
"1391 1399 LINE",
"1407 1335 LINE",
"1296 1380 LINE SMOOTH",
"1174 1432 OFFCURVE",
"1036 1454 OFFCURVE",
"907 1454 CURVE SMOOTH",
"502 1454 OFFCURVE",
"164 1186 OFFCURVE",
"164 721 CURVE SMOOTH",
"164 260 OFFCURVE",
"487 -12 OFFCURVE",
"905 -12 CURVE SMOOTH",
"1034 -12 OFFCURVE",
"1171 10 OFFCURVE",
"1292 61 CURVE SMOOTH",
"1446 125 LINE",
"1407 43 LINE",
"1341 201 LINE",
"1411 186 LINE",
"1257 137 LINE SMOOTH",
"1153 104 OFFCURVE",
"1036 84 OFFCURVE",
"928 84 CURVE SMOOTH",
"551 84 OFFCURVE",
"274 322 OFFCURVE",
"274 721 CURVE SMOOTH",
"274 1124 OFFCURVE",
"543 1358 OFFCURVE",
"922 1358 CURVE SMOOTH"
);
}
);
};
guideLines = (
{
angle = 90;
position = "{607, 236}";
}
);
layerId = "CD2D8B90-944A-47C3-94FF-0ABB14A3E604";
name = "Jun 15 18, 09:49";
paths = (
{
closed = 1;
nodes = (
"1028 -20 OFFCURVE",
"1178 6 OFFCURVE",
"1321 76 CURVE SMOOTH",
"1477 152 LINE",
"1444 68 LINE",
"1368 225 LINE",
"1475 213 LINE",
"1288 139 LINE SMOOTH",
"1151 86 OFFCURVE",
"1016 55 OFFCURVE",
"893 55 CURVE SMOOTH",
"522 55 OFFCURVE",
"248 299 OFFCURVE",
"248 719 CURVE SMOOTH",
"248 1135 OFFCURVE",
"539 1380 OFFCURVE",
"903 1380 CURVE SMOOTH",
"1024 1380 OFFCURVE",
"1141 1352 OFFCURVE",
"1276 1300 CURVE SMOOTH",
"1370 1264 LINE",
"1311 1206 LINE",
"1384 1364 LINE",
"1411 1313 LINE",
"1305 1364 LINE SMOOTH",
"1188 1419 OFFCURVE",
"1053 1454 OFFCURVE",
"899 1454 CURVE SMOOTH",
"500 1454 OFFCURVE",
"164 1182 OFFCURVE",
"164 717 CURVE SMOOTH",
"164 252 OFFCURVE",
"487 -20 OFFCURVE",
"889 -20 CURVE SMOOTH"
);
}
);
width = 1518;
},
{
anchors = (
{
name = bottom;
position = "{813, -72}";
},
{
name = top.case;
position = "{903, 1475}";
}
);
associatedMasterId = "620D8D18-E43F-4D11-9420-7EF908A5CAE8";
background = {
paths = (
{
closed = 1;
nodes = (
"1034 1358 OFFCURVE",
"1151 1337 OFFCURVE",
"1257 1303 CURVE SMOOTH",
"1413 1253 LINE",
"1327 1241 LINE",
"1391 1399 LINE",
"1407 1335 LINE",
"1296 1380 LINE SMOOTH",
"1174 1432 OFFCURVE",
"1036 1454 OFFCURVE",
"907 1454 CURVE SMOOTH",
"502 1454 OFFCURVE",
"164 1186 OFFCURVE",
"164 721 CURVE SMOOTH",
"164 260 OFFCURVE",
"487 -12 OFFCURVE",
"905 -12 CURVE SMOOTH",
"1034 -12 OFFCURVE",
"1171 10 OFFCURVE",
"1292 61 CURVE SMOOTH",
"1446 125 LINE",
"1407 43 LINE",
"1341 201 LINE",
"1411 186 LINE",
"1257 137 LINE SMOOTH",
"1153 104 OFFCURVE",
"1036 84 OFFCURVE",
"928 84 CURVE SMOOTH",
"551 84 OFFCURVE",
"274 322 OFFCURVE",
"274 721 CURVE SMOOTH",
"274 1124 OFFCURVE",
"543 1358 OFFCURVE",
"922 1358 CURVE SMOOTH"
);
}
);
};
guideLines = (
{
angle = 90;
position = "{607, 236}";
}
);
layerId = "B4E58CF1-C0E9-473D-A0F8-0AD1D92C7DD2";
name = "Jun 15 18, 09:50";
paths = (
{
closed = 1;
nodes = (
"1028 -12 OFFCURVE",
"1178 14 OFFCURVE",
"1321 84 CURVE SMOOTH",
"1477 160 LINE",
"1444 76 LINE",
"1368 233 LINE",
"1475 219 LINE",
"1288 145 LINE SMOOTH",
"1151 92 OFFCURVE",
"1016 61 OFFCURVE",
"893 61 CURVE SMOOTH",
"522 61 OFFCURVE",
"248 299 OFFCURVE",
"248 719 CURVE SMOOTH",
"248 1135 OFFCURVE",
"539 1380 OFFCURVE",
"903 1380 CURVE SMOOTH",
"1024 1380 OFFCURVE",
"1141 1356 OFFCURVE",
"1282 1311 CURVE SMOOTH",
"1370 1284 LINE",
"1317 1206 LINE",
"1378 1368 LINE",
"1411 1331 LINE",
"1305 1374 LINE SMOOTH",
"1188 1421 OFFCURVE",
"1053 1454 OFFCURVE",
"899 1454 CURVE SMOOTH",
"500 1454 OFFCURVE",
"164 1182 OFFCURVE",
"164 717 CURVE SMOOTH",
"164 252 OFFCURVE",
"487 -12 OFFCURVE",
"889 -12 CURVE SMOOTH"
);
}
);
width = 1518;
},
{
anchors = (
{
name = bottom;
position = "{764, -72}";
},
{
name = top.case;
position = "{852, 1475}";
}
);
associatedMasterId = "514A1583-697A-4C0A-B081-2869E94CF283";
guideLines = (
{
position = "{192, 583}";
},
{
position = "{192, 117}";
}
);
layerId = "09D3C086-328C-42CA-9F9F-31E132AE9EA8";
name = "Dec 11 18, 10:06";
paths = (
{
closed = 1;
nodes = (
"952 -16 OFFCURVE",
"1102 18 OFFCURVE",
"1245 78 CURVE SMOOTH",
"1389 137 LINE",
"1356 41 LINE",
"1233 399 LINE",
"1329 340 LINE",
"1171 295 LINE SMOOTH",
"1051 260 OFFCURVE",
"942 244 OFFCURVE",
"848 244 CURVE SMOOTH",
"569 244 OFFCURVE",
"395 397 OFFCURVE",
"395 721 CURVE SMOOTH",
"395 1036 OFFCURVE",
"584 1194 OFFCURVE",
"856 1194 CURVE SMOOTH",
"946 1194 OFFCURVE",
"1044 1178 OFFCURVE",
"1151 1153 CURVE SMOOTH",
"1274 1124 LINE",
"1190 1042 LINE",
"1307 1405 LINE",
"1378 1327 LINE",
"1231 1378 LINE SMOOTH",
"1096 1425 OFFCURVE",
"963 1454 OFFCURVE",
"836 1454 CURVE SMOOTH",
"436 1454 OFFCURVE",
"119 1194 OFFCURVE",
"119 721 CURVE SMOOTH",
"119 238 OFFCURVE",
"414 -16 OFFCURVE",
"813 -16 CURVE SMOOTH"
);
}
);
width = 1380;
}
);
leftKerningGroup = O;
leftMetricsKey = O;
rightKerningGroup = C;
unicode = 0043;
},
{
color = 4;
glyphname = D;
lastChange = "2020-03-07 19:38:00 +0000";
layers = (
{
anchors = (
{
name = top.case;
position = "{698, 1475}";
}
);
background = {
paths = (
{
closed = 1;
nodes = (
"1165 -20 OFFCURVE",
"1456 287 OFFCURVE",
"1456 717 CURVE SMOOTH",
"1456 1147 OFFCURVE",
"1165 1454 OFFCURVE",
"754 1454 CURVE SMOOTH",
"344 1454 OFFCURVE",
"53 1147 OFFCURVE",
"53 717 CURVE SMOOTH",
"53 287 OFFCURVE",
"344 -20 OFFCURVE",
"754 -20 CURVE SMOOTH"
);
},
{
closed = 1;
nodes = (
"395 53 OFFCURVE",
"137 334 OFFCURVE",
"137 717 CURVE SMOOTH",
"137 1100 OFFCURVE",
"395 1380 OFFCURVE",
"754 1380 CURVE SMOOTH",
"1116 1380 OFFCURVE",
"1372 1100 OFFCURVE",
"1372 717 CURVE SMOOTH",
"1372 334 OFFCURVE",
"1116 53 OFFCURVE",
"754 53 CURVE SMOOTH"
);
}
);
};
layerId = "620D8D18-E43F-4D11-9420-7EF908A5CAE8";
paths = (
{
closed = 1;
nodes = (
"682 0 LINE SMOOTH",
"1133 0 OFFCURVE",
"1417 276 OFFCURVE",
"1417 715 CURVE SMOOTH",
"1417 1153 OFFCURVE",
"1139 1434 OFFCURVE",
"702 1434 CURVE SMOOTH",
"215 1434 LINE",
"215 0 LINE"
);
},
{
closed = 1;
nodes = (
"295 1360 LINE",
"696 1360 LINE SMOOTH",
"1092 1360 OFFCURVE",
"1333 1116 OFFCURVE",
"1333 715 CURVE SMOOTH",
"1333 324 OFFCURVE",
"1085 74 OFFCURVE",
"696 74 CURVE SMOOTH",
"295 74 LINE"
);
}
);
width = 1550;
},
{
anchors = (
{
name = top.case;
position = "{702, 1475}";
}
);
background = {
paths = (
{
closed = 1;
nodes = (
"678 0 LINE SMOOTH",
"1178 0 OFFCURVE",
"1489 254 OFFCURVE",
"1489 715 CURVE SMOOTH",
"1489 1206 OFFCURVE",
"1167 1434 OFFCURVE",
"692 1434 CURVE SMOOTH",
"113 1434 LINE",
"113 0 LINE"
);
},
{
closed = 1;
nodes = (
"569 1022 LINE",
"678 1022 LINE SMOOTH",
"936 1022 OFFCURVE",
"1022 961 OFFCURVE",
"1022 715 CURVE SMOOTH",
"1022 500 OFFCURVE",
"926 412 OFFCURVE",
"678 412 CURVE SMOOTH",
"569 412 LINE"
);
}
);
};
guideLines = (
{
position = "{597, 349}";
},
{
position = "{278, 505}";
}
);
layerId = "5C950900-0D0F-4959-81DE-75F048290F1B";
paths = (
{
closed = 1;
nodes = (
"678 0 LINE SMOOTH",
"1178 0 OFFCURVE",
"1489 254 OFFCURVE",
"1489 715 CURVE SMOOTH",
"1489 1206 OFFCURVE",
"1167 1434 OFFCURVE",
"692 1434 CURVE SMOOTH",
"113 1434 LINE",
"113 0 LINE"
);
},
{
closed = 1;
nodes = (
"569 1034 LINE",
"678 1034 LINE SMOOTH",
"936 1034 OFFCURVE",
"1022 971 OFFCURVE",
"1022 715 CURVE SMOOTH",
"1022 492 OFFCURVE",
"926 399 OFFCURVE",
"678 399 CURVE SMOOTH",
"569 399 LINE"
);
}
);
width = 1561;
},
{
anchors = (
{
name = top.case;
position = "{707, 1475}";
}
);
background = {
paths = (
{
closed = 1;
nodes = (
"686 0 LINE SMOOTH",
"1161 0 OFFCURVE",
"1460 266 OFFCURVE",
"1460 715 CURVE SMOOTH",
"1460 1180 OFFCURVE",
"1159 1434 OFFCURVE",
"705 1434 CURVE SMOOTH",
"170 1434 LINE",
"170 0 LINE"
);
},
{
closed = 1;
nodes = (
"438 1192 LINE",
"694 1192 LINE SMOOTH",
"1020 1192 OFFCURVE",
"1184 1038 OFFCURVE",
"1184 715 CURVE SMOOTH",
"1184 412 OFFCURVE",
"1012 244 OFFCURVE",
"694 244 CURVE SMOOTH",
"438 244 LINE"
);
}
);
};
guideLines = (
{
position = "{187, 115}";
},
{
position = "{177, 585}";
}
);
layerId = "514A1583-697A-4C0A-B081-2869E94CF283";
paths = (
{
closed = 1;
nodes = (
"686 0 LINE SMOOTH",
"1161 0 OFFCURVE",
"1460 266 OFFCURVE",
"1460 715 CURVE SMOOTH",
"1460 1180 OFFCURVE",
"1159 1434 OFFCURVE",
"705 1434 CURVE SMOOTH",
"170 1434 LINE",
"170 0 LINE"
);
},
{
closed = 1;
nodes = (
"438 1198 LINE",
"696 1198 LINE SMOOTH",
"1022 1198 OFFCURVE",
"1186 1042 OFFCURVE",
"1186 715 CURVE SMOOTH",
"1186 408 OFFCURVE",
"1014 236 OFFCURVE",
"696 236 CURVE SMOOTH",
"438 236 LINE"
);
}
);
width = 1562;
}
);
leftMetricsKey = H;
rightKerningGroup = O;
rightMetricsKey = O;
unicode = 0044;
},
{
color = 3;
glyphname = Eth;
lastChange = "2020-03-07 19:38:00 +0000";
layers = (
{
components = (
{
name = D;
transform = "{1, 0, 0, 1, 123, 0}";
}
);
layerId = "620D8D18-E43F-4D11-9420-7EF908A5CAE8";
paths = (
{
closed = 1;
nodes = (
"895 696 LINE",
"895 770 LINE",
"41 770 LINE",
"41 696 LINE"
);
}
);
width = 1673;
},
{
background = {
components = (
{
name = Hbar;
transform = "{1, 0, 0, 1, 0, -216}";
}
);
};
components = (
{
alignment = -1;
name = D;
transform = "{1, 0, 0, 1, 82, 0}";
}
);
layerId = "514A1583-697A-4C0A-B081-2869E94CF283";
paths = (
{
closed = 1;
nodes = (
"887 637 LINE",
"887 819 LINE",
"31 819 LINE",
"31 637 LINE"
);
}
);
width = 1644;
},
{
components = (
{
name = D;
transform = "{1, 0, 0, 1, 51, 0}";
}
);
layerId = "5C950900-0D0F-4959-81DE-75F048290F1B";
paths = (
{
closed = 1;
nodes = (
"846 592 LINE",
"846 831 LINE",
"10 831 LINE",
"10 592 LINE"
);
}
);
width = 1612;
}
);
leftKerningGroup = Eth;
rightKerningGroup = O;
rightMetricsKey = D;
unicode = 00D0;
},
{
color = 4;
glyphname = E;
lastChange = "2020-03-07 19:16:39 +0000";
layers = (
{
anchors = (
{
name = bottom;
position = "{723, -72}";
},
{
name = ogonek;
position = "{1075, 20}";
},
{
name = top.case;
position = "{743, 1475}";
}
);
background = {
paths = (
{
closed = 1;
nodes = (
"1239 0 LINE",
"1239 408 LINE",
"512 408 LINE",
"512 543 LINE",
"1143 543 LINE",
"1143 895 LINE",
"512 895 LINE",
"512 1030 LINE",
"1225 1030 LINE",
"1225 1434 LINE",
"55 1434 LINE",
"55 0 LINE"
);
}
);
};
layerId = "620D8D18-E43F-4D11-9420-7EF908A5CAE8";
paths = (
{
closed = 1;
nodes = (
"1229 0 LINE",
"1229 74 LINE",
"295 74 LINE",
"295 696 LINE",
"1133 696 LINE",
"1133 770 LINE",
"295 770 LINE",
"295 1360 LINE",
"1214 1360 LINE",
"1214 1434 LINE",
"215 1434 LINE",
"215 0 LINE"
);
}
);
width = 1341;
},
{
anchors = (
{
name = bottom;
position = "{721, -72}";
},
{
name = ogonek;
position = "{1036, 20}";
},
{
name = top.case;
position = "{702, 1452}";
}
);
layerId = "5C950900-0D0F-4959-81DE-75F048290F1B";
paths = (
{
closed = 1;
nodes = (
"1296 0 LINE",
"1296 393 LINE",
"569 393 LINE",
"569 557 LINE",
"1200 557 LINE",
"1200 895 LINE",
"569 895 LINE",
"569 1044 LINE",
"1282 1044 LINE",
"1282 1434 LINE",
"113 1434 LINE",
"113 0 LINE"
);
}
);
width = 1348;
},
{
associatedMasterId = "5C950900-0D0F-4959-81DE-75F048290F1B";
layerId = "C029100F-53A5-40B7-B8CD-78D1425008EC";
name = "Mar 18 18, 12:11";
paths = (
{
closed = 1;
nodes = (
"1296 0 LINE",
"1296 387 LINE",
"569 387 LINE",
"569 535 LINE",
"1200 535 LINE",
"1200 905 LINE",
"569 905 LINE",
"569 1051 LINE",
"1282 1051 LINE",
"1282 1434 LINE",
"113 1434 LINE",
"113 0 LINE"
);
}
);
width = 1348;
},
{
associatedMasterId = "5C950900-0D0F-4959-81DE-75F048290F1B";
layerId = "76A27239-EDF3-4DD9-9FF4-71574D8B93DB";
name = "Mar 18 18, 12:11";
paths = (
{
closed = 1;
nodes = (
"1296 0 LINE",
"1296 408 LINE",
"569 408 LINE",
"569 543 LINE",
"1200 543 LINE",
"1200 895 LINE",
"569 895 LINE",
"569 1030 LINE",
"1282 1030 LINE",
"1282 1434 LINE",
"113 1434 LINE",
"113 0 LINE"
);
}
);
width = 1348;
},
{
associatedMasterId = "5C950900-0D0F-4959-81DE-75F048290F1B";
layerId = "965C205E-13F4-4381-ABAD-E2BC2A5A996B";
name = "Mar 18 18, 12:17";
paths = (
{
closed = 1;
nodes = (
"1296 0 LINE",
"1296 408 LINE",
"569 408 LINE",
"569 584 LINE",
"1200 584 LINE",
"1200 854 LINE",
"569 854 LINE",
"569 1030 LINE",
"1282 1030 LINE",
"1282 1434 LINE",
"113 1434 LINE",
"113 0 LINE"
);
}
);
width = 1348;
},
{
anchors = (
{
name = bottom;
position = "{723, -72}";
},
{
name = ogonek;
position = "{1061, 20}";
},
{
name = top.case;
position = "{709, 1464}";
}
);
background = {
paths = (
{
closed = 1;
nodes = (
"1264 0 LINE",
"1264 233 LINE",
"432 233 LINE",
"432 627 LINE",
"1167 627 LINE",
"1167 834 LINE",
"432 834 LINE",
"432 1202 LINE",
"1249 1202 LINE",
"1249 1434 LINE",
"164 1434 LINE",
"164 0 LINE"
);
}
);
};
layerId = "514A1583-697A-4C0A-B081-2869E94CF283";
paths = (
{
closed = 1;
nodes = (
"1260 0 LINE",
"1260 236 LINE",
"438 236 LINE",
"438 616 LINE",
"1163 616 LINE",
"1163 852 LINE",
"438 852 LINE",
"438 1198 LINE",
"1245 1198 LINE",
"1245 1434 LINE",
"170 1434 LINE",
"170 0 LINE"
);
}
);
width = 1341;
}
);
leftMetricsKey = H;
rightKerningGroup = E;
unicode = 0045;
},
{
color = 4;
glyphname = F;
lastChange = "2020-03-07 19:16:39 +0000";
layers = (
{
layerId = "620D8D18-E43F-4D11-9420-7EF908A5CAE8";
paths = (
{
closed = 1;
nodes = (
"295 0 LINE",
"295 696 LINE",
"1092 696 LINE",
"1092 770 LINE",
"295 770 LINE",
"295 1360 LINE",
"1174 1360 LINE",
"1174 1434 LINE",
"215 1434 LINE",
"215 0 LINE"
);
}
);
width = 1245;
},
{
layerId = "5C950900-0D0F-4959-81DE-75F048290F1B";
paths = (
{
closed = 1;
nodes = (
"569 0 LINE",
"569 485 LINE",
"1176 485 LINE",
"1176 823 LINE",
"569 823 LINE",
"569 1034 LINE",
"1257 1034 LINE",
"1257 1434 LINE",
"113 1434 LINE",
"113 0 LINE"
);
}
);
width = 1288;
},
{
associatedMasterId = "5C950900-0D0F-4959-81DE-75F048290F1B";
layerId = "514ECB3F-6398-496B-84EA-B37A7EE2764D";
name = "Mar 30 18, 08:49";
paths = (
{
closed = 1;
nodes = (
"569 0 LINE",
"569 475 LINE",
"1176 475 LINE",
"1176 864 LINE",
"569 864 LINE",
"569 1034 LINE",
"758 1034 LINE SMOOTH",
"920 1034 OFFCURVE",
"1257 1024 OFFCURVE",
"1257 1350 CURVE SMOOTH",
"1257 1434 LINE",
"113 1434 LINE",
"113 0 LINE"
);
}
);
width = 1288;
},
{
background = {
paths = (
{
closed = 1;
nodes = (
"432 0 LINE",
"432 592 LINE",
"1135 592 LINE",
"1135 797 LINE",
"432 797 LINE",
"432 1198 LINE",
"1217 1198 LINE",
"1217 1434 LINE",
"164 1434 LINE",
"164 0 LINE"
);
}
);
};
layerId = "514A1583-697A-4C0A-B081-2869E94CF283";
paths = (
{
closed = 1;
nodes = (
"438 0 LINE",
"438 594 LINE",
"1128 594 LINE",
"1128 829 LINE",
"438 829 LINE",
"438 1198 LINE",
"1210 1198 LINE",
"1210 1434 LINE",
"170 1434 LINE",
"170 0 LINE"
);
}
);
width = 1268;
}
);
leftMetricsKey = H;
unicode = 0046;
},
{
color = 4;
glyphname = G;
lastChange = "2021-02-24 21:25:29 +0000";
layers = (
{
anchors = (
{
name = bottom;
position = "{954, -72}";
},
{
name = top.case;
position = "{928, 1475}";
}
);
background = {
paths = (
{
closed = 1;
nodes = (
"1161 -20 OFFCURVE",
"1319 16 OFFCURVE",
"1475 78 CURVE",
"1475 702 LINE",
"850 702 LINE",
"850 629 LINE",
"1395 629 LINE",
"1395 63 LINE",
"1413 127 LINE",
"1284 82 OFFCURVE",
"1130 53 OFFCURVE",
"1008 53 CURVE SMOOTH",
"520 53 OFFCURVE",
"227 303 OFFCURVE",
"227 719 CURVE SMOOTH",
"227 1145 OFFCURVE",
"541 1380 OFFCURVE",
"938 1380 CURVE SMOOTH",
"1047 1380 OFFCURVE",
"1161 1364 OFFCURVE",
"1278 1327 CURVE SMOOTH",
"1386 1292 LINE",
"1339 1268 LINE",
"1382 1411 LINE",
"1401 1358 LINE",
"1315 1389 LINE SMOOTH",
"1190 1434 OFFCURVE",
"1061 1454 OFFCURVE",
"938 1454 CURVE SMOOTH",
"502 1454 OFFCURVE",
"143 1194 OFFCURVE",
"143 721 CURVE SMOOTH",
"143 244 OFFCURVE",
"467 -20 OFFCURVE",
"1014 -20 CURVE SMOOTH"
);
}
);
};
guideLines = (
{
angle = 90;
position = "{673, 137}";
}
);
layerId = "620D8D18-E43F-4D11-9420-7EF908A5CAE8";
paths = (
{
closed = 1;
nodes = (
"1151 -20 OFFCURVE",
"1309 16 OFFCURVE",
"1464 78 CURVE",
"1464 702 LINE",
"840 702 LINE",
"840 629 LINE",
"1384 629 LINE",
"1384 120.547 LINE",
"1259.088 79.247 OFFCURVE",
"1114.016 53 OFFCURVE",
"997 53 CURVE SMOOTH",
"510 53 OFFCURVE",
"217 303 OFFCURVE",
"217 719 CURVE SMOOTH",
"217 1145 OFFCURVE",
"530 1380 OFFCURVE",
"928 1380 CURVE SMOOTH",
"1036 1380 OFFCURVE",
"1151 1364 OFFCURVE",
"1268 1327 CURVE SMOOTH",
"1339.749 1303.748 LINE",
"1359.483 1369.372 LINE",
"1294 1393 LINE SMOOTH",
"1180 1434 OFFCURVE",
"1051 1454 OFFCURVE",
"928 1454 CURVE SMOOTH",
"492 1454 OFFCURVE",
"133 1194 OFFCURVE",
"133 721 CURVE SMOOTH",
"133 244 OFFCURVE",
"457 -20 OFFCURVE",
"1004 -20 CURVE SMOOTH"
);
}
);
width = 1638;
},
{
anchors = (
{
name = bottom;
position = "{850, -72}";
},
{
name = top.case;
position = "{852, 1475}";
}
);
background = {
paths = (
{
closed = 1;
nodes = (
"1077 -18 OFFCURVE",
"1315 51 OFFCURVE",
"1452 141 CURVE",
"1452 827 LINE",
"760 827 LINE",
"760 522 LINE",
"1073 522 LINE",
"1073 315 LINE",
"1120 406 LINE",
"1028 383 OFFCURVE",
"950 377 OFFCURVE",
"868 377 CURVE SMOOTH",
"651 377 OFFCURVE",
"539 463 OFFCURVE",
"539 713 CURVE SMOOTH",
"539 956 OFFCURVE",
"664 1034 OFFCURVE",
"889 1034 CURVE SMOOTH",
"975 1034 OFFCURVE",
"1075 1024 OFFCURVE",
"1190 1006 CURVE SMOOTH",
"1376 977 LINE",
"1249 879 LINE",
"1366 1448 LINE",
"1509 1278 LINE",
"1280 1370 LINE SMOOTH",
"1147 1423 OFFCURVE",
"1010 1452 OFFCURVE",
"872 1452 CURVE SMOOTH",
"422 1452 OFFCURVE",
"72 1200 OFFCURVE",
"72 717 CURVE SMOOTH",
"72 272 OFFCURVE",
"358 -18 OFFCURVE",
"850 -18 CURVE SMOOTH"
);
}
);
};
guideLines = (
{
position = "{434, 514}";
}
);
layerId = "5C950900-0D0F-4959-81DE-75F048290F1B";
paths = (
{
closed = 1;
nodes = (
"1077 -18 OFFCURVE",
"1315 51 OFFCURVE",
"1452 141 CURVE",
"1452 827 LINE",
"760 827 LINE",
"760 522 LINE",
"1073 522 LINE",
"1073 395.45 LINE",
"1000.643 381.088 OFFCURVE",
"935.684 377 OFFCURVE",
"868 377 CURVE SMOOTH",
"651 377 OFFCURVE",
"539 463 OFFCURVE",
"539 713 CURVE SMOOTH",
"539 971 OFFCURVE",
"664 1053 OFFCURVE",
"889 1053 CURVE SMOOTH",
"975 1053 OFFCURVE",
"1075 1042 OFFCURVE",
"1190 1022 CURVE SMOOTH",
"1275.475 1007.754 LINE",
"1344.623 1344.038 LINE",
"1280 1370 LINE SMOOTH",
"1147 1423 OFFCURVE",
"1010 1452 OFFCURVE",
"872 1452 CURVE SMOOTH",
"422 1452 OFFCURVE",
"72 1200 OFFCURVE",
"72 717 CURVE SMOOTH",
"72 272 OFFCURVE",
"358 -18 OFFCURVE",
"850 -18 CURVE SMOOTH"
);
}
);
width = 1513;
},
{
anchors = (
{
name = bottom;
position = "{903, -72}";
},
{
name = top.case;
position = "{903, 1475}";
}
);
background = {
paths = (
{
closed = 1;
nodes = (
"1126 -20 OFFCURVE",
"1315 35 OFFCURVE",
"1458 111 CURVE",
"1458 803 LINE",
"823 803 LINE",
"823 580 LINE",
"1206 580 LINE",
"1206 190 LINE",
"1270 287 LINE",
"1163 256 OFFCURVE",
"1053 238 OFFCURVE",
"954 238 CURVE SMOOTH",
"621 238 OFFCURVE",
"428 399 OFFCURVE",
"428 721 CURVE SMOOTH",
"428 1044 OFFCURVE",
"637 1196 OFFCURVE",
"932 1196 CURVE SMOOTH",
"1026 1196 OFFCURVE",
"1126 1182 OFFCURVE",
"1239 1155 CURVE SMOOTH",
"1378 1122 LINE",
"1278 1071 LINE",
"1378 1423 LINE",
"1450 1319 LINE",
"1298 1380 LINE SMOOTH",
"1174 1432 OFFCURVE",
"1047 1454 OFFCURVE",
"920 1454 CURVE SMOOTH",
"496 1454 OFFCURVE",
"154 1200 OFFCURVE",
"154 719 CURVE SMOOTH",
"154 262 OFFCURVE",
"444 -20 OFFCURVE",
"946 -20 CURVE SMOOTH"
);
}
);
};
guideLines = (
{
position = "{299, 584}";
},
{
position = "{291, 116}";
}
);
layerId = "514A1583-697A-4C0A-B081-2869E94CF283";
paths = (
{
closed = 1;
nodes = (
"1114 -20 OFFCURVE",
"1313 35 OFFCURVE",
"1458 111 CURVE",
"1458 811 LINE",
"801 811 LINE",
"801 575 LINE",
"1190 575 LINE",
"1190 246.82 LINE",
"1102.138 226.09 OFFCURVE",
"1014.064 215 OFFCURVE",
"934 215 CURVE SMOOTH",
"582 215 OFFCURVE",
"377 383 OFFCURVE",
"377 717 CURVE SMOOTH",
"377 1051 OFFCURVE",
"598 1206 OFFCURVE",
"909 1206 CURVE SMOOTH",
"1006 1206 OFFCURVE",
"1114 1190 OFFCURVE",
"1229 1165 CURVE SMOOTH",
"1306.82 1148.06 LINE",
"1353.533 1356.515 LINE",
"1288 1382 LINE SMOOTH",
"1163 1430 OFFCURVE",
"1030 1454 OFFCURVE",
"901 1454 CURVE SMOOTH",
"457 1454 OFFCURVE",
"102 1198 OFFCURVE",
"102 719 CURVE SMOOTH",
"102 258 OFFCURVE",
"408 -20 OFFCURVE",
"928 -20 CURVE SMOOTH"
);
}
);
width = 1577;
}
);
leftKerningGroup = O;
leftMetricsKey = O;
rightKerningGroup = G;
unicode = 0047;
},
{
color = 4;
glyphname = H;
lastChange = "2020-03-07 19:16:39 +0000";
layers = (
{
anchors = (
{
name = top.case;
position = "{778, 1475}";
}
);
layerId = "620D8D18-E43F-4D11-9420-7EF908A5CAE8";
paths = (
{
closed = 1;
nodes = (
"295 0 LINE",
"295 709 LINE",
"1262 709 LINE",
"1262 0 LINE",
"1341 0 LINE",
"1341 1434 LINE",
"1262 1434 LINE",
"1262 782 LINE",
"295 782 LINE",
"295 1434 LINE",
"215 1434 LINE",
"215 0 LINE"
);
}
);
width = 1556;
},
{
anchors = (
{
name = top.case;
position = "{809, 1475}";
}
);
background = {
paths = (
{
closed = 1;
nodes = (
"1225 -18 OFFCURVE",
"1507 217 OFFCURVE",
"1507 586 CURVE SMOOTH",
"1507 1434 LINE",
"1065 1434 LINE",
"1065 647 LINE SMOOTH",
"1065 459 OFFCURVE",
"979 408 OFFCURVE",
"821 408 CURVE SMOOTH",
"659 408 OFFCURVE",
"571 459 OFFCURVE",
"571 647 CURVE SMOOTH",
"571 1434 LINE",
"113 1434 LINE",
"113 586 LINE SMOOTH",
"113 217 OFFCURVE",
"371 -18 OFFCURVE",
"807 -18 CURVE SMOOTH"
);
}
);
};
layerId = "5C950900-0D0F-4959-81DE-75F048290F1B";
paths = (
{
closed = 1;
nodes = (
"569 0 LINE",
"569 528 LINE",
"1051 528 LINE",
"1051 0 LINE",
"1507 0 LINE",
"1507 1434 LINE",
"1051 1434 LINE",
"1051 928 LINE",
"569 928 LINE",
"569 1434 LINE",
"113 1434 LINE",
"113 0 LINE"
);
}
);
width = 1620;
},
{
anchors = (
{
name = top.case;
position = "{799, 1475}";
}
);
background = {
paths = (
{
closed = 1;
nodes = (
"432 0 LINE",
"432 618 LINE",
"1157 618 LINE",
"1157 0 LINE",
"1425 0 LINE",
"1425 1434 LINE",
"1157 1434 LINE",
"1157 856 LINE",
"432 856 LINE",
"432 1434 LINE",
"164 1434 LINE",
"164 0 LINE"
);
}
);
};
layerId = "514A1583-697A-4C0A-B081-2869E94CF283";
paths = (
{
closed = 1;
nodes = (
"438 0 LINE",
"438 621 LINE",
"1161 621 LINE",
"1161 0 LINE",
"1430 0 LINE",
"1430 1434 LINE",
"1161 1434 LINE",
"1161 856 LINE",
"438 856 LINE",
"438 1434 LINE",
"170 1434 LINE",
"170 0 LINE"
);
}
);
width = 1599;
}
);
unicode = 0048;
},
{
color = 3;
glyphname = Hbar;
lastChange = "2020-03-07 19:16:39 +0000";
layers = (
{
components = (
{
name = H;
transform = "{1, 0, 0, 1, 51, 0}";
}
);
layerId = "620D8D18-E43F-4D11-9420-7EF908A5CAE8";
paths = (
{
closed = 1;
nodes = (
"1649 1065 LINE",
"1649 1130 LINE",
"10 1130 LINE",
"10 1065 LINE"
);
}
);
width = 1659;
},
{
components = (
{
alignment = -1;
name = H;
transform = "{1, 0, 0, 1, 29, 0}";
}
);
layerId = "514A1583-697A-4C0A-B081-2869E94CF283";
paths = (
{
closed = 1;
nodes = (
"1638 1083 LINE",
"1638 1264 LINE",
"16 1264 LINE",
"16 1083 LINE"
);
}
);
width = 1655;
},
{
components = (
{
name = H;
transform = "{1, 0, 0, 1, 35, 0}";
}
);
layerId = "5C950900-0D0F-4959-81DE-75F048290F1B";
paths = (
{
closed = 1;
nodes = (
"1679 1079 LINE",
"1679 1300 LINE",
"10 1300 LINE",
"10 1079 LINE"
);
}
);
width = 1690;
}
);
unicode = 0126;
},
{
color = 4;
glyphname = I;
lastChange = "2020-03-07 19:38:00 +0000";
layers = (
{
anchors = (
{
name = bottom;
position = "{256, -72}";
},
{
name = ogonek;
position = "{172, 20}";
},
{
name = top.case;
position = "{256, 1475}";
}
);
layerId = "620D8D18-E43F-4D11-9420-7EF908A5CAE8";
paths = (
{
closed = 1;
nodes = (
"295 0 LINE",
"295 1434 LINE",
"215 1434 LINE",
"215 0 LINE"
);
}
);
width = 510;
},
{
anchors = (
{
name = bottom;
position = "{340, -72}";
},
{
name = ogonek;
position = "{305, 20}";
},
{
name = top.case;
position = "{342, 1475}";
}
);
layerId = "5C950900-0D0F-4959-81DE-75F048290F1B";
paths = (
{
closed = 1;
nodes = (
"569 0 LINE",
"569 1434 LINE",
"113 1434 LINE",
"113 0 LINE"
);
}
);
width = 682;
},
{
anchors = (
{
name = bottom;
position = "{305, -72}";
},
{
name = ogonek;
position = "{244, 20}";
},
{
name = top.case;
position = "{305, 1475}";
}
);
layerId = "514A1583-697A-4C0A-B081-2869E94CF283";
paths = (
{
closed = 1;
nodes = (
"438 0 LINE",
"438 1434 LINE",
"170 1434 LINE",
"170 0 LINE"
);
}
);
width = 607;
}
);
leftMetricsKey = H;
rightMetricsKey = H;
unicode = 0049;
},
{
glyphname = Ihookabove;
lastChange = "2020-03-07 19:38:38 +0000";
layers = (
{
components = (
{
name = I;
},
{
name = hookabovecomb.case;
transform = "{1, 0, 0, 1, 256, 0}";
}
);
layerId = "620D8D18-E43F-4D11-9420-7EF908A5CAE8";
width = 510;
},
{
components = (
{
name = I;
},
{
name = hookabovecomb.case;
transform = "{1, 0, 0, 1, 325, 0}";
}
);
layerId = "514A1583-697A-4C0A-B081-2869E94CF283";
width = 607;
},
{
background = {
paths = (
{
closed = 1;
nodes = (
"145 1532 LINE",
"502 1423 LINE",
"373 1399 LINE",
"399 1475 OFFCURVE",
"416 1503 OFFCURVE",
"455 1522 CURVE SMOOTH",
"526 1554 LINE SMOOTH",
"635 1604 OFFCURVE",
"711 1671 OFFCURVE",
"711 1796 CURVE SMOOTH",
"711 1927 OFFCURVE",
"590 2032 OFFCURVE",
"352 2032 CURVE SMOOTH",
"272 2032 OFFCURVE",
"178 2021 OFFCURVE",
"102 1997 CURVE SMOOTH",
"-25 1956 LINE",
"49 2019 LINE",
"129 1733 LINE",
"53 1792 LINE",
"197 1808 LINE SMOOTH",
"248 1815 OFFCURVE",
"291 1815 OFFCURVE",
"324 1815 CURVE SMOOTH",
"418 1815 OFFCURVE",
"436 1802 OFFCURVE",
"436 1780 CURVE SMOOTH",
"436 1765 OFFCURVE",
"426 1755 OFFCURVE",
"399 1741 CURVE SMOOTH",
"313 1696 LINE SMOOTH",
"227 1651 OFFCURVE",
"190 1559 OFFCURVE",
"211 1479 CURVE"
);
}
);
};
components = (
{
name = I;
},
{
name = hookabovecomb.case;
transform = "{1, 0, 0, 1, 383, 0}";
}
);
layerId = "5C950900-0D0F-4959-81DE-75F048290F1B";
width = 682;
}
);
unicode = 1EC8;
},
{
color = 4;
glyphname = J;
lastChange = "2021-02-24 21:26:10 +0000";
layers = (
{
anchors = (
{
name = top.case;
position = "{807, 1475}";
}
);
background = {
paths = (
{
closed = 1;
nodes = (
"702 -20 OFFCURVE",
"856 100 OFFCURVE",
"856 406 CURVE SMOOTH",
"856 1434 LINE",
"776 1434 LINE",
"776 401 LINE SMOOTH",
"776 143 OFFCURVE",
"645 53 OFFCURVE",
"408 53 CURVE SMOOTH",
"295 53 OFFCURVE",
"227 63 OFFCURVE",
"156 78 CURVE SMOOTH",
"59 98 LINE",
"111 129 LINE",
"76 0 LINE",
"51 39 LINE",
"123 20 LINE SMOOTH",
"252 -12 OFFCURVE",
"332 -20 OFFCURVE",
"414 -20 CURVE SMOOTH"
);
}
);
};
layerId = "620D8D18-E43F-4D11-9420-7EF908A5CAE8";
paths = (
{
closed = 1;
nodes = (
"692 -20 OFFCURVE",
"846 100 OFFCURVE",
"846 406 CURVE SMOOTH",
"846 1434 LINE",
"766 1434 LINE",
"766 401 LINE SMOOTH",
"766 143 OFFCURVE",
"635 53 OFFCURVE",
"397 53 CURVE SMOOTH",
"285 53 OFFCURVE",
"217 63 OFFCURVE",
"145 78 CURVE SMOOTH",
"89.6 89.542 LINE",
"73.525 28.552 LINE",
"133 14 LINE SMOOTH",
"240 -10 OFFCURVE",
"322 -20 OFFCURVE",
"403 -20 CURVE SMOOTH"
);
}
);
width = 1030;
},
{
anchors = (
{
name = top.case;
position = "{860, 1475}";
}
);
background = {
paths = (
{
closed = 1;
nodes = (
"874 -18 OFFCURVE",
"1092 178 OFFCURVE",
"1092 541 CURVE SMOOTH",
"1092 1434 LINE",
"635 1434 LINE",
"635 543 LINE SMOOTH",
"635 457 OFFCURVE",
"575 401 OFFCURVE",
"475 401 CURVE SMOOTH",
"418 401 OFFCURVE",
"360 401 OFFCURVE",
"289 412 CURVE SMOOTH",
"109 436 LINE",
"201 571 LINE",
"68 -29 LINE",
"0 98 LINE",
"164 45 LINE SMOOTH",
"293 2 OFFCURVE",
"401 -18 OFFCURVE",
"508 -18 CURVE SMOOTH"
);
}
);
};
layerId = "5C950900-0D0F-4959-81DE-75F048290F1B";
paths = (
{
closed = 1;
nodes = (
"864 -18 OFFCURVE",
"1092 178 OFFCURVE",
"1092 541 CURVE SMOOTH",
"1092 1434 LINE",
"635 1434 LINE",
"635 543 LINE SMOOTH",
"635 457 OFFCURVE",
"571 401 OFFCURVE",
"463 401 CURVE SMOOTH",
"401 401 OFFCURVE",
"338 401 OFFCURVE",
"262 412 CURVE SMOOTH",
"130.262 428.297 LINE",
"40.696 70.66 LINE",
"123 45 LINE SMOOTH",
"258 2 OFFCURVE",
"371 -18 OFFCURVE",
"483 -18 CURVE SMOOTH"
);
}
);
width = 1174;
},
{
anchors = (
{
name = top.case;
position = "{844, 1475}";
}
);
background = {
paths = (
{
closed = 1;
nodes = (
"778 -20 OFFCURVE",
"969 139 OFFCURVE",
"969 473 CURVE SMOOTH",
"969 1434 LINE",
"700 1434 LINE",
"700 473 LINE SMOOTH",
"700 301 OFFCURVE",
"604 227 OFFCURVE",
"430 227 CURVE SMOOTH",
"344 227 OFFCURVE",
"279 233 OFFCURVE",
"205 246 CURVE SMOOTH",
"59 268 LINE",
"133 350 LINE",
"45 0 LINE",
"-4 68 LINE",
"129 31 LINE SMOOTH",
"250 -4 OFFCURVE",
"346 -20 OFFCURVE",
"444 -20 CURVE SMOOTH"
);
}
);
};
layerId = "514A1583-697A-4C0A-B081-2869E94CF283";
paths = (
{
closed = 1;
nodes = (
"784 -20 OFFCURVE",
"975 139 OFFCURVE",
"975 473 CURVE SMOOTH",
"975 1434 LINE",
"707 1434 LINE",
"707 473 LINE SMOOTH",
"707 301 OFFCURVE",
"608 227 OFFCURVE",
"436 227 CURVE SMOOTH",
"348 227 OFFCURVE",
"283 233 OFFCURVE",
"186 244 CURVE SMOOTH",
"113.465 252.256 LINE",
"62.215 51.712 LINE",
"137 29 LINE SMOOTH",
"256 -6 OFFCURVE",
"352 -20 OFFCURVE",
"449 -20 CURVE SMOOTH"
);
}
);
width = 1104;
}
);
leftKerningGroup = J;
rightKerningGroup = U;
rightMetricsKey = U;
unicode = 004A;
},
{
glyphname = K;
lastChange = "2020-03-07 19:16:39 +0000";
layers = (
{
anchors = (
{
name = bottom;
position = "{737, -72}";
}
);
background = {
paths = (
{
closed = 1;
nodes = (
"1255 0 LINE",
"797 762 LINE",
"1221 1434 LINE",
"727 1434 LINE",
"414 942 LINE",
"188 942 LINE",
"100 524 LINE",
"414 524 LINE",
"725 0 LINE"
);
},
{
closed = 1;
nodes = (
"334 0 LINE",
"334 1434 LINE",
"-123 1434 LINE",
"-123 0 LINE"
);
}
);
};
layerId = "620D8D18-E43F-4D11-9420-7EF908A5CAE8";
paths = (
{
closed = 1;
nodes = (
"1223 0 LINE",
"567 698 LINE",
"1188 1434 LINE",
"1090 1434 LINE",
"500 727 LINE",
"272 727 LINE",
"272 653 LINE",
"500 653 LINE",
"1122 0 LINE"
);
},
{
closed = 1;
nodes = (
"295 0 LINE",
"295 1434 LINE",
"215 1434 LINE",
"215 0 LINE"
);
}
);
width = 1253;
},
{
anchors = (
{
name = bottom;
position = "{768, -72}";
}
);
background = {
paths = (
{
closed = 1;
nodes = (
"1491 0 LINE",
"1032 762 LINE",
"1456 1434 LINE",
"963 1434 LINE",
"633 895 LINE",
"416 895 LINE",
"416 557 LINE",
"633 557 LINE",
"961 0 LINE"
);
},
{
closed = 1;
nodes = (
"569 0 LINE",
"569 1434 LINE",
"113 1434 LINE",
"113 0 LINE"
);
}
);
};
layerId = "5C950900-0D0F-4959-81DE-75F048290F1B";
paths = (
{
closed = 1;
nodes = (
"1491 0 LINE",
"1022 748 LINE",
"1456 1434 LINE",
"987 1434 LINE",
"653 895 LINE",
"416 895 LINE",
"416 557 LINE",
"645 557 LINE",
"967 0 LINE"
);
},
{
closed = 1;
nodes = (
"569 0 LINE",
"569 1434 LINE",
"113 1434 LINE",
"113 0 LINE"
);
}
);
width = 1511;
},
{
anchors = (
{
name = bottom;
position = "{758, -72}";
}
);
background = {
paths = (
{
closed = 1;
nodes = (
"1358 0 LINE",
"795 723 LINE",
"1323 1434 LINE",
"1038 1434 LINE",
"578 811 LINE",
"344 811 LINE",
"344 606 LINE",
"573 606 LINE",
"1044 0 LINE"
);
},
{
closed = 1;
nodes = (
"432 0 LINE",
"432 1434 LINE",
"164 1434 LINE",
"164 0 LINE"
);
}
);
};
layerId = "514A1583-697A-4C0A-B081-2869E94CF283";
paths = (
{
closed = 1;
nodes = (
"1362 0 LINE",
"805 731 LINE",
"1327 1434 LINE",
"1004 1434 LINE",
"563 831 LINE",
"354 831 LINE",
"309 596 LINE",
"580 596 LINE",
"1020 0 LINE"
);
},
{
closed = 1;
nodes = (
"438 0 LINE",
"438 1434 LINE",
"170 1434 LINE",
"170 0 LINE"
);
}
);
width = 1399;
},
{
anchors = (
{
name = bottom;
position = "{768, -72}";
}
);
associatedMasterId = "5C950900-0D0F-4959-81DE-75F048290F1B";
background = {
paths = (
{
closed = 1;
nodes = (
"569 1434 LINE",
"113 1434 LINE",
"113 0 LINE",
"569 0 LINE"
);
},
{
closed = 1;
nodes = (
"424 899 LINE",
"336 545 LINE",
"649 545 LINE",
"981 0 LINE",
"1511 0 LINE",
"1053 752 LINE",
"1477 1434 LINE",
"983 1434 LINE",
"649 899 LINE"
);
}
);
};
guideLines = (
{
angle = 90;
position = "{317, 358}";
}
);
layerId = "AEEF3FB4-A4C1-4D10-9E66-673114164009";
name = "Apr 25 18, 15:59";
paths = (
{
closed = 1;
nodes = (
"569 1434 LINE",
"113 1434 LINE",
"113 0 LINE",
"569 0 LINE"
);
},
{
closed = 1;
nodes = (
"424 942 LINE",
"336 524 LINE",
"670 524 LINE",
"981 0 LINE",
"1511 0 LINE",
"1053 762 LINE",
"1477 1434 LINE",
"983 1434 LINE",
"670 942 LINE"
);
}
);
width = 1532;
},
{
anchors = (
{
name = bottom;
position = "{768, -72}";
}
);
associatedMasterId = "5C950900-0D0F-4959-81DE-75F048290F1B";
background = {
paths = (
{
closed = 1;
nodes = (
"961 0 LINE",
"1491 0 LINE",
"971 813 LINE",
"1456 1434 LINE",
"963 1434 LINE",
"569 936 LINE",
"569 1434 LINE",
"113 1434 LINE",
"113 0 LINE",
"569 0 LINE",
"569 354 LINE",
"655 463 LINE"
);
}
);
};
layerId = "F7930633-DA96-426E-BD48-376A075FDD4D";
name = "May 9 18, 08:26";
paths = (
{
closed = 1;
nodes = (
"961 0 LINE",
"1491 0 LINE",
"971 813 LINE",
"1456 1434 LINE",
"963 1434 LINE",
"569 936 LINE",
"569 1434 LINE",
"113 1434 LINE",
"113 0 LINE",
"569 0 LINE",
"569 354 LINE",
"655 463 LINE"
);
}
);
width = 1532;
},
{
anchors = (
{
name = bottom;
position = "{748, -72}";
}
);
associatedMasterId = "620D8D18-E43F-4D11-9420-7EF908A5CAE8";
background = {
paths = (
{
closed = 1;
nodes = (
"1225 0 LINE",
"1315 0 LINE",
"727 809 LINE",
"1229 1434 LINE",
"1135 1434 LINE",
"305 399 LINE",
"305 1434 LINE",
"225 1434 LINE",
"225 0 LINE",
"305 0 LINE",
"305 285 LINE",
"678 743 LINE"
);
}
);
};
layerId = "64D8A96F-C693-4579-B842-092C0A862AAF";
name = "May 9 18, 22:07";
paths = (
{
closed = 1;
nodes = (
"1225 0 LINE",
"1315 0 LINE",
"727 809 LINE",
"1229 1434 LINE",
"1135 1434 LINE",
"305 399 LINE",
"305 1434 LINE",
"225 1434 LINE",
"225 0 LINE",
"305 0 LINE",
"305 285 LINE",
"678 743 LINE"
);
}
);
width = 1356;
}
);
leftMetricsKey = H;
rightKerningGroup = K;
unicode = 004B;
},
{
color = 4;
glyphname = L;
lastChange = "2020-03-07 19:16:39 +0000";
layers = (
{
anchors = (
{
name = bottom;
position = "{717, -72}";
},
{
name = caron;
position = "{797, 846}";
},
{
name = top.case;
position = "{256, 1475}";
}
);
layerId = "620D8D18-E43F-4D11-9420-7EF908A5CAE8";
paths = (
{
closed = 1;
nodes = (
"1167 0 LINE",
"1167 74 LINE",
"295 74 LINE",
"295 1434 LINE",
"215 1434 LINE",
"215 0 LINE"
);
}
);
width = 1229;
},
{
anchors = (
{
name = bottom;
position = "{707, -72}";
},
{
name = caron;
position = "{1053, 846}";
},
{
name = top.case;
position = "{342, 1475}";
}
);
layerId = "5C950900-0D0F-4959-81DE-75F048290F1B";
paths = (
{
closed = 1;
nodes = (
"1227 0 LINE",
"1227 399 LINE",
"569 399 LINE",
"569 1434 LINE",
"113 1434 LINE",
"113 0 LINE"
);
}
);
width = 1257;
},
{
anchors = (
{
name = bottom;
position = "{717, -72}";
},
{
name = caron;
position = "{889, 846}";
},
{
name = top.case;
position = "{305, 1475}";
}
);
background = {
paths = (
{
closed = 1;
nodes = (
"1198 0 LINE",
"1198 248 LINE",
"432 248 LINE",
"432 1434 LINE",
"164 1434 LINE",
"164 0 LINE"
);
}
);
};
layerId = "514A1583-697A-4C0A-B081-2869E94CF283";
paths = (
{
closed = 1;
nodes = (
"1194 0 LINE",
"1194 236 LINE",
"438 236 LINE",
"438 1434 LINE",
"170 1434 LINE",
"170 0 LINE"
);
}
);
width = 1243;
},
{
anchors = (
{
name = bottom;
position = "{717, -72}";
},
{
name = caron;
position = "{889, 846}";
},
{
name = top.case;
position = "{305, 1475}";
}
);
associatedMasterId = "514A1583-697A-4C0A-B081-2869E94CF283";
background = {
paths = (
{
closed = 1;
nodes = (
"1163 0 LINE",
"1163 254 LINE",
"428 254 LINE",
"428 1434 LINE",
"170 1434 LINE",
"170 0 LINE"
);
}
);
};
layerId = "4C632D53-325F-4F81-934A-303ED98B6874";
name = "Jun 28 18, 08:47";
paths = (
{
closed = 1;
nodes = (
"1122 0 LINE",
"1163 254 LINE",
"438 254 LINE",
"438 1434 LINE",
"170 1434 LINE",
"170 0 LINE"
);
}
);
width = 1212;
}
);
leftMetricsKey = H;
rightKerningGroup = L;
unicode = 004C;
},
{
color = 3;
glyphname = Lslash;
lastChange = "2020-03-07 19:37:52 +0000";
layers = (
{
background = {
paths = (
{
closed = 1;
nodes = (
"883 733 LINE",
"856 805 LINE",
"371 637 LINE",
"371 553 LINE"
);
},
{
closed = 1;
nodes = (
"371 561 LINE",
"371 645 LINE",
"61 537 LINE",
"88 463 LINE"
);
}
);
};
components = (
{
name = L;
transform = "{1, 0, 0, 1, 123, 0}";
}
);
layerId = "620D8D18-E43F-4D11-9420-7EF908A5CAE8";
paths = (
{
closed = 1;
nodes = (
"881 741 LINE",
"856 805 LINE",
"371 637 LINE",
"369 561 LINE"
);
},
{
closed = 1;
nodes = (
"369 569 LINE",
"371 645 LINE",
"61 537 LINE",
"86 471 LINE"
);
}
);
width = 1352;
},
{
background = {
paths = (
{
closed = 1;
nodes = (
"997 795 LINE",
"934 940 LINE",
"37 575 LINE",
"100 428 LINE"
);
}
);
};
components = (
{
alignment = -1;
name = L;
transform = "{1, 0, 0, 1, 121, 0}";
}
);
layerId = "514A1583-697A-4C0A-B081-2869E94CF283";
paths = (
{
closed = 1;
nodes = (
"997 795 LINE",
"926 958 LINE",
"444 764 LINE",
"444 569 LINE"
);
},
{
closed = 1;
nodes = (
"444 590 LINE",
"444 784 LINE",
"29 614 LINE",
"100 449 LINE"
);
}
);
width = 1364;
},
{
background = {
paths = (
{
closed = 1;
nodes = (
"1124 854 LINE",
"1024 1073 LINE",
"571 868 LINE",
"571 604 LINE"
);
},
{
closed = 1;
nodes = (
"571 635 LINE",
"571 899 LINE",
"23 653 LINE",
"123 432 LINE"
);
}
);
};
components = (
{
name = L;
transform = "{1, 0, 0, 1, 131, 0}";
}
);
layerId = "5C950900-0D0F-4959-81DE-75F048290F1B";
paths = (
{
closed = 1;
nodes = (
"1124 856 LINE",
"1024 1075 LINE",
"571 868 LINE",
"571 604 LINE"
);
},
{
closed = 1;
nodes = (
"571 635 LINE",
"571 899 LINE",
"-4 641 LINE",
"96 420 LINE"
);
}
);
width = 1388;
}
);
rightKerningGroup = L;
rightMetricsKey = L;
unicode = 0141;
},
{
glyphname = M;
lastChange = "2020-03-07 19:37:55 +0000";
layers = (
{
background = {
paths = (
{
closed = 1;
nodes = (
"559 0 LINE",
"559 696 LINE",
"791 315 LINE",
"1094 315 LINE",
"1325 696 LINE",
"1325 0 LINE",
"1772 0 LINE",
"1772 1434 LINE",
"1341 1434 LINE",
"944 778 LINE",
"940 778 LINE",
"543 1434 LINE",
"113 1434 LINE",
"113 0 LINE"
);
},
{
closed = 1;
nodes = (
"1677 1376 LINE",
"1612 1423 LINE",
"780 256 LINE",
"844 211 LINE"
);
}
);
};
guideLines = (
{
angle = 270;
position = "{458, 237}";
},
{
position = "{64, 633}";
}
);
layerId = "620D8D18-E43F-4D11-9420-7EF908A5CAE8";
paths = (
{
closed = 1;
nodes = (
"295 0 LINE",
"295 1286 LINE",
"926 406 LINE",
"973 406 LINE",
"1616 1298 LINE",
"1616 0 LINE",
"1696 0 LINE",
"1696 1434 LINE",
"1630 1434 LINE",
"952 506 LINE",
"948 506 LINE",
"285 1434 LINE",
"215 1434 LINE",
"215 0 LINE"
);
}
);
width = 1911;
},
{
annotations = (
{
position = "{-412, 601}";
text = "PROBAR UN DISEÑO DONDE LA ZONA MEDIA NO CAIGA TANTO, CREO QUE PODRA REFORZAR LA HORIZONTALIDAD DEL DISEÑO";
type = Text;
width = 203;
}
);
background = {
paths = (
{
closed = 1;
nodes = (
"559 0 LINE",
"559 655 LINE",
"852 213 LINE",
"1032 213 LINE",
"1325 655 LINE",
"1325 0 LINE",
"1772 0 LINE",
"1772 1434 LINE",
"1403 1434 LINE",
"944 737 LINE",
"940 737 LINE",
"481 1434 LINE",
"113 1434 LINE",
"113 0 LINE"
);
}
);
};
layerId = "5C950900-0D0F-4959-81DE-75F048290F1B";
paths = (
{
closed = 1;
nodes = (
"559 0 LINE",
"559 696 LINE",
"791 315 LINE",
"1094 315 LINE",
"1325 696 LINE",
"1325 0 LINE",
"1772 0 LINE",
"1772 1434 LINE",
"1341 1434 LINE",
"944 778 LINE",
"940 778 LINE",
"543 1434 LINE",
"113 1434 LINE",
"113 0 LINE"
);
}
);
width = 1885;
},
{
associatedMasterId = "5C950900-0D0F-4959-81DE-75F048290F1B";
background = {
paths = (
{
closed = 1;
nodes = (
"1305 1434 LINE",
"913 834 LINE",
"522 1434 LINE",
"113 1434 LINE",
"113 0 LINE",
"559 0 LINE",
"559 639 LINE",
"913 152 LINE",
"1247 612 LINE",
"1247 0 LINE",
"1704 0 LINE",
"1704 1434 LINE"
);
}
);
};
layerId = "C88BBCDE-C6A5-48E6-B255-6F18B77F9807";
name = "Mar 13 18, 15:56";
paths = (
{
closed = 1;
nodes = (
"1305 1434 LINE",
"934 834 LINE",
"881 834 LINE",
"522 1434 LINE",
"113 1434 LINE",
"113 0 LINE",
"559 0 LINE",
"559 639 LINE",
"821 152 LINE",
"995 152 LINE",
"1247 612 LINE",
"1247 0 LINE",
"1704 0 LINE",
"1704 1434 LINE"
);
}
);
width = 1817;
},
{
associatedMasterId = "5C950900-0D0F-4959-81DE-75F048290F1B";
background = {
paths = (
{
closed = 0;
nodes = (
"1485 868 LINE",
"1024 213 LINE",
"874 213 LINE",
"412 868 LINE"
);
}
);
};
layerId = "20771765-E429-463C-9F77-64160788F33E";
name = "Mar 18 18, 11:17";
paths = (
{
closed = 1;
nodes = (
"559 0 LINE",
"559 655 LINE",
"872 213 LINE",
"1022 213 LINE",
"1325 643 LINE",
"1325 0 LINE",
"1782 0 LINE",
"1782 1434 LINE",
"1423 1434 LINE",
"963 778 LINE",
"944 778 LINE",
"481 1434 LINE",
"113 1434 LINE",
"113 0 LINE"
);
}
);
width = 1894;
},
{
associatedMasterId = "5C950900-0D0F-4959-81DE-75F048290F1B";
layerId = "BDE8A0B3-8C9C-497B-B76F-62A6BA8DFA7F";
name = "Mar 18 18, 11:22";
paths = (
{
closed = 1;
nodes = (
"559 0 LINE",
"559 639 LINE",
"913 152 LINE",
"1247 612 LINE",
"1247 0 LINE",
"1704 0 LINE",
"1704 1434 LINE",
"1305 1434 LINE",
"913 834 LINE",
"522 1434 LINE",
"113 1434 LINE",
"113 0 LINE"
);
}
);
width = 1817;
},
{
background = {
paths = (
{
closed = 1;
nodes = (
"432 0 LINE",
"432 967 LINE",
"844 360 LINE",
"1047 360 LINE",
"1464 967 LINE",
"1464 0 LINE",
"1726 0 LINE",
"1726 1434 LINE",
"1473 1434 LINE",
"948 659 LINE",
"944 659 LINE",
"434 1434 LINE",
"170 1434 LINE",
"170 0 LINE"
);
}
);
};
guideLines = (
{
angle = 90;
position = "{465, 265}";
},
{
angle = 90;
position = "{813, 333}";
}
);
layerId = "514A1583-697A-4C0A-B081-2869E94CF283";
paths = (
{
closed = 1;
nodes = (
"432 0 LINE",
"432 967 LINE",
"844 360 LINE",
"1047 360 LINE",
"1464 967 LINE",
"1464 0 LINE",
"1733 0 LINE",
"1733 1434 LINE",
"1473 1434 LINE",
"948 659 LINE",
"944 659 LINE",
"434 1434 LINE",
"170 1434 LINE",
"170 0 LINE"
);
}
);
width = 1902;
},
{
annotations = (
{
position = "{-412, 601}";
text = "PROBAR UN DISEÑO DONDE LA ZONA MEDIA NO CAIGA TANTO, CREO QUE PODRA REFORZAR LA HORIZONTALIDAD DEL DISEÑO";
type = Text;
width = 203;
}
);
associatedMasterId = "5C950900-0D0F-4959-81DE-75F048290F1B";
background = {
paths = (
{
closed = 1;
nodes = (
"559 0 LINE",
"559 743 LINE",
"913 383 LINE",
"928 383 LINE",
"1284 743 LINE",
"1284 0 LINE",
"1741 0 LINE",
"1741 1434 LINE",
"1362 1434 LINE",
"924 981 LINE",
"920 981 LINE",
"481 1434 LINE",
"113 1434 LINE",
"113 0 LINE"
);
}
);
};
guideLines = (
{
angle = 90;
position = "{450, 288}";
}
);
layerId = "839D38FA-97E0-4800-BA6A-7DE6FFCC5556";
name = "May 3 18, 11:24";
paths = (
{
closed = 1;
nodes = (
"559 0 LINE",
"559 743 LINE",
"913 383 LINE",
"928 383 LINE",
"1284 743 LINE",
"1284 0 LINE",
"1741 0 LINE",
"1741 1434 LINE",
"1362 1434 LINE",
"924 981 LINE",
"920 981 LINE",
"481 1434 LINE",
"113 1434 LINE",
"113 0 LINE"
);
}
);
width = 1853;
},
{
annotations = (
{
position = "{-412, 601}";
text = "PROBAR UN DISEÑO DONDE LA ZONA MEDIA NO CAIGA TANTO, CREO QUE PODRA REFORZAR LA HORIZONTALIDAD DEL DISEÑO";
type = Text;
width = 203;
}
);
associatedMasterId = "5C950900-0D0F-4959-81DE-75F048290F1B";
background = {
paths = (
{
closed = 1;
nodes = (
"559 0 LINE",
"559 655 LINE",
"852 213 LINE",
"1032 213 LINE",
"1325 655 LINE",
"1325 0 LINE",
"1772 0 LINE",
"1772 1434 LINE",
"1403 1434 LINE",
"944 737 LINE",
"940 737 LINE",
"481 1434 LINE",
"113 1434 LINE",
"113 0 LINE"
);
}
);
};
layerId = "3244E4CF-33B6-48CE-8C65-3298DB57153D";
name = "May 4 18, 16:12";
paths = (
{
closed = 1;
nodes = (
"559 0 LINE",
"559 655 LINE",
"852 213 LINE",
"1032 213 LINE",
"1325 655 LINE",
"1325 0 LINE",
"1772 0 LINE",
"1772 1434 LINE",
"1403 1434 LINE",
"944 737 LINE",
"940 737 LINE",
"481 1434 LINE",
"113 1434 LINE",
"113 0 LINE"
);
}
);
width = 1884;
},
{
associatedMasterId = "620D8D18-E43F-4D11-9420-7EF908A5CAE8";
background = {
paths = (
{
closed = 1;
nodes = (
"1681 1325 LINE",
"1616 1366 LINE",
"846 156 LINE",
"913 113 LINE"
);
}
);
};
layerId = "9CA34BE4-C75C-4617-860E-2D3DC067B2A0";
name = "May 4 18, 16:12";
paths = (
{
closed = 1;
nodes = (
"305 0 LINE",
"305 1276 LINE",
"963 242 LINE",
"995 242 LINE",
"1651 1280 LINE",
"1651 0 LINE",
"1731 0 LINE",
"1731 1434 LINE",
"1665 1434 LINE",
"985 362 LINE",
"975 362 LINE",
"291 1434 LINE",
"225 1434 LINE",
"225 0 LINE"
);
}
);
width = 1956;
},
{
annotations = (
{
position = "{-412, 601}";
text = "PROBAR UN DISEÑO DONDE LA ZONA MEDIA NO CAIGA TANTO, CREO QUE PODRA REFORZAR LA HORIZONTALIDAD DEL DISEÑO";
type = Text;
width = 203;
}
);
associatedMasterId = "5C950900-0D0F-4959-81DE-75F048290F1B";
background = {
paths = (
{
closed = 0;
nodes = (
"1329 655 LINE",
"1098 213 LINE"
);
},
{
closed = 0;
nodes = (
"944 676 LINE",
"948 676 LINE",
"1346 1434 LINE"
);
}
);
};
guideLines = (
{
angle = 90;
position = "{273, 400}";
},
{
angle = 90;
position = "{647, 400}";
}
);
layerId = "7D2C3767-8437-458D-BD2F-C02907BCC6D6";
name = "May 8 18, 18:55";
paths = (
{
closed = 1;
nodes = (
"559 0 LINE",
"559 655 LINE",
"791 193 LINE",
"1094 193 LINE",
"1325 655 LINE",
"1325 0 LINE",
"1772 0 LINE",
"1772 1434 LINE",
"1341 1434 LINE",
"944 655 LINE",
"940 655 LINE",
"543 1434 LINE",
"113 1434 LINE",
"113 0 LINE"
);
}
);
width = 1884;
},
{
annotations = (
{
position = "{-412, 601}";
text = "PROBAR UN DISEÑO DONDE LA ZONA MEDIA NO CAIGA TANTO, CREO QUE PODRA REFORZAR LA HORIZONTALIDAD DEL DISEÑO";
type = Text;
width = 203;
}
);
associatedMasterId = "5C950900-0D0F-4959-81DE-75F048290F1B";
background = {
paths = (
{
closed = 0;
nodes = (
"1341 719 LINE",
"944 63 LINE",
"940 63 LINE",
"543 719 LINE"
);
}
);
};
guideLines = (
{
angle = 90;
position = "{273, 400}";
},
{
angle = 90;
position = "{647, 400}";
}
);
layerId = "5E3C03ED-AB5F-4032-A2F2-4222D70BA10F";
name = "May 8 18, 18:57";
paths = (
{
closed = 1;
nodes = (
"559 0 LINE",
"559 696 LINE",
"791 315 LINE",
"1094 315 LINE",
"1325 696 LINE",
"1325 0 LINE",
"1772 0 LINE",
"1772 1434 LINE",
"1341 1434 LINE",
"944 778 LINE",
"940 778 LINE",
"543 1434 LINE",
"113 1434 LINE",
"113 0 LINE"
);
}
);
width = 1884;
},
{
annotations = (
{
position = "{-412, 601}";
text = "PROBAR UN DISEÑO DONDE LA ZONA MEDIA NO CAIGA TANTO, CREO QUE PODRA REFORZAR LA HORIZONTALIDAD DEL DISEÑO";
type = Text;
width = 203;
}
);
associatedMasterId = "5C950900-0D0F-4959-81DE-75F048290F1B";
background = {
paths = (
{
closed = 1;
nodes = (
"559 0 LINE",
"559 655 LINE",
"852 213 LINE",
"1032 213 LINE",
"1325 655 LINE",
"1325 0 LINE",
"1772 0 LINE",
"1772 1434 LINE",
"1403 1434 LINE",
"944 737 LINE",
"940 737 LINE",
"481 1434 LINE",
"113 1434 LINE",
"113 0 LINE"
);
}
);
};
layerId = "298A95B0-51E6-4D73-BBC8-BEBAD3B36F26";
name = "May 9 18, 00:46";
paths = (
{
closed = 1;
nodes = (
"559 0 LINE",
"559 743 LINE",
"913 383 LINE",
"928 383 LINE",
"1284 743 LINE",
"1284 0 LINE",
"1741 0 LINE",
"1741 1434 LINE",
"1362 1434 LINE",
"924 981 LINE",
"920 981 LINE",
"481 1434 LINE",
"113 1434 LINE",
"113 0 LINE"
);
}
);
width = 1853;
}
);
leftMetricsKey = H;
rightMetricsKey = H;
unicode = 004D;
},
{
glyphname = N;
lastChange = "2020-03-07 19:37:46 +0000";
layers = (
{
anchors = (
{
name = bottom;
position = "{799, -72}";
},
{
name = top.case;
position = "{815, 1475}";
}
);
layerId = "620D8D18-E43F-4D11-9420-7EF908A5CAE8";
paths = (
{
closed = 1;
nodes = (
"295 0 LINE",
"295 1300 LINE",
"299 1300 LINE",
"1346 0 LINE",
"1417 0 LINE",
"1417 1434 LINE",
"1337 1434 LINE",
"1337 141 LINE",
"1333 141 LINE",
"291 1434 LINE",
"215 1434 LINE",
"215 0 LINE"
);
}
);
width = 1632;
},
{
anchors = (
{
name = bottom;
position = "{827, -72}";
},
{
name = top.case;
position = "{793, 1475}";
}
);
layerId = "5C950900-0D0F-4959-81DE-75F048290F1B";
paths = (
{
closed = 1;
nodes = (
"565 0 LINE",
"565 690 LINE",
"569 690 LINE",
"1110 0 LINE",
"1505 0 LINE",
"1505 1434 LINE",
"1053 1434 LINE",
"1053 760 LINE",
"1049 760 LINE",
"520 1434 LINE",
"113 1434 LINE",
"113 0 LINE"
);
}
);
width = 1618;
},
{
anchors = (
{
name = bottom;
position = "{850, -72}";
},
{
name = top.case;
position = "{815, 1475}";
}
);
background = {
paths = (
{
closed = 1;
nodes = (
"430 0 LINE",
"430 997 LINE",
"434 997 LINE",
"1231 0 LINE",
"1462 0 LINE",
"1462 1434 LINE",
"1196 1434 LINE",
"1196 449 LINE",
"1192 449 LINE",
"403 1434 LINE",
"164 1434 LINE",
"164 0 LINE"
);
}
);
};
layerId = "514A1583-697A-4C0A-B081-2869E94CF283";
paths = (
{
closed = 1;
nodes = (
"436 0 LINE",
"436 967 LINE",
"440 967 LINE",
"1260 0 LINE",
"1464 0 LINE",
"1464 1434 LINE",
"1198 1434 LINE",
"1198 508 LINE",
"1194 508 LINE",
"403 1434 LINE",
"170 1434 LINE",
"170 0 LINE"
);
}
);
width = 1633;
}
);
leftMetricsKey = H;
rightMetricsKey = H;
unicode = 004E;
},
{
color = 3;
glyphname = Eng;
lastChange = "2021-02-24 21:26:45 +0000";
layers = (
{
background = {
paths = (
{
closed = 1;
nodes = (
"295 0 LINE",
"295 1305 LINE",
"299 1305 LINE",
"1350 0 LINE",
"1417 0 LINE",
"1417 1434 LINE",
"1337 1434 LINE",
"1337 137 LINE",
"1333 137 LINE",
"287 1434 LINE",
"215 1434 LINE",
"215 0 LINE"
);
},
{
closed = 1;
nodes = (
"1016 -393 LINE",
"1098 -414 LINE SMOOTH",
"1135 -422 OFFCURVE",
"1171 -428 OFFCURVE",
"1200 -428 CURVE SMOOTH",
"1358 -428 OFFCURVE",
"1417 -373 OFFCURVE",
"1417 -240 CURVE SMOOTH",
"1417 72 LINE",
"1337 72 LINE",
"1337 -244 LINE SMOOTH",
"1337 -324 OFFCURVE",
"1294 -358 OFFCURVE",
"1210 -358 CURVE SMOOTH",
"1180 -358 OFFCURVE",
"1143 -354 OFFCURVE",
"1102 -350 CURVE SMOOTH",
"1049 -344 LINE",
"1065 -315 LINE",
"1051 -432 LINE"
);
}
);
};
guideLines = (
{
angle = 90;
position = "{653, 51}";
}
);
layerId = "620D8D18-E43F-4D11-9420-7EF908A5CAE8";
paths = (
{
closed = 1;
nodes = (
"295 0 LINE",
"295 1305 LINE",
"299 1305 LINE",
"1337 16.142 LINE",
"1337 -221 LINE SMOOTH",
"1337 -328 OFFCURVE",
"1292 -358 OFFCURVE",
"1176 -358 CURVE SMOOTH",
"1137 -358 OFFCURVE",
"1090 -354 OFFCURVE",
"1038 -350 CURVE SMOOTH",
"987.355 -345.465 LINE",
"980.475 -402.959 LINE",
"1032 -414 LINE SMOOTH",
"1077 -422 OFFCURVE",
"1122 -428 OFFCURVE",
"1180 -428 CURVE SMOOTH",
"1346 -428 OFFCURVE",
"1417 -373 OFFCURVE",
"1417 -221 CURVE SMOOTH",
"1417 1434 LINE",
"1337 1434 LINE",
"1337 137 LINE",
"1333 137 LINE",
"287 1434 LINE",
"215 1434 LINE",
"215 0 LINE"
);
}
);
width = 1632;
},
{
background = {
paths = (
{
closed = 0;
nodes = (
"1198 20 LINE",
"469 926 LINE"
);
},
{
closed = 1;
nodes = (
"295 0 LINE",
"295 1305 LINE",
"299 1305 LINE",
"1350 0 LINE",
"1417 0 LINE",
"1417 1434 LINE",
"1337 1434 LINE",
"1337 137 LINE",
"1333 137 LINE",
"287 1434 LINE",
"215 1434 LINE",
"215 0 LINE"
);
},
{
closed = 1;
nodes = (
"934 -393 LINE",
"1032 -414 LINE SMOOTH",
"1077 -422 OFFCURVE",
"1122 -428 OFFCURVE",
"1180 -428 CURVE SMOOTH",
"1346 -428 OFFCURVE",
"1417 -373 OFFCURVE",
"1417 -221 CURVE SMOOTH",
"1417 72 LINE",
"1337 72 LINE",
"1337 -221 LINE SMOOTH",
"1337 -328 OFFCURVE",
"1292 -358 OFFCURVE",
"1176 -358 CURVE SMOOTH",
"1137 -358 OFFCURVE",
"1090 -354 OFFCURVE",
"1038 -350 CURVE SMOOTH",
"971 -344 LINE",
"991 -315 LINE",
"977 -432 LINE"
);
}
);
};
layerId = "514A1583-697A-4C0A-B081-2869E94CF283";
paths = (
{
closed = 1;
nodes = (
"436 0 LINE",
"436 961 LINE",
"440 961 LINE",
"1145 85.796 LINE",
"1145 -92 LINE SMOOTH",
"1145 -162 OFFCURVE",
"1104 -190 OFFCURVE",
"1020 -190 CURVE SMOOTH",
"993 -190 OFFCURVE",
"956 -188 OFFCURVE",
"930 -186 CURVE SMOOTH",
"898.202 -183.235 LINE",
"862.82 -387.166 LINE",
"907 -399 LINE SMOOTH",
"969 -416 OFFCURVE",
"1030 -428 OFFCURVE",
"1079 -428 CURVE SMOOTH",
"1296 -428 OFFCURVE",
"1403 -330 OFFCURVE",
"1403 -139 CURVE SMOOTH",
"1403 1434 LINE",
"1137 1434 LINE",
"1137 528 LINE",
"1133 528 LINE",
"403 1434 LINE",
"170 1434 LINE",
"170 0 LINE"
);
}
);
width = 1572;
},
{
background = {
paths = (
{
closed = 1;
nodes = (
"295 0 LINE",
"295 1305 LINE",
"299 1305 LINE",
"1350 0 LINE",
"1417 0 LINE",
"1417 1434 LINE",
"1337 1434 LINE",
"1337 137 LINE",
"1333 137 LINE",
"287 1434 LINE",
"215 1434 LINE",
"215 0 LINE"
);
},
{
closed = 1;
nodes = (
"934 -393 LINE",
"1032 -414 LINE SMOOTH",
"1077 -422 OFFCURVE",
"1122 -428 OFFCURVE",
"1180 -428 CURVE SMOOTH",
"1346 -428 OFFCURVE",
"1417 -373 OFFCURVE",
"1417 -221 CURVE SMOOTH",
"1417 72 LINE",
"1337 72 LINE",
"1337 -221 LINE SMOOTH",
"1337 -328 OFFCURVE",
"1292 -358 OFFCURVE",
"1176 -358 CURVE SMOOTH",
"1137 -358 OFFCURVE",
"1090 -354 OFFCURVE",
"1038 -350 CURVE SMOOTH",
"971 -344 LINE",
"991 -315 LINE",
"977 -432 LINE"
);
}
);
};
layerId = "5C950900-0D0F-4959-81DE-75F048290F1B";
paths = (
{
closed = 1;
nodes = (
"565 0 LINE",
"565 690 LINE",
"569 690 LINE",
"1075 46.09 LINE",
"1075 -2 LINE SMOOTH",
"1075 -61 OFFCURVE",
"1034 -80 OFFCURVE",
"971 -80 CURVE SMOOTH",
"934 -80 OFFCURVE",
"901 -78 OFFCURVE",
"874 -74 CURVE SMOOTH",
"846.017 -70.2 LINE",
"791.218 -380.483 LINE",
"842 -393 LINE SMOOTH",
"926 -414 OFFCURVE",
"1010 -428 OFFCURVE",
"1102 -428 CURVE SMOOTH",
"1333 -428 OFFCURVE",
"1475 -293 OFFCURVE",
"1475 -49 CURVE SMOOTH",
"1475 1434 LINE",
"1022 1434 LINE",
"1022 801 LINE",
"1018 801 LINE",
"520 1434 LINE",
"113 1434 LINE",
"113 0 LINE"
);
}
);
width = 1588;
}
);
leftMetricsKey = N;
rightMetricsKey = N;
unicode = 014A;
},
{
color = 3;
glyphname = Nhookleft;
lastChange = "2021-04-02 17:57:25 +0000";
layers = (
{
background = {
paths = (
{
closed = 1;
nodes = (
"-121 -393 LINE",
"-40 -414 LINE SMOOTH",
"-3 -422 OFFCURVE",
"34 -428 OFFCURVE",
"63 -428 CURVE SMOOTH",
"221 -428 OFFCURVE",
"280 -373 OFFCURVE",
"280 -240 CURVE SMOOTH",
"280 72 LINE",
"200 72 LINE",
"200 -244 LINE SMOOTH",
"200 -324 OFFCURVE",
"157 -358 OFFCURVE",
"73 -358 CURVE SMOOTH",
"42 -358 OFFCURVE",
"5 -354 OFFCURVE",
"-35 -350 CURVE SMOOTH",
"-89 -344 LINE",
"-72 -315 LINE",
"-87 -432 LINE"
);
}
);
};
layerId = "620D8D18-E43F-4D11-9420-7EF908A5CAE8";
paths = (
{
closed = 1;
nodes = (
"218 -428 OFFCURVE",
"280 -373 OFFCURVE",
"280 -240 CURVE SMOOTH",
"280 1305 LINE",
"284 1305 LINE",
"1335 0 LINE",
"1402 0 LINE",
"1402 1434 LINE",
"1322 1434 LINE",
"1322 137 LINE",
"1318 137 LINE",
"272 1434 LINE",
"200 1434 LINE",
"200 -238 LINE SMOOTH",
"200 -324 OFFCURVE",
"163 -358 OFFCURVE",
"69 -358 CURVE SMOOTH",
"38 -358 OFFCURVE",
"-1 -354 OFFCURVE",
"-42 -350 CURVE SMOOTH",
"-85 -345 LINE",
"-92 -403 LINE",
"-46 -414 LINE SMOOTH",
"-9 -423 OFFCURVE",
"30 -428 OFFCURVE",
"59 -428 CURVE SMOOTH"
);
}
);
width = 1617;
},
{
layerId = "514A1583-697A-4C0A-B081-2869E94CF283";
paths = (
{
closed = 1;
nodes = (
"323 -428 OFFCURVE",
"421 -330 OFFCURVE",
"421 -139 CURVE SMOOTH",
"421 967 LINE",
"425 967 LINE",
"1183 0 LINE",
"1388 0 LINE",
"1388 1434 LINE",
"1122 1434 LINE",
"1122 508 LINE",
"1117 508 LINE",
"388 1434 LINE",
"155 1434 LINE",
"155 -92 LINE SMOOTH",
"155 -162 OFFCURVE",
"122 -190 OFFCURVE",
"55 -190 CURVE SMOOTH",
"32 -190 OFFCURVE",
"1 -188 OFFCURVE",
"-17 -186 CURVE SMOOTH",
"-43 -183 LINE",
"-77 -387 LINE",
"-36 -399 LINE SMOOTH",
"22 -416 OFFCURVE",
"79 -428 OFFCURVE",
"124 -428 CURVE SMOOTH"
);
}
);
width = 1557;
},
{
layerId = "5C950900-0D0F-4959-81DE-75F048290F1B";
paths = (
{
closed = 1;
nodes = (
"457 -428 OFFCURVE",
"609 -293 OFFCURVE",
"609 -49 CURVE SMOOTH",
"609 690 LINE",
"613 690 LINE",
"1123 0 LINE",
"1518 0 LINE",
"1518 1434 LINE",
"1065 1434 LINE",
"1065 760 LINE",
"1061 760 LINE",
"564 1434 LINE",
"156 1434 LINE",
"156 -2 LINE SMOOTH",
"156 -61 OFFCURVE",
"115 -80 OFFCURVE",
"52 -80 CURVE SMOOTH",
"15 -80 OFFCURVE",
"-18 -78 OFFCURVE",
"-45 -74 CURVE SMOOTH",
"-73.012 -70.242 LINE",
"-127.692 -379.025 LINE",
"-67 -393 LINE SMOOTH",
"23 -414 OFFCURVE",
"111 -428 OFFCURVE",
"211 -428 CURVE SMOOTH"
);
}
);
width = 1631;
}
);
leftKerningGroup = j;
leftMetricsKey = "=j+15";
rightMetricsKey = N;
unicode = 019D;
},
{
color = 4;
glyphname = O;
lastChange = "2020-03-07 19:16:39 +0000";
layers = (
{
anchors = (
{
name = bottom;
position = "{834, -72}";
},
{
name = ogonek;
position = "{905, 20}";
},
{
name = top.case;
position = "{831, 1475}";
}
);
background = {
paths = (
{
closed = 1;
nodes = (
"1257 -18 OFFCURVE",
"1565 266 OFFCURVE",
"1565 715 CURVE SMOOTH",
"1565 1163 OFFCURVE",
"1284 1452 OFFCURVE",
"813 1452 CURVE SMOOTH",
"356 1452 OFFCURVE",
"51 1165 OFFCURVE",
"51 719 CURVE SMOOTH",
"51 270 OFFCURVE",
"330 -18 OFFCURVE",
"805 -18 CURVE SMOOTH"
);
},
{
closed = 1;
nodes = (
"618 401 OFFCURVE",
"516 467 OFFCURVE",
"516 715 CURVE SMOOTH",
"516 967 OFFCURVE",
"627 1032 OFFCURVE",
"809 1032 CURVE SMOOTH",
"997 1032 OFFCURVE",
"1098 967 OFFCURVE",
"1098 715 CURVE SMOOTH",
"1098 467 OFFCURVE",
"993 401 OFFCURVE",
"809 401 CURVE SMOOTH"
);
}
);
};
layerId = "620D8D18-E43F-4D11-9420-7EF908A5CAE8";
paths = (
{
closed = 1;
nodes = (
"1245 -20 OFFCURVE",
"1536 287 OFFCURVE",
"1536 717 CURVE SMOOTH",
"1536 1147 OFFCURVE",
"1245 1454 OFFCURVE",
"834 1454 CURVE SMOOTH",
"424 1454 OFFCURVE",
"133 1147 OFFCURVE",
"133 717 CURVE SMOOTH",
"133 287 OFFCURVE",
"424 -20 OFFCURVE",
"834 -20 CURVE SMOOTH"
);
},
{
closed = 1;
nodes = (
"475 53 OFFCURVE",
"217 334 OFFCURVE",
"217 717 CURVE SMOOTH",
"217 1100 OFFCURVE",
"475 1380 OFFCURVE",
"834 1380 CURVE SMOOTH",
"1196 1380 OFFCURVE",
"1452 1100 OFFCURVE",
"1452 717 CURVE SMOOTH",
"1452 334 OFFCURVE",
"1196 53 OFFCURVE",
"834 53 CURVE SMOOTH"
);
}
);
width = 1669;
},
{
anchors = (
{
name = bottom;
position = "{829, -72}";
},
{
name = ogonek;
position = "{973, 20}";
},
{
name = top.case;
position = "{827, 1475}";
}
);
background = {
paths = (
{
closed = 1;
nodes = (
"1270 -20 OFFCURVE",
"1585 287 OFFCURVE",
"1585 717 CURVE SMOOTH",
"1585 1147 OFFCURVE",
"1270 1452 OFFCURVE",
"827 1452 CURVE SMOOTH",
"387 1452 OFFCURVE",
"72 1147 OFFCURVE",
"72 717 CURVE SMOOTH",
"72 287 OFFCURVE",
"387 -20 OFFCURVE",
"827 -20 CURVE SMOOTH"
);
},
{
closed = 1;
nodes = (
"653 397 OFFCURVE",
"537 528 OFFCURVE",
"537 717 CURVE SMOOTH",
"537 905 OFFCURVE",
"653 1034 OFFCURVE",
"827 1034 CURVE SMOOTH",
"1001 1034 OFFCURVE",
"1120 905 OFFCURVE",
"1120 717 CURVE SMOOTH",
"1120 528 OFFCURVE",
"1001 397 OFFCURVE",
"827 397 CURVE SMOOTH"
);
}
);
};
guideLines = (
{
angle = 90;
position = "{405, 369}";
}
);
layerId = "5C950900-0D0F-4959-81DE-75F048290F1B";
paths = (
{
closed = 1;
nodes = (
"1286 -18 OFFCURVE",
"1587 268 OFFCURVE",
"1587 715 CURVE SMOOTH",
"1587 1163 OFFCURVE",
"1305 1452 OFFCURVE",
"829 1452 CURVE SMOOTH",
"373 1452 OFFCURVE",
"72 1165 OFFCURVE",
"72 719 CURVE SMOOTH",
"72 270 OFFCURVE",
"354 -18 OFFCURVE",
"829 -18 CURVE SMOOTH"
);
},
{
closed = 1;
nodes = (
"639 401 OFFCURVE",
"539 467 OFFCURVE",
"539 715 CURVE SMOOTH",
"539 967 OFFCURVE",
"647 1032 OFFCURVE",
"829 1032 CURVE SMOOTH",
"1020 1032 OFFCURVE",
"1120 967 OFFCURVE",
"1120 719 CURVE SMOOTH",
"1120 467 OFFCURVE",
"1012 401 OFFCURVE",
"829 401 CURVE SMOOTH"
);
}
);
width = 1659;
},
{
anchors = (
{
name = bottom;
position = "{831, -72}";
},
{
name = ogonek;
position = "{940, 20}";
},
{
name = top.case;
position = "{829, 1475}";
}
);
background = {
anchors = (
{
name = bottom;
position = "{848, -72}";
},
{
name = ogonek;
position = "{954, 20}";
},
{
name = top.case;
position = "{821, 1475}";
}
);
paths = (
{
closed = 1;
nodes = (
"1233 -20 OFFCURVE",
"1522 276 OFFCURVE",
"1522 717 CURVE SMOOTH",
"1522 1155 OFFCURVE",
"1245 1454 OFFCURVE",
"821 1454 CURVE SMOOTH",
"403 1454 OFFCURVE",
"119 1157 OFFCURVE",
"119 719 CURVE SMOOTH",
"119 279 OFFCURVE",
"393 -20 OFFCURVE",
"817 -20 CURVE SMOOTH"
);
},
{
closed = 1;
nodes = (
"561 238 OFFCURVE",
"395 408 OFFCURVE",
"395 717 CURVE SMOOTH",
"395 1028 OFFCURVE",
"565 1196 OFFCURVE",
"819 1196 CURVE SMOOTH",
"1077 1196 OFFCURVE",
"1245 1028 OFFCURVE",
"1245 717 CURVE SMOOTH",
"1245 408 OFFCURVE",
"1075 238 OFFCURVE",
"819 238 CURVE SMOOTH"
);
}
);
};
layerId = "514A1583-697A-4C0A-B081-2869E94CF283";
paths = (
{
closed = 1;
nodes = (
"1266 -20 OFFCURVE",
"1563 279 OFFCURVE",
"1563 717 CURVE SMOOTH",
"1563 1155 OFFCURVE",
"1276 1454 OFFCURVE",
"831 1454 CURVE SMOOTH",
"399 1454 OFFCURVE",
"102 1157 OFFCURVE",
"102 719 CURVE SMOOTH",
"102 279 OFFCURVE",
"389 -20 OFFCURVE",
"831 -20 CURVE SMOOTH"
);
},
{
closed = 1;
nodes = (
"557 227 OFFCURVE",
"377 401 OFFCURVE",
"377 717 CURVE SMOOTH",
"377 1034 OFFCURVE",
"561 1206 OFFCURVE",
"831 1206 CURVE SMOOTH",
"1108 1206 OFFCURVE",
"1288 1034 OFFCURVE",
"1288 719 CURVE SMOOTH",
"1288 401 OFFCURVE",
"1104 227 OFFCURVE",
"831 227 CURVE SMOOTH"
);
}
);
width = 1665;
}
);
leftKerningGroup = O;
rightKerningGroup = O;
unicode = 004F;
},
{
glyphname = Ohorn;
lastChange = "2021-02-24 21:28:39 +0000";
layers = (
{
anchors = (
{
name = bottom;
position = "{834, -72}";
},
{
name = ogonek;
position = "{905, 20}";
},
{
name = top.case;
position = "{831, 1475}";
}
);
background = {
paths = (
{
closed = 1;
nodes = (
"1520 1300 OFFCURVE",
"1649 1352 OFFCURVE",
"1649 1579 CURVE SMOOTH",
"1649 1651 OFFCURVE",
"1622 1729 OFFCURVE",
"1575 1808 CURVE",
"1710 1772 LINE",
"1454 1718 LINE",
"1548 1798 LINE",
"1563 1712 OFFCURVE",
"1575 1634 OFFCURVE",
"1575 1577 CURVE SMOOTH",
"1575 1423 OFFCURVE",
"1501 1393 OFFCURVE",
"1399 1393 CURVE SMOOTH",
"1290 1393 OFFCURVE",
"1137 1454 OFFCURVE",
"1042 1454 CURVE",
"1309 1339 LINE"
);
}
);
};
components = (
{
name = O;
}
);
layerId = "620D8D18-E43F-4D11-9420-7EF908A5CAE8";
paths = (
{
closed = 1;
nodes = (
"1565 1329 OFFCURVE",
"1649 1405 OFFCURVE",
"1649 1579 CURVE SMOOTH",
"1649 1633.315 OFFCURVE",
"1633.635 1691.045 OFFCURVE",
"1605.909 1750.043 CURVE",
"1557.796 1739.894 LINE",
"1567.9 1677.115 OFFCURVE",
"1575 1620.845 OFFCURVE",
"1575 1577 CURVE SMOOTH",
"1575 1423 OFFCURVE",
"1477 1393 OFFCURVE",
"1341 1393 CURVE SMOOTH",
"1196 1393 OFFCURVE",
"993 1454 OFFCURVE",
"866 1454 CURVE",
"1196 1352 LINE",
"1270 1337 OFFCURVE",
"1333 1329 OFFCURVE",
"1389 1329 CURVE SMOOTH"
);
}
);
width = 1669;
},
{
anchors = (
{
name = bottom;
position = "{831, -72}";
},
{
name = ogonek;
position = "{940, 20}";
},
{
name = top.case;
position = "{829, 1475}";
}
);
background = {
paths = (
{
closed = 1;
nodes = (
"1630 1206 OFFCURVE",
"1763 1274 OFFCURVE",
"1763 1507 CURVE SMOOTH",
"1763 1626 OFFCURVE",
"1700 1769 OFFCURVE",
"1642 1898 CURVE",
"1806 1829 LINE",
"1391 1741 LINE",
"1481 1817 LINE",
"1497 1726 OFFCURVE",
"1509 1645 OFFCURVE",
"1509 1583 CURVE SMOOTH",
"1509 1423 OFFCURVE",
"1436 1399 OFFCURVE",
"1360 1399 CURVE SMOOTH",
"1262 1399 OFFCURVE",
"1139 1456 OFFCURVE",
"1024 1456 CURVE",
"1335 1229 LINE",
"1370 1214 OFFCURVE",
"1419 1206 OFFCURVE",
"1464 1206 CURVE SMOOTH"
);
}
);
};
components = (
{
alignment = -1;
name = O;
}
);
layerId = "514A1583-697A-4C0A-B081-2869E94CF283";
paths = (
{
closed = 1;
nodes = (
"1649 1204 OFFCURVE",
"1757 1298 OFFCURVE",
"1761 1507 CURVE SMOOTH",
"1762.506 1596.599 OFFCURVE",
"1731.698 1701.504 OFFCURVE",
"1682.236 1800.8 CURVE",
"1492.985 1760.766 LINE",
"1502.65 1691.557 OFFCURVE",
"1509 1629.61 OFFCURVE",
"1509 1581 CURVE SMOOTH",
"1509 1421 OFFCURVE",
"1440 1399 OFFCURVE",
"1335 1399 CURVE SMOOTH",
"1208 1399 OFFCURVE",
"1030 1454 OFFCURVE",
"866 1454 CURVE",
"1298 1231 LINE",
"1350 1214 OFFCURVE",
"1409 1204 OFFCURVE",
"1466 1204 CURVE SMOOTH"
);
}
);
width = 1706;
},
{
anchors = (
{
name = bottom;
position = "{829, -72}";
},
{
name = ogonek;
position = "{973, 20}";
},
{
name = top.case;
position = "{827, 1475}";
}
);
background = {
paths = (
{
closed = 1;
nodes = (
"1732 1141 OFFCURVE",
"1872 1288 OFFCURVE",
"1872 1538 CURVE SMOOTH",
"1872 1688 OFFCURVE",
"1801 1835 OFFCURVE",
"1693 1985 CURVE",
"1937 1880 LINE",
"1362 1760 LINE",
"1515 1829 LINE",
"1534 1737 OFFCURVE",
"1556 1651 OFFCURVE",
"1556 1585 CURVE SMOOTH",
"1556 1420 OFFCURVE",
"1470 1403 OFFCURVE",
"1403 1403 CURVE SMOOTH",
"1396 1403 OFFCURVE",
"1390 1405 OFFCURVE",
"1386 1405 CURVE",
"1321 1149 LINE",
"1364 1145 OFFCURVE",
"1403 1141 OFFCURVE",
"1439 1141 CURVE SMOOTH"
);
}
);
};
components = (
{
name = O;
}
);
layerId = "5C950900-0D0F-4959-81DE-75F048290F1B";
paths = (
{
closed = 1;
nodes = (
"1731 1159 OFFCURVE",
"1874 1260 OFFCURVE",
"1874 1520 CURVE SMOOTH",
"1874 1629.081 OFFCURVE",
"1839.827 1737.666 OFFCURVE",
"1781.24 1846.802 CURVE",
"1525.318 1792.947 LINE",
"1541.666 1714.665 OFFCURVE",
"1559 1642.296 OFFCURVE",
"1559 1585 CURVE SMOOTH",
"1559 1419 OFFCURVE",
"1446 1401 OFFCURVE",
"1358 1401 CURVE SMOOTH",
"1229 1401 OFFCURVE",
"1092 1452 OFFCURVE",
"864 1452 CURVE",
"1399 1186 LINE SMOOTH",
"1427 1171 OFFCURVE",
"1485 1159 OFFCURVE",
"1542 1159 CURVE SMOOTH"
);
}
);
width = 1741;
}
);
leftMetricsKey = O;
unicode = 01A0;
},
{
glyphname = Oslash;
lastChange = "2020-03-07 19:37:55 +0000";
layers = (
{
background = {
paths = (
{
closed = 1;
nodes = (
"223 -20 LINE",
"1565 1401 LINE",
"1505 1454 LINE",
"164 33 LINE"
);
}
);
};
components = (
{
name = O;
}
);
guideLines = (
{
angle = 90;
position = "{750, 614}";
},
{
angle = 90;
position = "{70, 614}";
}
);
layerId = "620D8D18-E43F-4D11-9420-7EF908A5CAE8";
paths = (
{
closed = 1;
nodes = (
"1536 1407 LINE",
"1483 1454 LINE",
"135 27 LINE",
"188 -20 LINE"
);
}
);
width = 1669;
},
{
background = {
paths = (
{
closed = 1;
nodes = (
"1522 1292 LINE",
"1348 1454 LINE",
"121 147 LINE",
"293 -16 LINE"
);
}
);
};
components = (
{
name = O;
}
);
guideLines = (
{
angle = 90;
position = "{59, 634}";
},
{
angle = 90;
position = "{743, 621}";
}
);
layerId = "514A1583-697A-4C0A-B081-2869E94CF283";
paths = (
{
closed = 1;
nodes = (
"1522 1323 LINE",
"1380 1454 LINE",
"121 115 LINE",
"262 -16 LINE"
);
}
);
width = 1665;
},
{
background = {
paths = (
{
closed = 1;
nodes = (
"1587 1255 LINE",
"1391 1452 LINE",
"72 180 LINE",
"270 -18 LINE"
);
}
);
};
components = (
{
name = O;
}
);
guideLines = (
{
angle = 90;
position = "{775, 631}";
},
{
angle = 90;
position = "{35, 655}";
}
);
layerId = "5C950900-0D0F-4959-81DE-75F048290F1B";
paths = (
{
closed = 1;
nodes = (
"1587 1286 LINE",
"1423 1452 LINE",
"72 147 LINE",
"238 -18 LINE"
);
}
);
width = 1659;
}
);
leftKerningGroup = O;
leftMetricsKey = O;
rightKerningGroup = O;
rightMetricsKey = O;
unicode = 00D8;
},
{
color = 3;
glyphname = OE;
lastChange = "2020-03-07 19:38:00 +0000";
layers = (
{
layerId = "620D8D18-E43F-4D11-9420-7EF908A5CAE8";
paths = (
{
closed = 1;
nodes = (
"1233 -20 OFFCURVE",
"1513 287 OFFCURVE",
"1513 717 CURVE SMOOTH",
"1513 1147 OFFCURVE",
"1233 1454 OFFCURVE",
"834 1454 CURVE SMOOTH",
"424 1454 OFFCURVE",
"133 1147 OFFCURVE",
"133 717 CURVE SMOOTH",
"133 287 OFFCURVE",
"424 -20 OFFCURVE",
"834 -20 CURVE SMOOTH"
);
},
{
closed = 1;
nodes = (
"475 53 OFFCURVE",
"217 334 OFFCURVE",
"217 717 CURVE SMOOTH",
"217 1100 OFFCURVE",
"475 1380 OFFCURVE",
"834 1380 CURVE SMOOTH",
"1196 1380 OFFCURVE",
"1452 1100 OFFCURVE",
"1452 717 CURVE SMOOTH",
"1452 334 OFFCURVE",
"1196 53 OFFCURVE",
"834 53 CURVE SMOOTH"
);
},
{
closed = 1;
nodes = (
"2425 0 LINE",
"2425 74 LINE",
"1532 74 LINE",
"1532 696 LINE",
"2329 696 LINE",
"2329 770 LINE",
"1532 770 LINE",
"1532 1360 LINE",
"2410 1360 LINE",
"2410 1434 LINE",
"1452 1434 LINE",
"1452 0 LINE"
);
}
);
width = 2537;
},
{
background = {
components = (
{
name = O;
transform = "{1, 0, 0, 1, -54, 0}";
},
{
name = E;
transform = "{1, 0, 0, 1, 501, 0}";
}
);
};
layerId = "514A1583-697A-4C0A-B081-2869E94CF283";
paths = (
{
closed = 1;
nodes = (
"1202 -20 OFFCURVE",
"1444 279 OFFCURVE",
"1444 717 CURVE SMOOTH",
"1444 1155 OFFCURVE",
"1210 1454 OFFCURVE",
"799 1454 CURVE SMOOTH",
"385 1454 OFFCURVE",
"102 1157 OFFCURVE",
"102 719 CURVE SMOOTH",
"102 279 OFFCURVE",
"377 -20 OFFCURVE",
"799 -20 CURVE SMOOTH"
);
},
{
closed = 1;
nodes = (
"545 227 OFFCURVE",
"377 401 OFFCURVE",
"377 717 CURVE SMOOTH",
"377 1034 OFFCURVE",
"549 1206 OFFCURVE",
"803 1206 CURVE SMOOTH",
"1061 1206 OFFCURVE",
"1229 1034 OFFCURVE",
"1229 719 CURVE SMOOTH",
"1229 401 OFFCURVE",
"1057 227 OFFCURVE",
"803 227 CURVE SMOOTH"
);
},
{
closed = 1;
nodes = (
"2255 0 LINE",
"2255 236 LINE",
"1464 236 LINE",
"1464 616 LINE",
"2159 616 LINE",
"2159 852 LINE",
"1464 852 LINE",
"1464 1198 LINE",
"2241 1198 LINE",
"2241 1434 LINE",
"1229 1434 LINE",
"1229 0 LINE"
);
}
);
width = 2336;
},
{
background = {
components = (
{
name = E;
transform = "{1, 0, 0, 1, 493, 0}";
}
);
};
layerId = "5C950900-0D0F-4959-81DE-75F048290F1B";
paths = (
{
closed = 1;
nodes = (
"1171 -18 OFFCURVE",
"1372 268 OFFCURVE",
"1372 715 CURVE SMOOTH",
"1372 1163 OFFCURVE",
"1186 1452 OFFCURVE",
"762 1452 CURVE SMOOTH",
"346 1452 OFFCURVE",
"72 1165 OFFCURVE",
"72 719 CURVE SMOOTH",
"72 270 OFFCURVE",
"330 -18 OFFCURVE",
"762 -18 CURVE SMOOTH"
);
},
{
closed = 1;
nodes = (
"639 401 OFFCURVE",
"537 467 OFFCURVE",
"537 715 CURVE SMOOTH",
"537 967 OFFCURVE",
"647 1032 OFFCURVE",
"829 1032 CURVE SMOOTH",
"1020 1032 OFFCURVE",
"1122 967 OFFCURVE",
"1122 719 CURVE SMOOTH",
"1122 467 OFFCURVE",
"1012 401 OFFCURVE",
"829 401 CURVE SMOOTH"
);
},
{
closed = 1;
nodes = (
"2306 0 LINE",
"2306 393 LINE",
"1579 393 LINE",
"1579 557 LINE",
"2210 557 LINE",
"2210 895 LINE",
"1579 895 LINE",
"1579 1044 LINE",
"2292 1044 LINE",
"2292 1434 LINE",
"1184 1434 LINE",
"1184 0 LINE"
);
}
);
width = 2358;
}
);
leftKerningGroup = O;
leftMetricsKey = O;
rightKerningGroup = E;
rightMetricsKey = E;
unicode = 0152;
},
{
glyphname = P;
lastChange = "2020-03-07 19:16:39 +0000";
layers = (
{
background = {
paths = (
{
closed = 1;
nodes = (
"307 0 LINE",
"307 537 LINE",
"762 537 LINE SMOOTH",
"1077 537 OFFCURVE",
"1264 713 OFFCURVE",
"1264 999 CURVE SMOOTH",
"1264 1286 OFFCURVE",
"1077 1434 OFFCURVE",
"762 1434 CURVE SMOOTH",
"225 1434 LINE",
"225 0 LINE"
);
},
{
closed = 1;
nodes = (
"307 1360 LINE",
"762 1360 LINE SMOOTH",
"1026 1360 OFFCURVE",
"1180 1249 OFFCURVE",
"1180 997 CURVE SMOOTH",
"1180 752 OFFCURVE",
"1026 610 OFFCURVE",
"762 610 CURVE SMOOTH",
"307 610 LINE"
);
}
);
};
layerId = "620D8D18-E43F-4D11-9420-7EF908A5CAE8";
paths = (
{
closed = 1;
nodes = (
"295 0 LINE",
"295 537 LINE",
"752 537 LINE SMOOTH",
"1067 537 OFFCURVE",
"1253 713 OFFCURVE",
"1253 999 CURVE SMOOTH",
"1253 1286 OFFCURVE",
"1067 1434 OFFCURVE",
"752 1434 CURVE SMOOTH",
"215 1434 LINE",
"215 0 LINE"
);
},
{
closed = 1;
nodes = (
"295 1360 LINE",
"752 1360 LINE SMOOTH",
"1016 1360 OFFCURVE",
"1169 1249 OFFCURVE",
"1169 997 CURVE SMOOTH",
"1169 752 OFFCURVE",
"1016 610 OFFCURVE",
"752 610 CURVE SMOOTH",
"295 610 LINE"
);
}
);
width = 1335;
},
{
background = {
paths = (
{
closed = 1;
nodes = (
"958 0 LINE SMOOTH",
"1284 0 OFFCURVE",
"1454 188 OFFCURVE",
"1454 453 CURVE SMOOTH",
"1454 573 OFFCURVE",
"1389 688 OFFCURVE",
"1280 739 CURVE",
"1280 741 LINE",
"1378 819 OFFCURVE",
"1417 930 OFFCURVE",
"1417 1032 CURVE SMOOTH",
"1417 1262 OFFCURVE",
"1260 1434 OFFCURVE",
"958 1434 CURVE SMOOTH",
"113 1434 LINE",
"113 0 LINE"
);
},
{
closed = 1;
nodes = (
"569 596 LINE",
"856 596 LINE SMOOTH",
"948 596 OFFCURVE",
"987 559 OFFCURVE",
"987 475 CURVE SMOOTH",
"987 385 OFFCURVE",
"928 360 OFFCURVE",
"821 360 CURVE SMOOTH",
"569 360 LINE"
);
},
{
closed = 1;
nodes = (
"569 1096 LINE",
"813 1096 LINE SMOOTH",
"926 1096 OFFCURVE",
"971 1059 OFFCURVE",
"971 981 CURVE SMOOTH",
"971 901 OFFCURVE",
"922 866 OFFCURVE",
"842 866 CURVE SMOOTH",
"569 866 LINE"
);
}
);
};
guideLines = (
{
position = "{235, 517}";
},
{
position = "{210, 232}";
},
{
position = "{167, 379}";
}
);
layerId = "5C950900-0D0F-4959-81DE-75F048290F1B";
paths = (
{
closed = 1;
nodes = (
"569 0 LINE",
"569 395 LINE",
"864 395 LINE SMOOTH",
"1182 395 OFFCURVE",
"1395 596 OFFCURVE",
"1395 913 CURVE SMOOTH",
"1395 1225 OFFCURVE",
"1206 1434 OFFCURVE",
"870 1434 CURVE SMOOTH",
"113 1434 LINE",
"113 0 LINE"
);
},
{
closed = 1;
nodes = (
"569 1059 LINE",
"745 1059 LINE SMOOTH",
"864 1059 OFFCURVE",
"928 1030 OFFCURVE",
"928 918 CURVE SMOOTH",
"928 805 OFFCURVE",
"864 778 OFFCURVE",
"745 778 CURVE SMOOTH",
"569 778 LINE"
);
}
);
width = 1466;
},
{
associatedMasterId = "5C950900-0D0F-4959-81DE-75F048290F1B";
background = {
paths = (
{
closed = 1;
nodes = (
"569 0 LINE",
"569 395 LINE",
"854 395 LINE SMOOTH",
"1171 395 OFFCURVE",
"1384 596 OFFCURVE",
"1384 913 CURVE SMOOTH",
"1384 1225 OFFCURVE",
"1196 1434 OFFCURVE",
"860 1434 CURVE SMOOTH",
"113 1434 LINE",
"113 0 LINE"
);
},
{
closed = 1;
nodes = (
"571 1036 LINE",
"788 1036 LINE SMOOTH",
"879 1036 OFFCURVE",
"928 1012 OFFCURVE",
"928 911 CURVE SMOOTH",
"928 811 OFFCURVE",
"879 788 OFFCURVE",
"788 788 CURVE SMOOTH",
"571 788 LINE"
);
}
);
};
guideLines = (
{
position = "{235, 506}";
},
{
position = "{210, 232}";
},
{
position = "{146, 446}";
}
);
layerId = "40CFC262-5756-4773-AAEB-DEC0CCB14600";
name = "Mar 31 18, 23:17";
paths = (
{
closed = 1;
nodes = (
"569 0 LINE",
"569 395 LINE",
"854 395 LINE SMOOTH",
"1169 395 OFFCURVE",
"1384 596 OFFCURVE",
"1384 913 CURVE SMOOTH",
"1384 1231 OFFCURVE",
"1188 1434 OFFCURVE",
"858 1434 CURVE SMOOTH",
"113 1434 LINE",
"113 0 LINE"
);
},
{
closed = 1;
nodes = (
"571 1036 LINE",
"811 1036 LINE SMOOTH",
"887 1036 OFFCURVE",
"928 1012 OFFCURVE",
"928 911 CURVE SMOOTH",
"928 815 OFFCURVE",
"887 788 OFFCURVE",
"811 788 CURVE SMOOTH",
"571 788 LINE"
);
}
);
width = 1456;
},
{
background = {
paths = (
{
closed = 1;
nodes = (
"434 0 LINE",
"434 467 LINE",
"803 467 LINE SMOOTH",
"1120 467 OFFCURVE",
"1319 655 OFFCURVE",
"1319 956 CURVE SMOOTH",
"1319 1255 OFFCURVE",
"1133 1434 OFFCURVE",
"807 1434 CURVE SMOOTH",
"164 1434 LINE",
"164 0 LINE"
);
},
{
closed = 1;
nodes = (
"434 1198 LINE",
"770 1198 LINE SMOOTH",
"948 1198 OFFCURVE",
"1049 1130 OFFCURVE",
"1049 954 CURVE SMOOTH",
"1049 782 OFFCURVE",
"948 700 OFFCURVE",
"770 700 CURVE SMOOTH",
"434 700 LINE"
);
}
);
};
guideLines = (
{
position = "{133, 585}";
},
{
position = "{133, 337}";
},
{
position = "{133, 223}";
}
);
layerId = "514A1583-697A-4C0A-B081-2869E94CF283";
paths = (
{
closed = 1;
nodes = (
"438 0 LINE",
"436 455 LINE",
"815 455 LINE SMOOTH",
"1122 455 OFFCURVE",
"1317 647 OFFCURVE",
"1317 952 CURVE SMOOTH",
"1317 1253 OFFCURVE",
"1133 1434 OFFCURVE",
"817 1434 CURVE SMOOTH",
"170 1434 LINE",
"170 0 LINE"
);
},
{
closed = 1;
nodes = (
"438 1198 LINE",
"778 1198 LINE SMOOTH",
"946 1198 OFFCURVE",
"1042 1128 OFFCURVE",
"1042 948 CURVE SMOOTH",
"1042 772 OFFCURVE",
"946 690 OFFCURVE",
"778 690 CURVE SMOOTH",
"438 690 LINE"
);
}
);
width = 1389;
},
{
associatedMasterId = "620D8D18-E43F-4D11-9420-7EF908A5CAE8";
background = {
paths = (
{
closed = 1;
nodes = (
"307 0 LINE",
"307 537 LINE",
"762 537 LINE SMOOTH",
"1077 537 OFFCURVE",
"1264 713 OFFCURVE",
"1264 999 CURVE SMOOTH",
"1264 1286 OFFCURVE",
"1077 1434 OFFCURVE",
"762 1434 CURVE SMOOTH",
"225 1434 LINE",
"225 0 LINE"
);
},
{
closed = 1;
nodes = (
"307 1360 LINE",
"762 1360 LINE SMOOTH",
"1026 1360 OFFCURVE",
"1180 1249 OFFCURVE",
"1180 997 CURVE SMOOTH",
"1180 752 OFFCURVE",
"1026 610 OFFCURVE",
"762 610 CURVE SMOOTH",
"307 610 LINE"
);
}
);
};
layerId = "A3B57E14-E012-458C-B848-A49B8F2FC8CC";
name = "Jun 15 18, 09:52";
paths = (
{
closed = 1;
nodes = (
"307 0 LINE",
"307 537 LINE",
"762 537 LINE SMOOTH",
"1077 537 OFFCURVE",
"1264 713 OFFCURVE",
"1264 999 CURVE SMOOTH",
"1264 1286 OFFCURVE",
"1077 1434 OFFCURVE",
"762 1434 CURVE SMOOTH",
"225 1434 LINE",
"225 0 LINE"
);
},
{
closed = 1;
nodes = (
"307 1360 LINE",
"762 1360 LINE SMOOTH",
"1026 1360 OFFCURVE",
"1180 1249 OFFCURVE",
"1180 997 CURVE SMOOTH",
"1180 752 OFFCURVE",
"1026 610 OFFCURVE",
"762 610 CURVE SMOOTH",
"307 610 LINE"
);
}
);
width = 1356;
}
);
leftMetricsKey = H;
unicode = 0050;
},
{
color = 3;
glyphname = Thorn;
lastChange = "2020-03-07 19:38:00 +0000";
layers = (
{
layerId = "620D8D18-E43F-4D11-9420-7EF908A5CAE8";
paths = (
{
closed = 1;
nodes = (
"295 0 LINE",
"295 315 LINE",
"752 315 LINE SMOOTH",
"1067 315 OFFCURVE",
"1253 492 OFFCURVE",
"1253 778 CURVE SMOOTH",
"1253 1065 OFFCURVE",
"1067 1212 OFFCURVE",
"752 1212 CURVE SMOOTH",
"295 1212 LINE",
"295 1434 LINE",
"215 1434 LINE",
"215 0 LINE"
);
},
{
closed = 1;
nodes = (
"295 1139 LINE",
"752 1139 LINE SMOOTH",
"1016 1139 OFFCURVE",
"1169 1028 OFFCURVE",
"1169 776 CURVE SMOOTH",
"1169 530 OFFCURVE",
"1016 389 OFFCURVE",
"752 389 CURVE SMOOTH",
"295 389 LINE"
);
}
);
width = 1335;
},
{
background = {
components = (
{
name = P;
transform = "{1, 0, 0, 1, 0, -101}";
}
);
};
guideLines = (
{
position = "{214, 484}";
}
);
layerId = "514A1583-697A-4C0A-B081-2869E94CF283";
paths = (
{
closed = 1;
nodes = (
"438 0 LINE",
"438 248 LINE",
"764 248 LINE SMOOTH",
"1081 248 OFFCURVE",
"1280 438 OFFCURVE",
"1280 743 CURVE SMOOTH",
"1280 1044 OFFCURVE",
"1094 1227 OFFCURVE",
"768 1227 CURVE SMOOTH",
"438 1227 LINE",
"438 1434 LINE",
"170 1434 LINE",
"170 0 LINE"
);
},
{
closed = 1;
nodes = (
"438 991 LINE",
"727 991 LINE SMOOTH",
"905 991 OFFCURVE",
"1006 920 OFFCURVE",
"1006 741 CURVE SMOOTH",
"1006 565 OFFCURVE",
"905 483 OFFCURVE",
"727 483 CURVE SMOOTH",
"438 483 LINE"
);
}
);
width = 1352;
},
{
background = {
components = (
{
name = P;
transform = "{1, 0, 0, 1, 0, -86}";
}
);
};
layerId = "5C950900-0D0F-4959-81DE-75F048290F1B";
paths = (
{
closed = 1;
nodes = (
"569 0 LINE",
"569 219 LINE",
"854 219 LINE SMOOTH",
"1180 219 OFFCURVE",
"1395 418 OFFCURVE",
"1395 737 CURVE SMOOTH",
"1395 1051 OFFCURVE",
"1204 1257 OFFCURVE",
"860 1257 CURVE SMOOTH",
"569 1257 LINE",
"569 1434 LINE",
"113 1434 LINE",
"113 0 LINE"
);
},
{
closed = 1;
nodes = (
"569 883 LINE",
"750 883 LINE SMOOTH",
"866 883 OFFCURVE",
"928 856 OFFCURVE",
"928 743 CURVE SMOOTH",
"928 629 OFFCURVE",
"866 602 OFFCURVE",
"750 602 CURVE SMOOTH",
"569 602 LINE"
);
}
);
width = 1466;
}
);
leftMetricsKey = H;
rightMetricsKey = P;
unicode = 00DE;
},
{
color = 0;
glyphname = Q;
lastChange = "2020-03-07 19:37:44 +0000";
layers = (
{
background = {
paths = (
{
closed = 1;
nodes = (
"1632 -49 LINE",
"676 1018 LINE",
"616 965 LINE",
"1573 -104 LINE"
);
}
);
};
components = (
{
name = O;
}
);
guideLines = (
{
angle = 90;
position = "{755, 645}";
}
);
layerId = "620D8D18-E43F-4D11-9420-7EF908A5CAE8";
paths = (
{
closed = 1;
nodes = (
"1556 29 LINE",
"997 647 LINE",
"938 600 LINE",
"1501 -20 LINE"
);
}
);
width = 1689;
},
{
background = {
paths = (
{
closed = 1;
nodes = (
"1583 156 LINE",
"938 737 LINE",
"778 569 LINE",
"1434 -18 LINE"
);
}
);
};
components = (
{
name = O;
}
);
guideLines = (
{
angle = 90;
position = "{773, 241}";
}
);
layerId = "5C950900-0D0F-4959-81DE-75F048290F1B";
paths = (
{
closed = 1;
nodes = (
"1583 154 LINE",
"938 737 LINE",
"778 569 LINE",
"1423 -18 LINE"
);
}
);
width = 1659;
},
{
background = {
paths = (
{
closed = 1;
nodes = (
"1559 147 LINE",
"956 721 LINE",
"793 561 LINE",
"1399 -16 LINE"
);
}
);
};
components = (
{
alignment = -1;
name = O;
}
);
guideLines = (
{
angle = 90;
position = "{761, 238}";
}
);
layerId = "514A1583-697A-4C0A-B081-2869E94CF283";
paths = (
{
closed = 1;
nodes = (
"1559 143 LINE",
"956 721 LINE",
"793 561 LINE",
"1399 -16 LINE"
);
}
);
width = 1665;
},
{
associatedMasterId = "514A1583-697A-4C0A-B081-2869E94CF283";
background = {
paths = (
{
closed = 0;
nodes = (
"1360 -16 LINE",
"774 584 LINE"
);
}
);
};
components = (
{
alignment = -1;
name = O;
}
);
guideLines = (
{
angle = 90;
position = "{744, 238}";
}
);
layerId = "536BE7A0-F7E6-4A1E-9408-F87C4F5D70F2";
name = "Jun 17 18, 12:18";
paths = (
{
closed = 1;
nodes = (
"1524 0 LINE",
"993 737 LINE",
"684 739 LINE",
"1243 0 LINE"
);
}
);
width = 1642;
}
);
leftKerningGroup = O;
leftMetricsKey = O;
rightKerningGroup = O;
rightMetricsKey = O;
unicode = 0051;
},
{
glyphname = R;
lastChange = "2020-03-07 19:16:39 +0000";
layers = (
{
anchors = (
{
name = bottom;
position = "{725, -72}";
},
{
name = top.case;
position = "{725, 1475}";
}
);
background = {
paths = (
{
closed = 1;
nodes = (
"215 0 LINE",
"365 0 LINE",
"365 608 LINE",
"827 608 LINE",
"1153 0 LINE",
"1325 0 LINE",
"983 633 LINE",
"1077 664 OFFCURVE",
"1151 713 OFFCURVE",
"1204 780 CURVE SMOOTH",
"1257 848 OFFCURVE",
"1286 932 OFFCURVE",
"1286 1028 CURVE SMOOTH",
"1286 1153 OFFCURVE",
"1245 1251 OFFCURVE",
"1161 1323 CURVE SMOOTH",
"1077 1395 OFFCURVE",
"965 1434 OFFCURVE",
"825 1434 CURVE SMOOTH",
"215 1434 LINE"
);
},
{
closed = 1;
nodes = (
"365 750 LINE",
"365 1292 LINE",
"821 1292 LINE SMOOTH",
"915 1292 OFFCURVE",
"989 1268 OFFCURVE",
"1044 1219 CURVE SMOOTH",
"1102 1167 OFFCURVE",
"1126 1102 OFFCURVE",
"1126 1018 CURVE SMOOTH",
"1126 938 OFFCURVE",
"1100 872 OFFCURVE",
"1047 823 CURVE SMOOTH",
"993 774 OFFCURVE",
"920 750 OFFCURVE",
"827 750 CURVE SMOOTH"
);
}
);
};
guideLines = (
{
angle = 90;
position = "{539, 501}";
},
{
position = "{251, 297}";
},
{
position = "{144, 343}";
}
);
layerId = "620D8D18-E43F-4D11-9420-7EF908A5CAE8";
paths = (
{
closed = 1;
nodes = (
"295 0 LINE",
"295 629 LINE",
"782 629 LINE SMOOTH",
"1153 629 OFFCURVE",
"1290 815 OFFCURVE",
"1290 1047 CURVE SMOOTH",
"1290 1303 OFFCURVE",
"1096 1434 OFFCURVE",
"799 1434 CURVE SMOOTH",
"215 1434 LINE",
"215 0 LINE"
);
},
{
closed = 1;
nodes = (
"1358 0 LINE",
"918 670 LINE",
"840 641 LINE",
"1262 0 LINE"
);
},
{
closed = 1;
nodes = (
"295 1360 LINE",
"793 1360 LINE SMOOTH",
"1055 1360 OFFCURVE",
"1206 1257 OFFCURVE",
"1206 1049 CURVE SMOOTH",
"1206 825 OFFCURVE",
"1057 702 OFFCURVE",
"803 702 CURVE SMOOTH",
"295 702 LINE"
);
}
);
width = 1460;
},
{
anchors = (
{
name = bottom;
position = "{778, -72}";
},
{
name = top.case;
position = "{721, 1475}";
}
);
background = {
paths = (
{
closed = 1;
nodes = (
"569 0 LINE",
"569 442 LINE",
"651 442 LINE SMOOTH",
"1055 442 OFFCURVE",
"1399 549 OFFCURVE",
"1399 938 CURVE SMOOTH",
"1399 1239 OFFCURVE",
"1194 1434 OFFCURVE",
"870 1434 CURVE SMOOTH",
"113 1434 LINE",
"113 0 LINE"
);
},
{
closed = 1;
nodes = (
"1479 0 LINE",
"1133 586 LINE",
"702 510 LINE",
"977 0 LINE"
);
},
{
closed = 1;
nodes = (
"569 1034 LINE",
"823 1034 LINE SMOOTH",
"913 1034 OFFCURVE",
"950 1001 OFFCURVE",
"950 909 CURVE SMOOTH",
"950 821 OFFCURVE",
"909 782 OFFCURVE",
"823 782 CURVE SMOOTH",
"569 782 LINE"
);
}
);
};
guideLines = (
{
position = "{278, 225}";
},
{
position = "{278, 384}";
},
{
position = "{278, 516}";
}
);
layerId = "5C950900-0D0F-4959-81DE-75F048290F1B";
paths = (
{
closed = 1;
nodes = (
"569 0 LINE",
"569 481 LINE",
"737 481 LINE SMOOTH",
"1055 481 OFFCURVE",
"1399 584 OFFCURVE",
"1399 958 CURVE SMOOTH",
"1399 1247 OFFCURVE",
"1194 1434 OFFCURVE",
"870 1434 CURVE SMOOTH",
"113 1434 LINE",
"113 0 LINE"
);
},
{
closed = 1;
nodes = (
"1479 0 LINE",
"1133 586 LINE",
"702 510 LINE",
"977 0 LINE"
);
},
{
closed = 1;
nodes = (
"569 1057 LINE",
"768 1057 LINE SMOOTH",
"897 1057 OFFCURVE",
"950 1020 OFFCURVE",
"950 924 CURVE SMOOTH",
"950 829 OFFCURVE",
"893 786 OFFCURVE",
"768 786 CURVE SMOOTH",
"569 786 LINE"
);
}
);
width = 1499;
},
{
anchors = (
{
name = bottom;
position = "{758, -72}";
},
{
name = top.case;
position = "{729, 1475}";
}
);
background = {
paths = (
{
closed = 1;
nodes = (
"438 0 LINE",
"438 555 LINE",
"735 555 LINE SMOOTH",
"1079 555 OFFCURVE",
"1321 700 OFFCURVE",
"1321 1004 CURVE SMOOTH",
"1321 1276 OFFCURVE",
"1120 1434 OFFCURVE",
"811 1434 CURVE SMOOTH",
"170 1434 LINE",
"170 0 LINE"
);
},
{
closed = 1;
nodes = (
"1395 0 LINE",
"1001 629 LINE",
"748 575 LINE",
"1096 0 LINE"
);
},
{
closed = 1;
nodes = (
"438 1198 LINE",
"784 1198 LINE SMOOTH",
"961 1198 OFFCURVE",
"1055 1130 OFFCURVE",
"1055 983 CURVE SMOOTH",
"1055 831 OFFCURVE",
"958 752 OFFCURVE",
"788 752 CURVE SMOOTH",
"438 752 LINE"
);
}
);
};
guideLines = (
{
position = "{151, 576}";
},
{
position = "{151, 375}";
},
{
position = "{144, 252}";
}
);
layerId = "514A1583-697A-4C0A-B081-2869E94CF283";
paths = (
{
closed = 1;
nodes = (
"438 0 LINE",
"438 532 LINE",
"735 532 LINE SMOOTH",
"1079 532 OFFCURVE",
"1321 682 OFFCURVE",
"1321 993 CURVE SMOOTH",
"1321 1272 OFFCURVE",
"1120 1434 OFFCURVE",
"811 1434 CURVE SMOOTH",
"170 1434 LINE",
"170 0 LINE"
);
},
{
closed = 1;
nodes = (
"1395 0 LINE",
"1001 629 LINE",
"748 575 LINE",
"1096 0 LINE"
);
},
{
closed = 1;
nodes = (
"438 1198 LINE",
"784 1198 LINE SMOOTH",
"956 1198 OFFCURVE",
"1051 1133 OFFCURVE",
"1051 991 CURVE SMOOTH",
"1051 846 OFFCURVE",
"954 768 OFFCURVE",
"788 768 CURVE SMOOTH",
"438 768 LINE"
);
}
);
width = 1436;
}
);
leftMetricsKey = H;
rightKerningGroup = R;
unicode = 0052;
},
{
glyphname = S;
lastChange = "2021-02-24 21:29:28 +0000";
layers = (
{
anchors = (
{
name = bottom;
position = "{608, -72}";
},
{
name = top.case;
position = "{649, 1475}";
}
);
background = {
paths = (
{
closed = 1;
nodes = (
"899 -20 OFFCURVE",
"1124 96 OFFCURVE",
"1124 377 CURVE SMOOTH",
"1124 594 OFFCURVE",
"987 682 OFFCURVE",
"641 782 CURVE SMOOTH",
"301 883 OFFCURVE",
"215 924 OFFCURVE",
"215 1081 CURVE SMOOTH",
"215 1083 LINE SMOOTH",
"215 1272 OFFCURVE",
"373 1380 OFFCURVE",
"633 1380 CURVE SMOOTH",
"754 1380 OFFCURVE",
"872 1362 OFFCURVE",
"1001 1331 CURVE SMOOTH",
"1102 1307 LINE",
"1057 1284 LINE",
"1087 1403 LINE",
"1118 1366 LINE",
"1020 1395 LINE SMOOTH",
"895 1432 OFFCURVE",
"760 1454 OFFCURVE",
"641 1454 CURVE SMOOTH",
"362 1454 OFFCURVE",
"135 1343 OFFCURVE",
"135 1079 CURVE SMOOTH",
"135 872 OFFCURVE",
"262 809 OFFCURVE",
"612 707 CURVE SMOOTH",
"952 606 OFFCURVE",
"1042 528 OFFCURVE",
"1042 373 CURVE SMOOTH",
"1042 369 LINE SMOOTH",
"1042 164 OFFCURVE",
"887 53 OFFCURVE",
"612 53 CURVE SMOOTH",
"506 53 OFFCURVE",
"358 68 OFFCURVE",
"248 96 CURVE SMOOTH",
"86 137 LINE",
"156 201 LINE",
"102 33 LINE",
"59 76 LINE",
"231 27 LINE SMOOTH",
"311 4 OFFCURVE",
"442 -20 OFFCURVE",
"610 -20 CURVE SMOOTH"
);
}
);
};
guideLines = (
{
angle = 90;
position = "{61, 334}";
},
{
angle = 90;
position = "{540, 385}";
}
);
layerId = "620D8D18-E43F-4D11-9420-7EF908A5CAE8";
paths = (
{
closed = 1;
nodes = (
"899 -20 OFFCURVE",
"1124 96 OFFCURVE",
"1124 377 CURVE SMOOTH",
"1124 594 OFFCURVE",
"987 682 OFFCURVE",
"641 782 CURVE SMOOTH",
"301 883 OFFCURVE",
"215 924 OFFCURVE",
"215 1081 CURVE SMOOTH",
"215 1272 OFFCURVE",
"373 1380 OFFCURVE",
"633 1380 CURVE SMOOTH",
"754 1380 OFFCURVE",
"872 1362 OFFCURVE",
"1001 1331 CURVE SMOOTH",
"1065.014 1315.789 LINE",
"1080.472 1377.105 LINE",
"1020 1395 LINE SMOOTH",
"895 1432 OFFCURVE",
"760 1454 OFFCURVE",
"641 1454 CURVE SMOOTH",
"362 1454 OFFCURVE",
"135 1343 OFFCURVE",
"135 1079 CURVE SMOOTH",
"135 872 OFFCURVE",
"262 809 OFFCURVE",
"612 707 CURVE SMOOTH",
"952 606 OFFCURVE",
"1042 528 OFFCURVE",
"1042 373 CURVE SMOOTH",
"1042 166 OFFCURVE",
"891 53 OFFCURVE",
"612 53 CURVE SMOOTH",
"506 53 OFFCURVE",
"358 68 OFFCURVE",
"248 96 CURVE SMOOTH",
"131.71 125.431 LINE",
"111.055 61.17 LINE",
"231 27 LINE SMOOTH",
"311 4 OFFCURVE",
"442 -20 OFFCURVE",
"610 -20 CURVE SMOOTH"
);
}
);
width = 1237;
},
{
anchors = (
{
name = bottom;
position = "{645, -72}";
},
{
name = top.case;
position = "{760, 1475}";
}
);
background = {
paths = (
{
closed = 1;
nodes = (
"997 -18 OFFCURVE",
"1272 139 OFFCURVE",
"1272 479 CURVE SMOOTH",
"1272 692 OFFCURVE",
"1174 821 OFFCURVE",
"844 901 CURVE SMOOTH",
"606 961 OFFCURVE",
"588 973 OFFCURVE",
"588 999 CURVE SMOOTH",
"588 1008 LINE SMOOTH",
"588 1038 OFFCURVE",
"629 1057 OFFCURVE",
"780 1057 CURVE SMOOTH",
"856 1057 OFFCURVE",
"938 1053 OFFCURVE",
"991 1047 CURVE SMOOTH",
"1313 1014 LINE",
"1157 862 LINE",
"1264 1456 LINE",
"1427 1327 LINE",
"1137 1401 LINE SMOOTH",
"1006 1434 OFFCURVE",
"868 1452 OFFCURVE",
"743 1452 CURVE SMOOTH",
"385 1452 OFFCURVE",
"123 1319 OFFCURVE",
"123 995 CURVE SMOOTH",
"123 737 OFFCURVE",
"231 637 OFFCURVE",
"569 535 CURVE SMOOTH",
"784 469 OFFCURVE",
"791 455 OFFCURVE",
"791 428 CURVE SMOOTH",
"791 426 LINE SMOOTH",
"791 401 OFFCURVE",
"756 383 OFFCURVE",
"641 383 CURVE SMOOTH",
"537 383 OFFCURVE",
"403 395 OFFCURVE",
"313 408 CURVE SMOOTH",
"-51 455 LINE",
"170 596 LINE",
"49 0 LINE",
"-27 106 LINE",
"193 47 LINE SMOOTH",
"354 4 OFFCURVE",
"502 -18 OFFCURVE",
"645 -18 CURVE SMOOTH"
);
}
);
};
layerId = "5C950900-0D0F-4959-81DE-75F048290F1B";
paths = (
{
closed = 1;
nodes = (
"997 -18 OFFCURVE",
"1272 139 OFFCURVE",
"1272 479 CURVE SMOOTH",
"1272 692 OFFCURVE",
"1174 821 OFFCURVE",
"844 901 CURVE SMOOTH",
"606 961 OFFCURVE",
"588 973 OFFCURVE",
"588 1004 CURVE SMOOTH",
"588 1042 OFFCURVE",
"629 1057 OFFCURVE",
"729 1057 CURVE SMOOTH",
"856 1057 OFFCURVE",
"938 1053 OFFCURVE",
"991 1047 CURVE SMOOTH",
"1186.712 1026.943 LINE",
"1248.947 1372.434 LINE",
"1137 1401 LINE SMOOTH",
"1006 1434 OFFCURVE",
"868 1452 OFFCURVE",
"743 1452 CURVE SMOOTH",
"385 1452 OFFCURVE",
"123 1319 OFFCURVE",
"123 995 CURVE SMOOTH",
"123 737 OFFCURVE",
"231 637 OFFCURVE",
"569 535 CURVE SMOOTH",
"784 469 OFFCURVE",
"791 455 OFFCURVE",
"791 426 CURVE SMOOTH",
"791 401 OFFCURVE",
"764 383 OFFCURVE",
"676 383 CURVE SMOOTH",
"537 383 OFFCURVE",
"403 395 OFFCURVE",
"313 408 CURVE SMOOTH",
"136.46 430.795 LINE",
"65.485 81.197 LINE",
"193 47 LINE SMOOTH",
"354 4 OFFCURVE",
"502 -18 OFFCURVE",
"645 -18 CURVE SMOOTH"
);
}
);
width = 1352;
},
{
anchors = (
{
name = bottom;
position = "{627, -72}";
},
{
name = top.case;
position = "{698, 1475}";
}
);
background = {
anchors = (
{
name = bottom;
position = "{639, -72}";
},
{
name = top.case;
position = "{674, 1475}";
}
);
paths = (
{
closed = 1;
nodes = (
"963 -20 OFFCURVE",
"1182 129 OFFCURVE",
"1182 440 CURVE SMOOTH",
"1182 641 OFFCURVE",
"1081 754 OFFCURVE",
"745 848 CURVE SMOOTH",
"461 928 OFFCURVE",
"408 956 OFFCURVE",
"408 1044 CURVE SMOOTH",
"408 1047 LINE SMOOTH",
"408 1155 OFFCURVE",
"498 1210 OFFCURVE",
"705 1210 CURVE SMOOTH",
"811 1210 OFFCURVE",
"920 1198 OFFCURVE",
"1020 1184 CURVE SMOOTH",
"1190 1157 LINE",
"1094 1073 LINE",
"1161 1430 LINE",
"1241 1354 LINE",
"1063 1401 LINE SMOOTH",
"946 1432 OFFCURVE",
"811 1454 OFFCURVE",
"670 1454 CURVE SMOOTH",
"371 1454 OFFCURVE",
"127 1335 OFFCURVE",
"135 1038 CURVE SMOOTH",
"141 799 OFFCURVE",
"248 715 OFFCURVE",
"582 614 CURVE SMOOTH",
"856 532 OFFCURVE",
"905 492 OFFCURVE",
"905 406 CURVE SMOOTH",
"905 401 LINE SMOOTH",
"905 287 OFFCURVE",
"817 227 OFFCURVE",
"618 227 CURVE SMOOTH",
"514 227 OFFCURVE",
"379 242 OFFCURVE",
"240 268 CURVE SMOOTH",
"25 309 LINE",
"162 399 LINE",
"84 16 LINE",
"29 94 LINE",
"193 43 LINE SMOOTH",
"354 -6 OFFCURVE",
"487 -20 OFFCURVE",
"633 -20 CURVE SMOOTH"
);
}
);
};
guideLines = (
{
position = "{248, 414}";
},
{
position = "{203, 301}";
}
);
layerId = "514A1583-697A-4C0A-B081-2869E94CF283";
paths = (
{
closed = 1;
nodes = (
"948 -20 OFFCURVE",
"1198 119 OFFCURVE",
"1198 428 CURVE SMOOTH",
"1198 643 OFFCURVE",
"1081 752 OFFCURVE",
"743 842 CURVE SMOOTH",
"455 922 OFFCURVE",
"401 948 OFFCURVE",
"401 1040 CURVE SMOOTH",
"401 1159 OFFCURVE",
"504 1219 OFFCURVE",
"707 1219 CURVE SMOOTH",
"805 1219 OFFCURVE",
"913 1202 OFFCURVE",
"1006 1190 CURVE SMOOTH",
"1126.978 1172.632 LINE",
"1165.773 1376.306 LINE",
"1079 1399 LINE SMOOTH",
"950 1434 OFFCURVE",
"815 1454 OFFCURVE",
"692 1454 CURVE SMOOTH",
"375 1454 OFFCURVE",
"129 1331 OFFCURVE",
"129 1038 CURVE SMOOTH",
"129 805 OFFCURVE",
"248 723 OFFCURVE",
"592 621 CURVE SMOOTH",
"868 539 OFFCURVE",
"918 492 OFFCURVE",
"918 401 CURVE SMOOTH",
"918 281 OFFCURVE",
"819 219 OFFCURVE",
"627 219 CURVE SMOOTH",
"522 219 OFFCURVE",
"381 231 OFFCURVE",
"281 252 CURVE SMOOTH",
"132.599 277.392 LINE",
"89.584 71.456 LINE",
"213 37 LINE SMOOTH",
"334 4 OFFCURVE",
"473 -20 OFFCURVE",
"629 -20 CURVE SMOOTH"
);
}
);
width = 1294;
}
);
leftKerningGroup = S;
rightKerningGroup = S;
unicode = 0053;
},
{
glyphname = Germandbls;
lastChange = "2021-02-24 21:30:19 +0000";
layers = (
{
background = {
paths = (
{
closed = 1;
nodes = (
"1079 1348 LINE",
"948 1413 OFFCURVE",
"801 1454 OFFCURVE",
"659 1454 CURVE SMOOTH",
"420 1454 OFFCURVE",
"205 1333 OFFCURVE",
"205 1038 CURVE SMOOTH",
"205 0 LINE",
"285 0 LINE",
"285 1038 LINE SMOOTH",
"285 1278 OFFCURVE",
"455 1380 OFFCURVE",
"662 1380 CURVE SMOOTH",
"782 1380 OFFCURVE",
"918 1348 OFFCURVE",
"1036 1292 CURVE",
"1026 1346 LINE",
"608 764 LINE",
"608 715 LINE",
"723 715 LINE SMOOTH",
"1020 715 OFFCURVE",
"1153 592 OFFCURVE",
"1153 393 CURVE SMOOTH",
"1153 170 OFFCURVE",
"1014 55 OFFCURVE",
"743 55 CURVE SMOOTH",
"678 55 OFFCURVE",
"596 61 OFFCURVE",
"528 74 CURVE SMOOTH",
"412 94 LINE",
"469 121 LINE",
"438 -10 LINE",
"418 31 LINE",
"508 4 LINE SMOOTH",
"578 -16 OFFCURVE",
"672 -20 OFFCURVE",
"743 -20 CURVE SMOOTH",
"1042 -20 OFFCURVE",
"1237 141 OFFCURVE",
"1237 389 CURVE SMOOTH",
"1237 635 OFFCURVE",
"1081 788 OFFCURVE",
"729 788 CURVE SMOOTH",
"651 788 LINE",
"698 760 LINE",
"1079 1296 LINE"
);
}
);
};
layerId = "620D8D18-E43F-4D11-9420-7EF908A5CAE8";
paths = (
{
closed = 1;
nodes = (
"1202 -20 OFFCURVE",
"1397 141 OFFCURVE",
"1397 389 CURVE SMOOTH",
"1397 635 OFFCURVE",
"1241 788 OFFCURVE",
"877.903 788 CURVE",
"1239 1296 LINE",
"1239 1348 LINE",
"1098 1417 OFFCURVE",
"932 1454 OFFCURVE",
"776 1454 CURVE SMOOTH",
"475 1454 OFFCURVE",
"205 1321 OFFCURVE",
"205 1038 CURVE SMOOTH",
"205 0 LINE",
"285 0 LINE",
"285 1038 LINE SMOOTH",
"285 1274 OFFCURVE",
"520 1380 OFFCURVE",
"782 1380 CURVE SMOOTH",
"910.249 1380 OFFCURVE",
"1042.577 1357.16 OFFCURVE",
"1159.092 1308.534 CURVE",
"768 764 LINE",
"768 715 LINE",
"883 715 LINE SMOOTH",
"1180 715 OFFCURVE",
"1313 592 OFFCURVE",
"1313 393 CURVE SMOOTH",
"1313 170 OFFCURVE",
"1174 55 OFFCURVE",
"903 55 CURVE SMOOTH",
"838 55 OFFCURVE",
"756 61 OFFCURVE",
"688 74 CURVE SMOOTH",
"620.604 85.521 LINE",
"605.733 22.68 LINE",
"668 4 LINE SMOOTH",
"737 -16 OFFCURVE",
"831 -20 OFFCURVE",
"903 -20 CURVE SMOOTH"
);
}
);
width = 1479;
},
{
background = {
paths = (
{
closed = 1;
nodes = (
"1262 -20 OFFCURVE",
"1442 170 OFFCURVE",
"1442 403 CURVE SMOOTH",
"1442 662 OFFCURVE",
"1249 827 OFFCURVE",
"922 827 CURVE SMOOTH",
"883 827 LINE",
"1006 752 LINE",
"1280 1210 LINE",
"1280 1339 LINE",
"1133 1415 OFFCURVE",
"946 1454 OFFCURVE",
"776 1454 CURVE SMOOTH",
"420 1454 OFFCURVE",
"111 1321 OFFCURVE",
"111 991 CURVE SMOOTH",
"111 0 LINE",
"379 0 LINE",
"379 952 LINE SMOOTH",
"379 1135 OFFCURVE",
"549 1214 OFFCURVE",
"752 1214 CURVE SMOOTH",
"858 1214 OFFCURVE",
"971 1192 OFFCURVE",
"1063 1145 CURVE",
"1032 1307 LINE",
"735 807 LINE",
"735 625 LINE",
"883 625 LINE SMOOTH",
"1081 625 OFFCURVE",
"1163 549 OFFCURVE",
"1163 426 CURVE SMOOTH",
"1163 283 OFFCURVE",
"1063 211 OFFCURVE",
"883 211 CURVE SMOOTH",
"825 211 OFFCURVE",
"752 223 OFFCURVE",
"700 231 CURVE SMOOTH",
"586 252 LINE",
"631 276 LINE",
"580 -4 LINE",
"559 51 LINE",
"662 20 LINE SMOOTH",
"752 -6 OFFCURVE",
"840 -20 OFFCURVE",
"940 -20 CURVE SMOOTH"
);
}
);
};
layerId = "514A1583-697A-4C0A-B081-2869E94CF283";
paths = (
{
closed = 1;
nodes = (
"1260 -20 OFFCURVE",
"1438 170 OFFCURVE",
"1438 403 CURVE SMOOTH",
"1438 627.521 OFFCURVE",
"1294.468 781.404 OFFCURVE",
"1047.141 818.395 CURVE",
"1278 1210 LINE",
"1278 1339 LINE",
"1133 1415 OFFCURVE",
"950 1454 OFFCURVE",
"782 1454 CURVE SMOOTH",
"432 1454 OFFCURVE",
"129 1321 OFFCURVE",
"129 991 CURVE SMOOTH",
"129 0 LINE",
"397 0 LINE",
"397 952 LINE SMOOTH",
"397 1135 OFFCURVE",
"559 1214 OFFCURVE",
"758 1214 CURVE SMOOTH",
"826.167 1214 OFFCURVE",
"896.403 1204.902 OFFCURVE",
"961.791 1185.907 CURVE",
"743 819 LINE",
"743 625 LINE",
"889 625 LINE SMOOTH",
"1083 625 OFFCURVE",
"1163 549 OFFCURVE",
"1163 426 CURVE SMOOTH",
"1163 283 OFFCURVE",
"1065 211 OFFCURVE",
"889 211 CURVE SMOOTH",
"834 211 OFFCURVE",
"756 221 OFFCURVE",
"709 231 CURVE SMOOTH",
"635.298 244.697 LINE",
"598.376 41.984 LINE",
"670 20 LINE SMOOTH",
"758 -8 OFFCURVE",
"846 -20 OFFCURVE",
"944 -20 CURVE SMOOTH"
);
}
);
width = 1489;
},
{
background = {
paths = (
{
closed = 1;
nodes = (
"1366 -18 OFFCURVE",
"1532 197 OFFCURVE",
"1532 418 CURVE SMOOTH",
"1532 659 OFFCURVE",
"1391 819 OFFCURVE",
"1044 819 CURVE",
"1110 741 LINE",
"1366 1122 LINE",
"1366 1329 LINE",
"1206 1411 OFFCURVE",
"1014 1452 OFFCURVE",
"829 1452 CURVE SMOOTH",
"422 1452 OFFCURVE",
"92 1319 OFFCURVE",
"92 944 CURVE SMOOTH",
"92 0 LINE",
"549 0 LINE",
"549 903 LINE SMOOTH",
"549 1032 OFFCURVE",
"653 1085 OFFCURVE",
"797 1085 CURVE SMOOTH",
"870 1085 OFFCURVE",
"946 1059 OFFCURVE",
"1006 1008 CURVE",
"1028 1239 LINE",
"748 815 LINE",
"748 582 LINE",
"944 582 LINE SMOOTH",
"1063 582 OFFCURVE",
"1098 535 OFFCURVE",
"1098 467 CURVE SMOOTH",
"1098 379 OFFCURVE",
"1026 338 OFFCURVE",
"926 338 CURVE SMOOTH",
"874 338 OFFCURVE",
"807 350 OFFCURVE",
"766 356 CURVE SMOOTH",
"645 377 LINE",
"692 430 LINE",
"618 4 LINE",
"588 70 LINE",
"700 35 LINE SMOOTH",
"811 0 OFFCURVE",
"895 -18 OFFCURVE",
"1024 -18 CURVE SMOOTH"
);
}
);
};
guideLines = (
{
angle = 90;
position = "{627, 703}";
}
);
layerId = "5C950900-0D0F-4959-81DE-75F048290F1B";
paths = (
{
closed = 1;
nodes = (
"1397 -18 OFFCURVE",
"1563 197 OFFCURVE",
"1563 418 CURVE SMOOTH",
"1563 630.577 OFFCURVE",
"1452.52 780.133 OFFCURVE",
"1189.01 812.453 CURVE",
"1397 1122 LINE",
"1397 1329 LINE",
"1245 1411 OFFCURVE",
"1036 1452 OFFCURVE",
"854 1452 CURVE SMOOTH",
"440 1452 OFFCURVE",
"92 1319 OFFCURVE",
"92 944 CURVE SMOOTH",
"92 0 LINE",
"549 0 LINE",
"549 903 LINE SMOOTH",
"549 1032 OFFCURVE",
"653 1085 OFFCURVE",
"797 1085 CURVE SMOOTH",
"845.626 1085 OFFCURVE",
"895.583 1077.013 OFFCURVE",
"941.256 1061.336 CURVE",
"778 815 LINE",
"778 582 LINE",
"975 582 LINE SMOOTH",
"1094 582 OFFCURVE",
"1128 535 OFFCURVE",
"1128 467 CURVE SMOOTH",
"1128 379 OFFCURVE",
"1057 338 OFFCURVE",
"956 338 CURVE SMOOTH",
"905 338 OFFCURVE",
"838 350 OFFCURVE",
"797 356 CURVE SMOOTH",
"712.687 370.633 LINE",
"658.297 57.519 LINE",
"731 35 LINE SMOOTH",
"842 0 OFFCURVE",
"926 -18 OFFCURVE",
"1055 -18 CURVE SMOOTH"
);
}
);
width = 1583;
}
);
unicode = 1E9E;
},
{
glyphname = Schwa;
lastChange = "2021-02-24 21:30:56 +0000";
layers = (
{
background = {
components = (
{
name = O;
transform = "{1, 0, 0, 1, -54, 0}";
}
);
};
layerId = "620D8D18-E43F-4D11-9420-7EF908A5CAE8";
paths = (
{
closed = 1;
nodes = (
"1139 -20 OFFCURVE",
"1425 317 OFFCURVE",
"1425 719 CURVE SMOOTH",
"1425 1176 OFFCURVE",
"1137 1454 OFFCURVE",
"692 1454 CURVE SMOOTH",
"541 1454 OFFCURVE",
"399 1427 OFFCURVE",
"276 1384 CURVE SMOOTH",
"191.265 1356.186 LINE",
"208.131 1297.694 LINE",
"293 1325 LINE SMOOTH",
"426 1366 OFFCURVE",
"551 1380 OFFCURVE",
"684 1380 CURVE SMOOTH",
"1071 1380 OFFCURVE",
"1343 1135 OFFCURVE",
"1342.964 709 CURVE",
"123 709 LINE",
"123 662 LINE SMOOTH",
"123 299 OFFCURVE",
"317 -20 OFFCURVE",
"743 -20 CURVE SMOOTH"
);
},
{
closed = 1;
nodes = (
"1339.107 635 LINE",
"1304.8 279.74 OFFCURVE",
"1048.132 53 OFFCURVE",
"743 53 CURVE SMOOTH",
"404.126 53 OFFCURVE",
"215.395 286.556 OFFCURVE",
"201.791 635 CURVE"
);
}
);
width = 1558;
},
{
background = {
paths = (
{
closed = 1;
nodes = (
"1155 -20 OFFCURVE",
"1483 272 OFFCURVE",
"1483 719 CURVE SMOOTH",
"1483 1167 OFFCURVE",
"1186 1454 OFFCURVE",
"741 1454 CURVE SMOOTH",
"575 1454 OFFCURVE",
"424 1432 OFFCURVE",
"285 1380 CURVE SMOOTH",
"131 1325 LINE",
"145 1421 LINE",
"238 1044 LINE",
"193 1130 LINE",
"352 1165 LINE SMOOTH",
"481 1194 OFFCURVE",
"596 1206 OFFCURVE",
"707 1206 CURVE SMOOTH",
"1024 1206 OFFCURVE",
"1210 1049 OFFCURVE",
"1210 715 CURVE SMOOTH",
"1210 379 OFFCURVE",
"1034 221 OFFCURVE",
"788 221 CURVE SMOOTH",
"526 221 OFFCURVE",
"403 381 OFFCURVE",
"403 668 CURVE",
"307 584 LINE",
"1268 584 LINE",
"1268 799 LINE",
"102 799 LINE",
"102 700 LINE SMOOTH",
"102 285 OFFCURVE",
"332 -20 OFFCURVE",
"758 -20 CURVE SMOOTH"
);
}
);
};
layerId = "514A1583-697A-4C0A-B081-2869E94CF283";
paths = (
{
closed = 1;
nodes = (
"1176 -20 OFFCURVE",
"1483 272 OFFCURVE",
"1483 719 CURVE SMOOTH",
"1483 1167 OFFCURVE",
"1186 1454 OFFCURVE",
"741 1454 CURVE SMOOTH",
"575 1454 OFFCURVE",
"424 1432 OFFCURVE",
"285 1380 CURVE SMOOTH",
"165.631 1337.368 LINE",
"215.56 1134.966 LINE",
"352 1165 LINE SMOOTH",
"481 1194 OFFCURVE",
"596 1206 OFFCURVE",
"707 1206 CURVE SMOOTH",
"996.131 1206 OFFCURVE",
"1176.283 1075.392 OFFCURVE",
"1205.725 799 CURVE",
"102 799 LINE",
"102 700 LINE SMOOTH",
"102 285 OFFCURVE",
"334 -20 OFFCURVE",
"778 -20 CURVE SMOOTH"
);
},
{
closed = 1;
nodes = (
"1199.894 584 LINE",
"1159.222 337.765 OFFCURVE",
"999.477 221 OFFCURVE",
"788 221 CURVE SMOOTH",
"552.783 221 OFFCURVE",
"429.6 349.96 OFFCURVE",
"406.873 584 CURVE"
);
}
);
width = 1585;
},
{
background = {
paths = (
{
closed = 1;
nodes = (
"1149 -18 OFFCURVE",
"1520 227 OFFCURVE",
"1520 719 CURVE SMOOTH",
"1520 1159 OFFCURVE",
"1212 1452 OFFCURVE",
"768 1452 CURVE SMOOTH",
"567 1452 OFFCURVE",
"395 1425 OFFCURVE",
"221 1370 CURVE SMOOTH",
"27 1307 LINE",
"96 1419 LINE",
"209 827 LINE",
"141 989 LINE",
"362 1022 LINE SMOOTH",
"498 1042 OFFCURVE",
"614 1053 OFFCURVE",
"709 1053 CURVE SMOOTH",
"954 1053 OFFCURVE",
"1069 961 OFFCURVE",
"1069 713 CURVE SMOOTH",
"1069 442 OFFCURVE",
"975 369 OFFCURVE",
"813 369 CURVE SMOOTH",
"639 369 OFFCURVE",
"586 457 OFFCURVE",
"586 659 CURVE",
"436 559 LINE",
"1126 559 LINE",
"1126 860 LINE",
"61 860 LINE",
"61 737 LINE SMOOTH",
"61 270 OFFCURVE",
"326 -18 OFFCURVE",
"752 -18 CURVE SMOOTH"
);
}
);
};
layerId = "5C950900-0D0F-4959-81DE-75F048290F1B";
paths = (
{
closed = 1;
nodes = (
"1184 -18 OFFCURVE",
"1520 227 OFFCURVE",
"1520 719 CURVE SMOOTH",
"1520 1159 OFFCURVE",
"1212 1452 OFFCURVE",
"768 1452 CURVE SMOOTH",
"567 1452 OFFCURVE",
"395 1425 OFFCURVE",
"221 1370 CURVE SMOOTH",
"112.103 1334.637 LINE",
"177.05 994.383 LINE",
"362 1022 LINE SMOOTH",
"498 1042 OFFCURVE",
"614 1053 OFFCURVE",
"709 1053 CURVE SMOOTH",
"897.714 1053 OFFCURVE",
"1009.299 998.416 OFFCURVE",
"1050.609 860 CURVE",
"61 860 LINE",
"61 737 LINE SMOOTH",
"61 270 OFFCURVE",
"330 -18 OFFCURVE",
"786 -18 CURVE SMOOTH"
);
},
{
closed = 1;
nodes = (
"1055.08 559 LINE",
"1023.365 412.901 OFFCURVE",
"938.63 369 OFFCURVE",
"813 369 CURVE SMOOTH",
"670.985 369 OFFCURVE",
"609.573 427.621 OFFCURVE",
"591.795 559 CURVE"
);
}
);
width = 1592;
}
);
rightMetricsKey = O;
unicode = 018F;
},
{
color = 4;
glyphname = T;
lastChange = "2020-03-07 19:16:39 +0000";
layers = (
{
anchors = (
{
name = bottom;
position = "{659, -72}";
},
{
name = top.case;
position = "{657, 1475}";
}
);
layerId = "620D8D18-E43F-4D11-9420-7EF908A5CAE8";
paths = (
{
closed = 1;
nodes = (
"698 0 LINE",
"698 1360 LINE",
"1253 1360 LINE",
"1253 1434 LINE",
"61 1434 LINE",
"61 1360 LINE",
"618 1360 LINE",
"618 0 LINE"
);
}
);
width = 1315;
},
{
anchors = (
{
name = bottom;
position = "{707, -72}";
},
{
name = top.case;
position = "{707, 1475}";
}
);
layerId = "5C950900-0D0F-4959-81DE-75F048290F1B";
paths = (
{
closed = 1;
nodes = (
"936 0 LINE",
"936 1034 LINE",
"1362 1034 LINE",
"1362 1434 LINE",
"51 1434 LINE",
"51 1034 LINE",
"479 1034 LINE",
"479 0 LINE"
);
}
);
width = 1413;
},
{
anchors = (
{
name = bottom;
position = "{709, -72}";
},
{
name = top.case;
position = "{688, 1475}";
}
);
background = {
paths = (
{
closed = 1;
nodes = (
"823 0 LINE",
"823 1188 LINE",
"1315 1188 LINE",
"1315 1434 LINE",
"63 1434 LINE",
"63 1188 LINE",
"555 1188 LINE",
"555 0 LINE"
);
}
);
};
layerId = "514A1583-697A-4C0A-B081-2869E94CF283";
paths = (
{
closed = 1;
nodes = (
"823 0 LINE",
"823 1198 LINE",
"1313 1198 LINE",
"1313 1434 LINE",
"61 1434 LINE",
"61 1198 LINE",
"555 1198 LINE",
"555 0 LINE"
);
}
);
width = 1374;
}
);
leftKerningGroup = T;
rightKerningGroup = T;
unicode = 0054;
},
{
color = 3;
glyphname = Tbar;
lastChange = "2020-03-07 19:16:39 +0000";
layers = (
{
components = (
{
name = T;
}
);
layerId = "620D8D18-E43F-4D11-9420-7EF908A5CAE8";
paths = (
{
closed = 1;
nodes = (
"1034 717 LINE",
"1034 791 LINE",
"281 791 LINE",
"281 717 LINE"
);
}
);
width = 1315;
},
{
components = (
{
alignment = -1;
name = T;
}
);
layerId = "514A1583-697A-4C0A-B081-2869E94CF283";
paths = (
{
closed = 1;
nodes = (
"1133 602 LINE",
"1133 782 LINE",
"244 782 LINE",
"244 602 LINE"
);
}
);
width = 1374;
},
{
components = (
{
name = T;
}
);
layerId = "5C950900-0D0F-4959-81DE-75F048290F1B";
paths = (
{
closed = 1;
nodes = (
"1223 512 LINE",
"1223 754 LINE",
"193 754 LINE",
"193 512 LINE"
);
}
);
width = 1413;
}
);
leftKerningGroup = T;
leftMetricsKey = T;
rightKerningGroup = T;
rightMetricsKey = T;
unicode = 0166;
},
{
glyphname = U;
lastChange = "2020-03-07 19:16:39 +0000";
layers = (
{
anchors = (
{
name = bottom;
position = "{750, -72}";
},
{
name = ogonek;
position = "{829, 20}";
},
{
name = top.case;
position = "{748, 1475}";
}
);
background = {
paths = (
{
closed = 1;
nodes = (
"295 0 LINE",
"295 709 LINE",
"1262 709 LINE",
"1262 0 LINE",
"1341 0 LINE",
"1341 1434 LINE",
"1262 1434 LINE",
"1262 782 LINE",
"295 782 LINE",
"295 1434 LINE",
"215 1434 LINE",
"215 0 LINE"
);
}
);
};
layerId = "620D8D18-E43F-4D11-9420-7EF908A5CAE8";
paths = (
{
closed = 1;
nodes = (
"1090 -20 OFFCURVE",
"1311 156 OFFCURVE",
"1311 561 CURVE SMOOTH",
"1311 1434 LINE",
"1235 1434 LINE",
"1235 584 LINE SMOOTH",
"1235 205 OFFCURVE",
"1059 53 OFFCURVE",
"750 53 CURVE SMOOTH",
"446 53 OFFCURVE",
"264 205 OFFCURVE",
"264 584 CURVE SMOOTH",
"264 1434 LINE",
"184 1434 LINE",
"184 561 LINE SMOOTH",
"184 154 OFFCURVE",
"410 -20 OFFCURVE",
"750 -20 CURVE SMOOTH"
);
}
);
width = 1495;
},
{
anchors = (
{
name = bottom;
position = "{776, -72}";
},
{
name = ogonek;
position = "{879, 20}";
},
{
name = top.case;
position = "{778, 1475}";
}
);
background = {
paths = (
{
closed = 1;
nodes = (
"1296 -18 OFFCURVE",
"1597 268 OFFCURVE",
"1597 715 CURVE SMOOTH",
"1597 1163 OFFCURVE",
"1315 1452 OFFCURVE",
"840 1452 CURVE SMOOTH",
"383 1452 OFFCURVE",
"82 1165 OFFCURVE",
"82 719 CURVE SMOOTH",
"82 270 OFFCURVE",
"365 -18 OFFCURVE",
"840 -18 CURVE SMOOTH"
);
},
{
closed = 1;
nodes = (
"649 401 OFFCURVE",
"547 467 OFFCURVE",
"547 715 CURVE SMOOTH",
"547 967 OFFCURVE",
"657 1032 OFFCURVE",
"840 1032 CURVE SMOOTH",
"1030 1032 OFFCURVE",
"1133 967 OFFCURVE",
"1133 719 CURVE SMOOTH",
"1133 467 OFFCURVE",
"1022 401 OFFCURVE",
"840 401 CURVE SMOOTH"
);
}
);
};
guideLines = (
{
position = "{582, 286}";
}
);
layerId = "5C950900-0D0F-4959-81DE-75F048290F1B";
paths = (
{
closed = 1;
nodes = (
"1194 -18 OFFCURVE",
"1477 217 OFFCURVE",
"1477 586 CURVE SMOOTH",
"1477 1434 LINE",
"1034 1434 LINE",
"1034 645 LINE SMOOTH",
"1034 457 OFFCURVE",
"948 406 OFFCURVE",
"791 406 CURVE SMOOTH",
"629 406 OFFCURVE",
"539 457 OFFCURVE",
"539 645 CURVE SMOOTH",
"539 1434 LINE",
"82 1434 LINE",
"82 586 LINE SMOOTH",
"82 217 OFFCURVE",
"340 -18 OFFCURVE",
"776 -18 CURVE SMOOTH"
);
}
);
width = 1559;
},
{
anchors = (
{
name = bottom;
position = "{758, -72}";
},
{
name = ogonek;
position = "{850, 20}";
},
{
name = top.case;
position = "{758, 1475}";
}
);
background = {
paths = (
{
closed = 1;
nodes = (
"1104 -20 OFFCURVE",
"1346 186 OFFCURVE",
"1346 573 CURVE SMOOTH",
"1346 1434 LINE",
"1085 1434 LINE",
"1085 616 LINE SMOOTH",
"1085 336 OFFCURVE",
"963 238 OFFCURVE",
"745 238 CURVE SMOOTH",
"530 238 OFFCURVE",
"401 336 OFFCURVE",
"401 616 CURVE SMOOTH",
"401 1434 LINE",
"133 1434 LINE",
"133 573 LINE SMOOTH",
"133 186 OFFCURVE",
"367 -20 OFFCURVE",
"739 -20 CURVE SMOOTH"
);
}
);
};
guideLines = (
{
position = "{261, 116}";
}
);
layerId = "514A1583-697A-4C0A-B081-2869E94CF283";
paths = (
{
closed = 1;
nodes = (
"1137 -20 OFFCURVE",
"1389 186 OFFCURVE",
"1389 573 CURVE SMOOTH",
"1389 1434 LINE",
"1130 1434 LINE",
"1130 618 LINE SMOOTH",
"1130 334 OFFCURVE",
"999 233 OFFCURVE",
"766 233 CURVE SMOOTH",
"532 233 OFFCURVE",
"397 334 OFFCURVE",
"397 618 CURVE SMOOTH",
"397 1434 LINE",
"129 1434 LINE",
"129 573 LINE SMOOTH",
"129 186 OFFCURVE",
"371 -20 OFFCURVE",
"758 -20 CURVE SMOOTH"
);
}
);
width = 1518;
}
);
leftKerningGroup = U;
rightKerningGroup = U;
unicode = 0055;
},
{
glyphname = Uhorn;
lastChange = "2021-02-24 21:31:33 +0000";
layers = (
{
anchors = (
{
name = bottom;
position = "{750, -72}";
},
{
name = ogonek;
position = "{829, 20}";
},
{
name = top.case;
position = "{748, 1475}";
}
);
background = {
paths = (
{
closed = 1;
nodes = (
"1640 1300 OFFCURVE",
"1769 1352 OFFCURVE",
"1769 1579 CURVE SMOOTH",
"1769 1651 OFFCURVE",
"1743 1729 OFFCURVE",
"1696 1808 CURVE",
"1831 1772 LINE",
"1575 1718 LINE",
"1669 1798 LINE",
"1683 1712 OFFCURVE",
"1696 1634 OFFCURVE",
"1696 1577 CURVE SMOOTH",
"1696 1380 OFFCURVE",
"1575 1380 OFFCURVE",
"1430 1401 CURVE",
"1430 1339 LINE"
);
}
);
};
components = (
{
name = U;
}
);
layerId = "620D8D18-E43F-4D11-9420-7EF908A5CAE8";
paths = (
{
closed = 1;
nodes = (
"1686 1327 OFFCURVE",
"1769 1397 OFFCURVE",
"1769 1579 CURVE SMOOTH",
"1769 1633.306 OFFCURVE",
"1754.209 1691.026 OFFCURVE",
"1726.771 1750.014 CURVE",
"1678.399 1739.811 LINE",
"1688.315 1677.065 OFFCURVE",
"1696 1620.826 OFFCURVE",
"1696 1577 CURVE SMOOTH",
"1696 1427 OFFCURVE",
"1626 1393 OFFCURVE",
"1530 1393 CURVE SMOOTH",
"1462 1393 OFFCURVE",
"1386 1413 OFFCURVE",
"1311 1434 CURVE",
"1296 1368 LINE",
"1384 1341 OFFCURVE",
"1468 1327 OFFCURVE",
"1544 1327 CURVE SMOOTH"
);
}
);
width = 1495;
},
{
anchors = (
{
name = bottom;
position = "{758, -72}";
},
{
name = ogonek;
position = "{850, 20}";
},
{
name = top.case;
position = "{758, 1475}";
}
);
background = {
paths = (
{
closed = 1;
nodes = (
"1782 1192 OFFCURVE",
"1894 1278 OFFCURVE",
"1894 1507 CURVE SMOOTH",
"1894 1636 OFFCURVE",
"1831 1792 OFFCURVE",
"1755 1917 CURVE",
"1958 1849 LINE",
"1542 1763 LINE",
"1604 1876 LINE",
"1628 1745 OFFCURVE",
"1640 1679 OFFCURVE",
"1640 1618 CURVE SMOOTH",
"1640 1462 OFFCURVE",
"1585 1417 OFFCURVE",
"1499 1417 CURVE SMOOTH",
"1483 1417 OFFCURVE",
"1462 1421 OFFCURVE",
"1444 1423 CURVE",
"1434 1204 LINE",
"1481 1198 OFFCURVE",
"1524 1192 OFFCURVE",
"1595 1192 CURVE SMOOTH"
);
}
);
};
components = (
{
alignment = -1;
name = U;
}
);
layerId = "514A1583-697A-4C0A-B081-2869E94CF283";
paths = (
{
closed = 1;
nodes = (
"1759 1192 OFFCURVE",
"1894 1253 OFFCURVE",
"1894 1497 CURVE SMOOTH",
"1894 1595.89 OFFCURVE",
"1862.081 1711.678 OFFCURVE",
"1810.125 1816.142 CURVE",
"1622.453 1776.442 LINE",
"1633.643 1704.108 OFFCURVE",
"1638 1641.834 OFFCURVE",
"1638 1589 CURVE SMOOTH",
"1638 1466 OFFCURVE",
"1575 1417 OFFCURVE",
"1507 1417 CURVE SMOOTH",
"1468 1417 OFFCURVE",
"1436 1423 OFFCURVE",
"1389 1434 CURVE",
"1348 1229 LINE",
"1411 1204 OFFCURVE",
"1491 1192 OFFCURVE",
"1565 1192 CURVE SMOOTH"
);
}
);
width = 1665;
},
{
anchors = (
{
name = bottom;
position = "{766, -72}";
},
{
name = ogonek;
position = "{868, 20}";
},
{
name = top.case;
position = "{768, 1475}";
}
);
background = {
paths = (
{
closed = 1;
nodes = (
"1876 1139 OFFCURVE",
"2016 1286 OFFCURVE",
"2016 1536 CURVE SMOOTH",
"2016 1686 OFFCURVE",
"1945 1833 OFFCURVE",
"1837 1983 CURVE",
"2081 1878 LINE",
"1506 1758 LINE",
"1659 1827 LINE",
"1678 1735 OFFCURVE",
"1700 1649 OFFCURVE",
"1700 1583 CURVE SMOOTH",
"1700 1418 OFFCURVE",
"1614 1401 OFFCURVE",
"1547 1401 CURVE SMOOTH",
"1540 1401 OFFCURVE",
"1534 1403 OFFCURVE",
"1530 1403 CURVE",
"1465 1147 LINE",
"1508 1143 OFFCURVE",
"1547 1139 OFFCURVE",
"1583 1139 CURVE SMOOTH"
);
}
);
};
components = (
{
name = U;
}
);
layerId = "5C950900-0D0F-4959-81DE-75F048290F1B";
paths = (
{
closed = 1;
nodes = (
"1831 1141 OFFCURVE",
"2017 1247 OFFCURVE",
"2017 1526 CURVE SMOOTH",
"2017 1638.179 OFFCURVE",
"1983.435 1743.165 OFFCURVE",
"1925.601 1846.935 CURVE",
"1668.33 1792.89 LINE",
"1684.675 1714.63 OFFCURVE",
"1702 1642.282 OFFCURVE",
"1702 1585 CURVE SMOOTH",
"1702 1462 OFFCURVE",
"1655 1419 OFFCURVE",
"1565 1421 CURVE SMOOTH",
"1536 1421 OFFCURVE",
"1503 1425 OFFCURVE",
"1466 1434 CURVE",
"1399 1171 LINE",
"1436 1153 OFFCURVE",
"1511 1141 OFFCURVE",
"1585 1141 CURVE SMOOTH"
);
}
);
width = 1833;
}
);
leftMetricsKey = U;
unicode = 01AF;
},
{
glyphname = V;
lastChange = "2020-03-07 19:38:00 +0000";
layers = (
{
background = {
paths = (
{
closed = 1;
nodes = (
"710 -10 LINE",
"1304 1434 LINE",
"1218 1434 LINE",
"663 70 LINE",
"659 70 LINE",
"104 1434 LINE",
"15 1434 LINE",
"607 -10 LINE"
);
}
);
};
guideLines = (
{
position = "{422, 23}";
}
);
layerId = "620D8D18-E43F-4D11-9420-7EF908A5CAE8";
paths = (
{
closed = 1;
nodes = (
"718 -10 LINE",
"1304 1434 LINE",
"1218 1434 LINE",
"663 47 LINE",
"659 47 LINE",
"104 1434 LINE",
"15 1434 LINE",
"599 -10 LINE"
);
}
);
width = 1319;
},
{
background = {
paths = (
{
closed = 1;
nodes = (
"1150 1434 LINE",
"855 465 LINE",
"847 465 LINE",
"552 1434 LINE",
"73 1434 LINE",
"589 0 LINE",
"1099 0 LINE",
"1619 1434 LINE"
);
},
{
closed = 1;
nodes = (
"546 1233 LINE",
"546 899 LINE",
"1152 899 LINE",
"1152 1233 LINE"
);
}
);
};
layerId = "5C950900-0D0F-4959-81DE-75F048290F1B";
paths = (
{
closed = 1;
nodes = (
"1089 0 LINE",
"1650 1434 LINE",
"1150 1434 LINE",
"853 506 LINE",
"845 506 LINE",
"532 1434 LINE",
"36 1434 LINE",
"583 0 LINE"
);
}
);
width = 1686;
},
{
background = {
paths = (
{
closed = 1;
nodes = (
"903 -6 LINE",
"1481 1434 LINE",
"1188 1434 LINE",
"762 289 LINE",
"756 289 LINE",
"322 1434 LINE",
"29 1434 LINE",
"598 -6 LINE"
);
}
);
};
layerId = "514A1583-697A-4C0A-B081-2869E94CF283";
paths = (
{
closed = 1;
nodes = (
"891 -12 LINE",
"1477 1434 LINE",
"1186 1434 LINE",
"762 334 LINE",
"756 334 LINE",
"322 1434 LINE",
"25 1434 LINE",
"608 -12 LINE"
);
}
);
width = 1502;
}
);
leftMetricsKey = "=A+5";
rightMetricsKey = "=A+5";
unicode = 0056;
},
{
glyphname = W;
lastChange = "2021-02-24 21:31:58 +0000";
layers = (
{
anchors = (
{
name = top.case;
position = "{1079, 1475}";
}
);
background = {
paths = (
{
closed = 1;
nodes = (
"647 -10 LINE",
"1077 1325 LINE",
"1096 1325 LINE",
"1055 1405 LINE",
"1501 -10 LINE",
"1573 -10 LINE",
"2079 1434 LINE",
"2001 1434 LINE",
"1542 98 LINE",
"1495 98 LINE",
"1561 27 LINE",
"1122 1434 LINE",
"1040 1434 LINE",
"610 98 LINE",
"584 98 LINE",
"637 18 LINE",
"156 1434 LINE",
"72 1434 LINE",
"573 -10 LINE"
);
}
);
};
guideLines = (
{
position = "{427, 23}";
}
);
layerId = "620D8D18-E43F-4D11-9420-7EF908A5CAE8";
paths = (
{
closed = 1;
nodes = (
"666 -10 LINE",
"1075 1374 LINE",
"1080.07 1374 LINE",
"1485 -10 LINE",
"1589 -10 LINE",
"2079 1434 LINE",
"2001 1434 LINE",
"1542 47 LINE",
"1538.243 47 LINE",
"1139 1434 LINE",
"1024 1434 LINE",
"612 47 LINE",
"608.538 47 LINE",
"156 1434 LINE",
"72 1434 LINE",
"555 -10 LINE"
);
}
);
width = 2150;
},
{
anchors = (
{
name = top.case;
position = "{1151, 1475}";
}
);
background = {
paths = (
{
closed = 1;
nodes = (
"930 0 LINE",
"1149 797 LINE",
"1188 797 LINE",
"1137 918 LINE",
"1415 0 LINE",
"1864 0 LINE",
"2324 1434 LINE",
"1866 1434 LINE",
"1624 563 LINE",
"1544 563 LINE",
"1618 547 LINE",
"1370 1434 LINE",
"979 1434 LINE",
"745 559 LINE",
"713 559 LINE",
"741 528 LINE",
"496 1434 LINE",
"20 1434 LINE",
"502 0 LINE"
);
}
);
};
guideLines = (
{
angle = 90;
position = "{562, 258}";
},
{
position = "{489, 306}";
}
);
layerId = "5C950900-0D0F-4959-81DE-75F048290F1B";
paths = (
{
closed = 1;
nodes = (
"930 0 LINE",
"1157 829 LINE",
"1163.952 829 LINE",
"1415 0 LINE",
"1864 0 LINE",
"2324 1434 LINE",
"1866 1434 LINE",
"1624 563 LINE",
"1613.526 563 LINE",
"1370 1434 LINE",
"979 1434 LINE",
"745 559 LINE",
"732.617 559 LINE",
"496 1434 LINE",
"20 1434 LINE",
"502 0 LINE"
);
}
);
width = 2324;
},
{
anchors = (
{
name = top.case;
position = "{1116, 1475}";
}
);
background = {
paths = (
{
closed = 1;
nodes = (
"819 -12 LINE",
"1124 999 LINE",
"1165 999 LINE",
"1083 1147 LINE",
"1440 -12 LINE",
"1729 -12 LINE",
"2193 1434 LINE",
"1925 1434 LINE",
"1593 373 LINE",
"1548 373 LINE",
"1612 289 LINE",
"1262 1442 LINE",
"991 1442 LINE",
"680 397 LINE",
"643 397 LINE",
"705 287 LINE",
"348 1434 LINE",
"61 1434 LINE",
"537 -12 LINE"
);
}
);
};
guideLines = (
{
position = "{527, 194}";
}
);
layerId = "514A1583-697A-4C0A-B081-2869E94CF283";
paths = (
{
closed = 1;
nodes = (
"819 -12 LINE",
"1126 1036 LINE",
"1130.754 1036 LINE",
"1440 -12 LINE",
"1729 -12 LINE",
"2193 1434 LINE",
"1925 1434 LINE",
"1593 369 LINE",
"1587.716 369 LINE",
"1262 1442 LINE",
"991 1442 LINE",
"676 352 LINE",
"672.506 352 LINE",
"348 1434 LINE",
"61 1434 LINE",
"537 -12 LINE"
);
}
);
width = 2255;
},
{
anchors = (
{
name = top.case;
position = "{1069, 1475}";
}
);
associatedMasterId = "5C950900-0D0F-4959-81DE-75F048290F1B";
background = {
paths = (
{
closed = 1;
nodes = (
"848 0 LINE",
"1067 797 LINE",
"1106 797 LINE",
"1034 918 LINE",
"1313 0 LINE",
"1761 0 LINE",
"2181 1434 LINE",
"1722 1434 LINE",
"1497 627 LINE",
"1458 627 LINE",
"1516 547 LINE",
"1268 1434 LINE",
"897 1434 LINE",
"678 627 LINE",
"645 627 LINE",
"700 528 LINE",
"455 1434 LINE",
"-20 1434 LINE",
"420 0 LINE"
);
}
);
};
guideLines = (
{
angle = 90;
position = "{522, 258}";
},
{
position = "{449, 306}";
}
);
layerId = "66F14BB0-BDB1-42B2-A6DB-4EBF702D902D";
name = "Jul 8 18, 19:44";
paths = (
{
closed = 1;
nodes = (
"965 1393 LINE",
"760 627 LINE",
"727 627 LINE",
"782 528 LINE",
"537 1434 LINE",
"61 1434 LINE",
"502 0 LINE",
"909 0 LINE",
"1149 891 LINE"
);
},
{
closed = 1;
nodes = (
"1313 0 LINE",
"1761 0 LINE",
"2181 1434 LINE",
"1722 1434 LINE",
"1497 627 LINE",
"1458 627 LINE",
"1516 547 LINE",
"1268 1434 LINE",
"877 1434 LINE"
);
}
);
width = 2243;
},
{
anchors = (
{
name = top.case;
position = "{1008, 1475}";
}
);
associatedMasterId = "514A1583-697A-4C0A-B081-2869E94CF283";
background = {
paths = (
{
closed = 1;
nodes = (
"696 -12 LINE",
"981 999 LINE",
"1022 999 LINE",
"940 1147 LINE",
"1276 -12 LINE",
"1565 -12 LINE",
"2009 1434 LINE",
"1741 1434 LINE",
"1430 373 LINE",
"1384 373 LINE",
"1448 289 LINE",
"1118 1442 LINE",
"848 1442 LINE",
"557 397 LINE",
"520 397 LINE",
"582 287 LINE",
"246 1434 LINE",
"-41 1434 LINE",
"414 -12 LINE"
);
}
);
};
guideLines = (
{
position = "{477, 194}";
}
);
layerId = "4EB94962-85DB-403C-801D-EF79D9496F57";
name = "Jul 8 18, 19:46";
paths = (
{
closed = 1;
nodes = (
"940 1405 LINE",
"659 397 LINE",
"623 397 LINE",
"684 287 LINE",
"348 1434 LINE",
"61 1434 LINE",
"516 -12 LINE",
"788 -12 LINE",
"1081 1030 LINE"
);
},
{
closed = 1;
nodes = (
"1276 -12 LINE",
"1565 -12 LINE",
"2009 1434 LINE",
"1741 1434 LINE",
"1430 373 LINE",
"1384 373 LINE",
"1448 289 LINE",
"1118 1442 LINE",
"848 1442 LINE"
);
}
);
width = 2071;
}
);
leftKerningGroup = W;
rightKerningGroup = W;
unicode = 0057;
},
{
glyphname = X;
lastChange = "2021-02-24 21:32:09 +0000";
layers = (
{
background = {
paths = (
{
closed = 1;
nodes = (
"1286 0 LINE",
"721 739 LINE",
"696 760 LINE",
"184 1434 LINE",
"82 1434 LINE",
"635 711 LINE",
"657 692 LINE",
"1188 0 LINE"
);
},
{
closed = 1;
nodes = (
"160 0 LINE",
"682 676 LINE",
"633 737 LINE",
"61 0 LINE"
);
},
{
closed = 1;
nodes = (
"1266 1434 LINE",
"1171 1434 LINE",
"655 737 LINE",
"705 676 LINE"
);
}
);
};
guideLines = (
{
angle = 90;
position = "{618, 252}";
}
);
layerId = "620D8D18-E43F-4D11-9420-7EF908A5CAE8";
paths = (
{
closed = 1;
nodes = (
"1276 0 LINE",
"723.182 720.516 LINE",
"1255 1434 LINE",
"1161 1434 LINE",
"672.808 774.562 LINE",
"166 1434 LINE",
"72 1434 LINE",
"616.931 724.117 LINE",
"51 0 LINE",
"150 0 LINE",
"664.962 671.431 LINE",
"1186 0 LINE"
);
}
);
width = 1327;
},
{
background = {
paths = (
{
closed = 1;
nodes = (
"1532 0 LINE",
"979 860 LINE",
"895 909 LINE",
"590 1434 LINE",
"51 1434 LINE",
"629 530 LINE",
"702 496 LINE",
"1032 0 LINE"
);
},
{
closed = 1;
nodes = (
"530 0 LINE",
"811 436 LINE",
"541 807 LINE",
"41 0 LINE"
);
},
{
closed = 1;
nodes = (
"1522 1434 LINE",
"1024 1434 LINE",
"772 1057 LINE",
"1028 684 LINE"
);
}
);
};
guideLines = (
{
angle = 90;
position = "{20, 329}";
},
{
angle = 90;
position = "{753, 263}";
}
);
layerId = "5C950900-0D0F-4959-81DE-75F048290F1B";
paths = (
{
closed = 1;
nodes = (
"1552 0 LINE",
"1049.141 741.782 LINE",
"1542 1434 LINE",
"1044 1434 LINE",
"794.533 1059.302 LINE",
"569 1434 LINE",
"31 1434 LINE",
"506.938 726.356 LINE",
"20 0 LINE",
"510 0 LINE",
"773.133 408.277 LINE",
"1053 0 LINE"
);
}
);
width = 1573;
},
{
background = {
paths = (
{
closed = 1;
nodes = (
"1415 0 LINE",
"840 801 LINE",
"784 836 LINE",
"369 1434 LINE",
"51 1434 LINE",
"633 621 LINE",
"682 594 LINE",
"1120 0 LINE"
);
},
{
closed = 1;
nodes = (
"330 0 LINE",
"731 557 LINE",
"594 772 LINE",
"37 0 LINE"
);
},
{
closed = 1;
nodes = (
"1399 1434 LINE",
"1104 1434 LINE",
"719 897 LINE",
"850 680 LINE"
);
}
);
};
layerId = "514A1583-697A-4C0A-B081-2869E94CF283";
paths = (
{
closed = 1;
nodes = (
"1411 0 LINE",
"881.071 729.335 LINE",
"1382 1434 LINE",
"1096 1434 LINE",
"717.571 920.827 LINE",
"352 1434 LINE",
"51 1434 LINE",
"543.64 722.603 LINE",
"41 0 LINE",
"336 0 LINE",
"714.224 527.997 LINE",
"1100 0 LINE"
);
}
);
width = 1452;
}
);
unicode = 0058;
},
{
glyphname = Y;
lastChange = "2020-03-07 19:16:39 +0000";
layers = (
{
anchors = (
{
name = bottom;
position = "{666, -72}";
},
{
name = top.case;
position = "{676, 1475}";
}
);
background = {
paths = (
{
closed = 1;
nodes = (
"1087 0 LINE",
"1087 430 LINE",
"1655 1434 LINE",
"1155 1434 LINE",
"866 840 LINE",
"858 840 LINE",
"571 1434 LINE",
"51 1434 LINE",
"631 414 LINE",
"631 0 LINE"
);
},
{
closed = 1;
nodes = (
"713 0 LINE",
"713 575 LINE",
"1294 1434 LINE",
"1200 1434 LINE",
"676 643 LINE",
"152 1434 LINE",
"51 1434 LINE",
"633 571 LINE",
"633 0 LINE"
);
}
);
};
guideLines = (
{
angle = 90;
position = "{325, 545}";
}
);
layerId = "620D8D18-E43F-4D11-9420-7EF908A5CAE8";
paths = (
{
closed = 1;
nodes = (
"713 0 LINE",
"713 573 LINE",
"1294 1434 LINE",
"1196 1434 LINE",
"680 643 LINE",
"672 643 LINE",
"152 1434 LINE",
"51 1434 LINE",
"633 569 LINE",
"633 0 LINE"
);
}
);
width = 1346;
},
{
anchors = (
{
name = bottom;
position = "{858, -72}";
},
{
name = top.case;
position = "{862, 1475}";
}
);
background = {
paths = (
{
closed = 1;
nodes = (
"1180 215 LINE",
"555 1505 LINE",
"141 1307 LINE",
"768 16 LINE"
);
}
);
};
guideLines = (
{
angle = 90;
position = "{421, 640}";
}
);
layerId = "5C950900-0D0F-4959-81DE-75F048290F1B";
paths = (
{
closed = 1;
nodes = (
"1087 0 LINE",
"1087 430 LINE",
"1655 1434 LINE",
"1155 1434 LINE",
"866 840 LINE",
"858 840 LINE",
"571 1434 LINE",
"51 1434 LINE",
"631 414 LINE",
"631 0 LINE"
);
}
);
width = 1706;
},
{
anchors = (
{
name = bottom;
position = "{758, -72}";
},
{
name = top.case;
position = "{762, 1475}";
}
);
background = {
paths = (
{
closed = 1;
nodes = (
"901 0 LINE",
"901 502 LINE",
"1475 1434 LINE",
"1176 1434 LINE",
"772 741 LINE",
"764 741 LINE",
"362 1434 LINE",
"51 1434 LINE",
"633 492 LINE",
"633 0 LINE"
);
}
);
};
guideLines = (
{
angle = 90;
position = "{370, 614}";
}
);
layerId = "514A1583-697A-4C0A-B081-2869E94CF283";
paths = (
{
closed = 1;
nodes = (
"893 0 LINE",
"893 500 LINE",
"1466 1434 LINE",
"1143 1434 LINE",
"766 764 LINE",
"758 764 LINE",
"381 1434 LINE",
"49 1434 LINE",
"625 500 LINE",
"625 0 LINE"
);
}
);
width = 1516;
}
);
leftKerningGroup = Y;
rightKerningGroup = Y;
unicode = 0059;
},
{
glyphname = Z;
lastChange = "2021-02-24 21:32:24 +0000";
layers = (
{
anchors = (
{
name = top.case;
position = "{608, 1475}";
}
);
background = {
guideLines = (
{
angle = 90;
position = "{45, 232}";
}
);
paths = (
{
closed = 1;
nodes = (
"1116 0 LINE",
"1116 420 LINE",
"543 420 LINE",
"1102 1143 LINE",
"1102 1434 LINE",
"-131 1434 LINE",
"-131 1014 LINE",
"449 1014 LINE",
"-141 246 LINE",
"-141 0 LINE"
);
}
);
};
guideLines = (
{
angle = 90;
position = "{35, 67}";
},
{
position = "{13, 664}";
}
);
layerId = "620D8D18-E43F-4D11-9420-7EF908A5CAE8";
paths = (
{
closed = 1;
nodes = (
"1167 0 LINE",
"1167 74 LINE",
"184.845 74 LINE",
"1151 1376 LINE",
"1151 1434 LINE",
"102 1434 LINE",
"102 1360 LINE",
"1047.165 1360 LINE",
"82 59 LINE",
"82 0 LINE"
);
}
);
width = 1249;
},
{
anchors = (
{
name = top.case;
position = "{705, 1475}";
}
);
background = {
guideLines = (
{
angle = 90;
position = "{634, 306}";
}
);
paths = (
{
closed = 1;
nodes = (
"1329 0 LINE",
"1329 420 LINE",
"741 420 LINE",
"1315 1090 LINE",
"1315 1434 LINE",
"82 1434 LINE",
"82 1014 LINE",
"682 1014 LINE",
"72 328 LINE",
"72 0 LINE"
);
}
);
};
layerId = "5C950900-0D0F-4959-81DE-75F048290F1B";
paths = (
{
closed = 1;
nodes = (
"1329 0 LINE",
"1329 399 LINE",
"723.915 399 LINE",
"1315 1090 LINE",
"1315 1434 LINE",
"82 1434 LINE",
"82 1034 LINE",
"699.452 1034 LINE",
"72 328 LINE",
"72 0 LINE"
);
}
);
width = 1401;
},
{
anchors = (
{
name = top.case;
position = "{657, 1475}";
}
);
background = {
paths = (
{
closed = 1;
nodes = (
"1249 0 LINE",
"1249 238 LINE",
"399 238 LINE",
"416 188 LINE",
"1233 1233 LINE",
"1233 1434 LINE",
"92 1434 LINE",
"92 1198 LINE",
"936 1198 LINE",
"911 1243 LINE",
"78 195 LINE",
"78 0 LINE"
);
}
);
};
layerId = "514A1583-697A-4C0A-B081-2869E94CF283";
paths = (
{
closed = 1;
nodes = (
"1249 0 LINE",
"1249 236 LINE",
"443.041 236 LINE",
"1235 1243 LINE",
"1235 1434 LINE",
"98 1434 LINE",
"98 1198 LINE",
"878.863 1198 LINE",
"82 182 LINE",
"82 0 LINE"
);
}
);
width = 1331;
}
);
leftKerningGroup = Z;
rightKerningGroup = Z;
unicode = 005A;
},
{
color = 4;
glyphname = a;
lastChange = "2021-02-24 21:38:24 +0000";
layers = (
{
anchors = (
{
name = bottom;
position = "{514, -72}";
},
{
name = ogonek;
position = "{895, 20}";
},
{
name = top;
position = "{522, 1126}";
}
);
background = {
paths = (
{
closed = 1;
nodes = (
"1061 80 LINE",
"1098 41 LINE",
"905 43 OFFCURVE",
"868 68 OFFCURVE",
"868 174 CURVE SMOOTH",
"868 666 LINE SMOOTH",
"868 911 OFFCURVE",
"723 1016 OFFCURVE",
"512 1016 CURVE SMOOTH",
"401 1016 OFFCURVE",
"293 991 OFFCURVE",
"195 950 CURVE SMOOTH",
"96 911 LINE",
"127 965 LINE",
"174 850 LINE",
"141 870 LINE",
"221 897 LINE SMOOTH",
"291 920 OFFCURVE",
"391 950 OFFCURVE",
"492 950 CURVE SMOOTH",
"674 950 OFFCURVE",
"797 866 OFFCURVE",
"797 657 CURVE SMOOTH",
"797 180 LINE",
"797 178 OFFCURVE",
"797 174 OFFCURVE",
"797 172 CURVE",
"797 164 LINE SMOOTH",
"797 59 OFFCURVE",
"852 -12 OFFCURVE",
"989 -12 CURVE SMOOTH",
"1022 -12 OFFCURVE",
"1051 -10 OFFCURVE",
"1079 -2 CURVE",
"1057 -51 LINE"
);
},
{
closed = 1;
nodes = (
"535 -12 OFFCURVE",
"657 25 OFFCURVE",
"750 106 CURVE SMOOTH",
"842 184 LINE",
"838 242 LINE",
"721 158 LINE SMOOTH",
"633 94 OFFCURVE",
"547 55 OFFCURVE",
"461 55 CURVE SMOOTH",
"291 55 OFFCURVE",
"176 131 OFFCURVE",
"176 262 CURVE SMOOTH",
"176 365 OFFCURVE",
"223 430 OFFCURVE",
"381 471 CURVE SMOOTH",
"844 594 LINE",
"844 657 LINE",
"365 535 LINE SMOOTH",
"199 492 OFFCURVE",
"102 420 OFFCURVE",
"102 258 CURVE SMOOTH",
"102 74 OFFCURVE",
"270 -12 OFFCURVE",
"434 -12 CURVE SMOOTH"
);
}
);
};
guideLines = (
{
angle = 90;
position = "{77, 184}";
},
{
angle = 90;
position = "{512, -54}";
}
);
layerId = "620D8D18-E43F-4D11-9420-7EF908A5CAE8";
paths = (
{
closed = 1;
nodes = (
"535 -12 OFFCURVE",
"656 26 OFFCURVE",
"750 106 CURVE SMOOTH",
"797.546 146.31 LINE",
"803.565 51.105 OFFCURVE",
"859.842 -12 OFFCURVE",
"989 -12 CURVE SMOOTH",
"1022 -12 OFFCURVE",
"1051 -10 OFFCURVE",
"1057 -6 CURVE",
"1059.223 41.794 LINE",
"899.935 46.956 OFFCURVE",
"868 75.523 OFFCURVE",
"868 174 CURVE SMOOTH",
"868 666 LINE SMOOTH",
"868 911 OFFCURVE",
"723 1016 OFFCURVE",
"512 1016 CURVE SMOOTH",
"401 1016 OFFCURVE",
"293 992 OFFCURVE",
"195 946 CURVE SMOOTH",
"146.08 923.022 LINE",
"163.455 877.579 LINE",
"221 897 LINE SMOOTH",
"291 921 OFFCURVE",
"391 950 OFFCURVE",
"492 950 CURVE SMOOTH",
"674 950 OFFCURVE",
"797 866 OFFCURVE",
"797 657 CURVE SMOOTH",
"797 645.029 LINE",
"365 535 LINE SMOOTH",
"199 493 OFFCURVE",
"102 420 OFFCURVE",
"102 258 CURVE SMOOTH",
"102 74 OFFCURVE",
"270 -12 OFFCURVE",
"434 -12 CURVE SMOOTH"
);
},
{
closed = 1;
nodes = (
"291 55 OFFCURVE",
"176 131 OFFCURVE",
"176 262 CURVE SMOOTH",
"176 365 OFFCURVE",
"223 429 OFFCURVE",
"381 471 CURVE SMOOTH",
"797 581.514 LINE",
"797 212.564 LINE",
"721 158 LINE SMOOTH",
"633 95 OFFCURVE",
"547 55 OFFCURVE",
"461 55 CURVE SMOOTH"
);
}
);
width = 1069;
},
{
anchors = (
{
name = bottom;
position = "{621, -72}";
},
{
name = ogonek;
position = "{950, 20}";
},
{
name = top;
position = "{590, 1126}";
}
);
background = {
paths = (
{
closed = 1;
nodes = (
"1225 389 LINE",
"1274 266 LINE",
"1143 285 OFFCURVE",
"1100 301 OFFCURVE",
"1100 369 CURVE SMOOTH",
"1100 655 LINE SMOOTH",
"1100 938 OFFCURVE",
"899 1096 OFFCURVE",
"588 1096 CURVE SMOOTH",
"451 1096 OFFCURVE",
"311 1063 OFFCURVE",
"180 1016 CURVE SMOOTH",
"-172 891 LINE",
"76 1096 LINE",
"180 633 LINE",
"55 705 LINE",
"221 735 LINE SMOOTH",
"313 752 OFFCURVE",
"403 760 OFFCURVE",
"487 760 CURVE SMOOTH",
"596 760 OFFCURVE",
"659 739 OFFCURVE",
"659 657 CURVE SMOOTH",
"659 336 LINE SMOOTH",
"659 311 OFFCURVE",
"664 289 OFFCURVE",
"668 266 CURVE",
"688 246 LINE",
"719 94 OFFCURVE",
"827 -18 OFFCURVE",
"1057 -18 CURVE SMOOTH",
"1108 -18 OFFCURVE",
"1217 12 OFFCURVE",
"1264 35 CURVE",
"1171 -92 LINE"
);
},
{
closed = 1;
nodes = (
"512 -18 OFFCURVE",
"641 55 OFFCURVE",
"743 150 CURVE",
"676 322 LINE",
"604 289 OFFCURVE",
"551 272 OFFCURVE",
"506 272 CURVE SMOOTH",
"461 272 OFFCURVE",
"428 297 OFFCURVE",
"428 346 CURVE SMOOTH",
"428 383 OFFCURVE",
"442 414 OFFCURVE",
"512 430 CURVE SMOOTH",
"670 469 LINE",
"672 672 LINE",
"371 602 LINE SMOOTH",
"119 545 OFFCURVE",
"16 465 OFFCURVE",
"16 283 CURVE SMOOTH",
"16 70 OFFCURVE",
"190 -18 OFFCURVE",
"367 -18 CURVE SMOOTH"
);
}
);
};
guideLines = (
{
angle = 90;
position = "{592, -61}";
}
);
layerId = "5C950900-0D0F-4959-81DE-75F048290F1B";
paths = (
{
closed = 1;
nodes = (
"467 -18 OFFCURVE",
"588 23 OFFCURVE",
"682 104 CURVE SMOOTH",
"725.643 141.951 LINE",
"779.668 45.583 OFFCURVE",
"884 -17 OFFCURVE",
"1057 -17 CURVE SMOOTH",
"1087 -17 OFFCURVE",
"1137 -7 OFFCURVE",
"1182 6 CURVE",
"1212.426 276.119 LINE",
"1129.117 292.299 OFFCURVE",
"1100 313.044 OFFCURVE",
"1100 369 CURVE SMOOTH",
"1100 655 LINE SMOOTH",
"1100 938 OFFCURVE",
"899 1096 OFFCURVE",
"588 1096 CURVE SMOOTH",
"451 1096 OFFCURVE",
"311 1063 OFFCURVE",
"180 1016 CURVE SMOOTH",
"100.325 987.706 LINE",
"159.582 723.9 LINE",
"221 735 LINE SMOOTH",
"313 752 OFFCURVE",
"403 760 OFFCURVE",
"487 760 CURVE SMOOTH",
"618 760 OFFCURVE",
"665 728 OFFCURVE",
"659 673 CURVE SMOOTH",
"658.528 668.867 LINE",
"371 602 LINE SMOOTH",
"119 543 OFFCURVE",
"16 465 OFFCURVE",
"16 283 CURVE SMOOTH",
"16 70 OFFCURVE",
"190 -18 OFFCURVE",
"367 -18 CURVE SMOOTH"
);
},
{
closed = 1;
nodes = (
"461 272 OFFCURVE",
"428 297 OFFCURVE",
"428 346 CURVE SMOOTH",
"428 383 OFFCURVE",
"442 413 OFFCURVE",
"512 430 CURVE SMOOTH",
"659 466.285 LINE",
"659 317.038 LINE",
"625 301 LINE SMOOTH",
"582 281 OFFCURVE",
"539 272 OFFCURVE",
"506 272 CURVE SMOOTH"
);
}
);
width = 1233;
},
{
associatedMasterId = "5C950900-0D0F-4959-81DE-75F048290F1B";
background = {
paths = (
{
closed = 1;
nodes = (
"649 141 OFFCURVE",
"760 -20 OFFCURVE",
"1040 -20 CURVE SMOOTH",
"1112 -20 OFFCURVE",
"1202 -8 OFFCURVE",
"1247 20 CURVE",
"1171 -92 LINE",
"1217 389 LINE",
"1370 293 LINE",
"1163 291 OFFCURVE",
"1094 313 OFFCURVE",
"1094 358 CURVE SMOOTH",
"1094 696 LINE SMOOTH",
"1094 950 OFFCURVE",
"930 1096 OFFCURVE",
"635 1096 CURVE SMOOTH",
"383 1096 OFFCURVE",
"121 993 OFFCURVE",
"-66 887 CURVE",
"106 1028 LINE",
"201 582 LINE",
"33 662 LINE",
"201 709 OFFCURVE",
"350 739 OFFCURVE",
"473 739 CURVE SMOOTH",
"592 739 OFFCURVE",
"649 719 OFFCURVE",
"649 637 CURVE SMOOTH",
"649 336 LINE SMOOTH"
);
},
{
closed = 1;
nodes = (
"659 326 LINE",
"610 293 OFFCURVE",
"557 274 OFFCURVE",
"514 274 CURVE SMOOTH",
"471 274 OFFCURVE",
"440 295 OFFCURVE",
"440 338 CURVE SMOOTH",
"440 371 OFFCURVE",
"455 393 OFFCURVE",
"520 412 CURVE SMOOTH",
"672 453 LINE",
"674 649 LINE",
"379 590 LINE SMOOTH",
"129 541 OFFCURVE",
"31 451 OFFCURVE",
"31 270 CURVE SMOOTH",
"31 63 OFFCURVE",
"201 -18 OFFCURVE",
"375 -18 CURVE SMOOTH",
"508 -18 OFFCURVE",
"625 35 OFFCURVE",
"725 150 CURVE"
);
}
);
};
layerId = "8E5AF51A-A27B-443A-9AC1-ED177E22C5AB";
name = "Mar 2 18, 13:36";
paths = (
{
closed = 1;
nodes = (
"649 141 OFFCURVE",
"760 -20 OFFCURVE",
"1040 -20 CURVE SMOOTH",
"1112 -20 OFFCURVE",
"1202 -8 OFFCURVE",
"1247 20 CURVE",
"1171 -92 LINE",
"1217 389 LINE",
"1370 293 LINE",
"1163 291 OFFCURVE",
"1094 313 OFFCURVE",
"1094 358 CURVE SMOOTH",
"1094 696 LINE SMOOTH",
"1094 950 OFFCURVE",
"930 1096 OFFCURVE",
"635 1096 CURVE SMOOTH",
"500 1096 OFFCURVE",
"350 1063 OFFCURVE",
"270 1034 CURVE SMOOTH",
"186 1006 OFFCURVE",
"109 913 OFFCURVE",
"143 752 CURVE SMOOTH",
"180 582 LINE",
"33 662 LINE",
"201 709 OFFCURVE",
"350 739 OFFCURVE",
"473 739 CURVE SMOOTH",
"592 739 OFFCURVE",
"649 719 OFFCURVE",
"649 637 CURVE SMOOTH",
"649 336 LINE SMOOTH"
);
},
{
closed = 1;
nodes = (
"659 326 LINE",
"610 293 OFFCURVE",
"557 274 OFFCURVE",
"514 274 CURVE SMOOTH",
"471 274 OFFCURVE",
"440 295 OFFCURVE",
"440 338 CURVE SMOOTH",
"440 371 OFFCURVE",
"455 393 OFFCURVE",
"520 412 CURVE SMOOTH",
"672 453 LINE",
"674 649 LINE",
"379 590 LINE SMOOTH",
"129 541 OFFCURVE",
"31 451 OFFCURVE",
"31 270 CURVE SMOOTH",
"31 63 OFFCURVE",
"201 -18 OFFCURVE",
"375 -18 CURVE SMOOTH",
"508 -18 OFFCURVE",
"625 35 OFFCURVE",
"725 150 CURVE"
);
}
);
width = 1223;
},
{
associatedMasterId = "5C950900-0D0F-4959-81DE-75F048290F1B";
background = {
paths = (
{
closed = 1;
nodes = (
"1110 322 OFFCURVE",
"1090 344 OFFCURVE",
"1090 403 CURVE SMOOTH",
"1090 629 LINE SMOOTH",
"1090 926 OFFCURVE",
"903 1096 OFFCURVE",
"596 1096 CURVE SMOOTH",
"401 1096 OFFCURVE",
"229 1028 OFFCURVE",
"78 944 CURVE",
"201 666 LINE",
"313 711 OFFCURVE",
"414 739 OFFCURVE",
"500 739 CURVE SMOOTH",
"580 739 OFFCURVE",
"623 717 OFFCURVE",
"639 666 CURVE",
"375 606 LINE SMOOTH",
"129 551 OFFCURVE",
"27 463 OFFCURVE",
"27 279 CURVE SMOOTH",
"27 66 OFFCURVE",
"197 -18 OFFCURVE",
"371 -18 CURVE SMOOTH",
"502 -18 OFFCURVE",
"610 27 OFFCURVE",
"705 125 CURVE",
"772 27 OFFCURVE",
"885 -20 OFFCURVE",
"1036 -20 CURVE SMOOTH",
"1087 -20 OFFCURVE",
"1149 -14 OFFCURVE",
"1196 0 CURVE",
"1227 332 LINE",
"1202 324 OFFCURVE",
"1178 322 OFFCURVE",
"1157 322 CURVE SMOOTH"
);
},
{
closed = 1;
nodes = (
"436 387 OFFCURVE",
"455 410 OFFCURVE",
"516 428 CURVE SMOOTH",
"645 467 LINE",
"645 336 LINE",
"600 307 OFFCURVE",
"551 291 OFFCURVE",
"510 291 CURVE SMOOTH",
"467 291 OFFCURVE",
"436 311 OFFCURVE",
"436 354 CURVE SMOOTH"
);
}
);
};
layerId = "367CDCB9-A811-4795-AA2F-659DEFEB3A5F";
name = "Mar 9 18, 21:40";
paths = (
{
closed = 1;
nodes = (
"649 311 OFFCURVE",
"651 289 OFFCURVE",
"655 266 CURVE",
"676 246 LINE",
"707 94 OFFCURVE",
"817 -18 OFFCURVE",
"1047 -18 CURVE SMOOTH",
"1098 -18 OFFCURVE",
"1206 12 OFFCURVE",
"1255 35 CURVE",
"1171 -92 LINE",
"1217 389 LINE",
"1343 309 LINE",
"1266 301 OFFCURVE",
"1221 295 OFFCURVE",
"1178 295 CURVE SMOOTH",
"1106 295 OFFCURVE",
"1094 330 OFFCURVE",
"1094 358 CURVE SMOOTH",
"1094 696 LINE SMOOTH",
"1094 950 OFFCURVE",
"918 1096 OFFCURVE",
"600 1096 CURVE SMOOTH",
"328 1096 OFFCURVE",
"45 967 OFFCURVE",
"-156 834 CURVE",
"88 1096 LINE",
"201 582 LINE",
"-16 676 LINE",
"166 715 OFFCURVE",
"328 739 OFFCURVE",
"459 739 CURVE SMOOTH",
"588 739 OFFCURVE",
"649 719 OFFCURVE",
"649 637 CURVE SMOOTH",
"649 336 LINE SMOOTH"
);
},
{
closed = 1;
nodes = (
"659 317 LINE",
"610 291 OFFCURVE",
"557 274 OFFCURVE",
"514 274 CURVE SMOOTH",
"471 274 OFFCURVE",
"440 295 OFFCURVE",
"440 338 CURVE SMOOTH",
"440 371 OFFCURVE",
"457 389 OFFCURVE",
"520 412 CURVE SMOOTH",
"672 463 LINE",
"674 633 LINE",
"379 582 LINE SMOOTH",
"129 539 OFFCURVE",
"31 451 OFFCURVE",
"31 270 CURVE SMOOTH",
"31 63 OFFCURVE",
"201 -18 OFFCURVE",
"375 -18 CURVE SMOOTH",
"522 -18 OFFCURVE",
"651 55 OFFCURVE",
"762 150 CURVE"
);
}
);
width = 1223;
},
{
associatedMasterId = "5C950900-0D0F-4959-81DE-75F048290F1B";
background = {
paths = (
{
closed = 1;
nodes = (
"649 311 OFFCURVE",
"651 289 OFFCURVE",
"655 266 CURVE",
"676 246 LINE",
"707 94 OFFCURVE",
"817 -18 OFFCURVE",
"1047 -18 CURVE SMOOTH",
"1098 -18 OFFCURVE",
"1206 12 OFFCURVE",
"1255 35 CURVE",
"1171 -92 LINE",
"1217 389 LINE",
"1343 309 LINE",
"1266 301 OFFCURVE",
"1221 295 OFFCURVE",
"1178 295 CURVE SMOOTH",
"1106 295 OFFCURVE",
"1094 330 OFFCURVE",
"1094 358 CURVE SMOOTH",
"1094 655 LINE SMOOTH",
"1094 944 OFFCURVE",
"920 1096 OFFCURVE",
"616 1096 CURVE SMOOTH",
"244 1096 OFFCURVE",
"-72 895 OFFCURVE",
"-293 686 CURVE",
"88 1096 LINE",
"201 582 LINE",
"-16 655 LINE",
"166 707 OFFCURVE",
"328 739 OFFCURVE",
"483 739 CURVE SMOOTH",
"588 739 OFFCURVE",
"649 719 OFFCURVE",
"649 637 CURVE SMOOTH",
"649 336 LINE SMOOTH"
);
},
{
closed = 1;
nodes = (
"659 317 LINE",
"610 291 OFFCURVE",
"557 274 OFFCURVE",
"514 274 CURVE SMOOTH",
"471 274 OFFCURVE",
"440 299 OFFCURVE",
"440 348 CURVE SMOOTH",
"440 385 OFFCURVE",
"453 414 OFFCURVE",
"520 432 CURVE SMOOTH",
"672 471 LINE",
"674 641 LINE",
"379 571 LINE SMOOTH",
"131 512 OFFCURVE",
"31 442 OFFCURVE",
"31 266 CURVE SMOOTH",
"31 61 OFFCURVE",
"201 -18 OFFCURVE",
"375 -18 CURVE SMOOTH",
"522 -18 OFFCURVE",
"651 55 OFFCURVE",
"762 150 CURVE"
);
}
);
};
layerId = "2566D14B-478B-4FE6-843D-A24B43E42469";
name = "Mar 11 18, 17:41";
paths = (
{
closed = 1;
nodes = (
"649 311 OFFCURVE",
"651 289 OFFCURVE",
"655 266 CURVE",
"676 246 LINE",
"707 94 OFFCURVE",
"817 -18 OFFCURVE",
"1047 -18 CURVE SMOOTH",
"1098 -18 OFFCURVE",
"1206 12 OFFCURVE",
"1255 35 CURVE",
"1171 -92 LINE",
"1217 389 LINE",
"1343 309 LINE",
"1266 301 OFFCURVE",
"1221 295 OFFCURVE",
"1178 295 CURVE SMOOTH",
"1106 295 OFFCURVE",
"1094 330 OFFCURVE",
"1094 358 CURVE SMOOTH",
"1094 655 LINE SMOOTH",
"1094 944 OFFCURVE",
"920 1096 OFFCURVE",
"616 1096 CURVE SMOOTH",
"244 1096 OFFCURVE",
"-72 895 OFFCURVE",
"-293 686 CURVE",
"88 1096 LINE",
"201 582 LINE",
"-16 655 LINE",
"166 707 OFFCURVE",
"328 739 OFFCURVE",
"483 739 CURVE SMOOTH",
"588 739 OFFCURVE",
"649 719 OFFCURVE",
"649 637 CURVE SMOOTH",
"649 336 LINE SMOOTH"
);
},
{
closed = 1;
nodes = (
"651 344 LINE",
"606 313 OFFCURVE",
"555 291 OFFCURVE",
"512 287 CURVE SMOOTH",
"469 283 OFFCURVE",
"436 303 OFFCURVE",
"430 352 CURVE SMOOTH",
"426 389 OFFCURVE",
"436 420 OFFCURVE",
"502 444 CURVE SMOOTH",
"707 522 LINE",
"690 690 LINE",
"346 567 LINE SMOOTH",
"106 481 OFFCURVE",
"14 403 OFFCURVE",
"33 227 CURVE SMOOTH",
"53 25 OFFCURVE",
"231 -37 OFFCURVE",
"403 -18 CURVE SMOOTH",
"551 -2 OFFCURVE",
"672 84 OFFCURVE",
"772 188 CURVE"
);
}
);
width = 1223;
},
{
associatedMasterId = "5C950900-0D0F-4959-81DE-75F048290F1B";
background = {
paths = (
{
closed = 1;
nodes = (
"649 311 OFFCURVE",
"651 289 OFFCURVE",
"655 266 CURVE",
"676 246 LINE",
"707 94 OFFCURVE",
"817 -18 OFFCURVE",
"1047 -18 CURVE SMOOTH",
"1098 -18 OFFCURVE",
"1206 12 OFFCURVE",
"1255 35 CURVE",
"1171 -92 LINE",
"1217 389 LINE",
"1343 309 LINE",
"1266 301 OFFCURVE",
"1221 295 OFFCURVE",
"1178 295 CURVE SMOOTH",
"1106 295 OFFCURVE",
"1094 330 OFFCURVE",
"1094 358 CURVE SMOOTH",
"1094 655 LINE SMOOTH",
"1094 944 OFFCURVE",
"920 1096 OFFCURVE",
"616 1096 CURVE SMOOTH",
"244 1096 OFFCURVE",
"-72 895 OFFCURVE",
"-293 686 CURVE",
"88 1096 LINE",
"201 582 LINE",
"-16 655 LINE",
"166 707 OFFCURVE",
"328 739 OFFCURVE",
"483 739 CURVE SMOOTH",
"588 739 OFFCURVE",
"649 719 OFFCURVE",
"649 637 CURVE SMOOTH",
"649 336 LINE SMOOTH"
);
},
{
closed = 1;
nodes = (
"659 317 LINE",
"610 291 OFFCURVE",
"557 274 OFFCURVE",
"514 274 CURVE SMOOTH",
"471 274 OFFCURVE",
"440 299 OFFCURVE",
"440 348 CURVE SMOOTH",
"440 385 OFFCURVE",
"453 414 OFFCURVE",
"520 432 CURVE SMOOTH",
"672 471 LINE",
"674 641 LINE",
"379 571 LINE SMOOTH",
"131 512 OFFCURVE",
"31 442 OFFCURVE",
"31 266 CURVE SMOOTH",
"31 61 OFFCURVE",
"201 -18 OFFCURVE",
"375 -18 CURVE SMOOTH",
"522 -18 OFFCURVE",
"651 55 OFFCURVE",
"762 150 CURVE"
);
}
);
};
layerId = "37D52441-0D78-459B-806A-C19F8EE0A659";
name = "Mar 12 18, 14:55";
paths = (
{
closed = 1;
nodes = (
"649 311 OFFCURVE",
"651 289 OFFCURVE",
"655 266 CURVE",
"676 246 LINE",
"707 94 OFFCURVE",
"817 -18 OFFCURVE",
"1047 -18 CURVE SMOOTH",
"1098 -18 OFFCURVE",
"1206 12 OFFCURVE",
"1255 35 CURVE",
"1171 -92 LINE",
"1217 389 LINE",
"1343 309 LINE",
"1266 301 OFFCURVE",
"1221 295 OFFCURVE",
"1178 295 CURVE SMOOTH",
"1106 295 OFFCURVE",
"1094 330 OFFCURVE",
"1094 358 CURVE SMOOTH",
"1094 655 LINE SMOOTH",
"1094 944 OFFCURVE",
"920 1096 OFFCURVE",
"616 1096 CURVE SMOOTH",
"244 1096 OFFCURVE",
"-72 920 OFFCURVE",
"-293 735 CURVE",
"88 1096 LINE",
"147 625 LINE",
"-16 698 LINE",
"166 723 OFFCURVE",
"328 739 OFFCURVE",
"483 739 CURVE SMOOTH",
"588 739 OFFCURVE",
"649 719 OFFCURVE",
"649 637 CURVE SMOOTH",
"649 336 LINE SMOOTH"
);
},
{
closed = 1;
nodes = (
"659 317 LINE",
"610 291 OFFCURVE",
"557 274 OFFCURVE",
"514 274 CURVE SMOOTH",
"471 274 OFFCURVE",
"440 299 OFFCURVE",
"440 348 CURVE SMOOTH",
"440 385 OFFCURVE",
"453 414 OFFCURVE",
"520 432 CURVE SMOOTH",
"672 471 LINE",
"674 641 LINE",
"379 571 LINE SMOOTH",
"131 512 OFFCURVE",
"31 442 OFFCURVE",
"31 266 CURVE SMOOTH",
"31 61 OFFCURVE",
"201 -18 OFFCURVE",
"375 -18 CURVE SMOOTH",
"522 -18 OFFCURVE",
"651 55 OFFCURVE",
"762 150 CURVE"
);
}
);
width = 1223;
},
{
associatedMasterId = "5C950900-0D0F-4959-81DE-75F048290F1B";
background = {
paths = (
{
closed = 1;
nodes = (
"649 311 OFFCURVE",
"651 289 OFFCURVE",
"655 266 CURVE",
"676 246 LINE",
"707 94 OFFCURVE",
"817 -18 OFFCURVE",
"1047 -18 CURVE SMOOTH",
"1098 -18 OFFCURVE",
"1206 12 OFFCURVE",
"1255 35 CURVE",
"1171 -92 LINE",
"1217 389 LINE",
"1343 309 LINE",
"1266 301 OFFCURVE",
"1221 295 OFFCURVE",
"1178 295 CURVE SMOOTH",
"1106 295 OFFCURVE",
"1094 330 OFFCURVE",
"1094 358 CURVE SMOOTH",
"1094 655 LINE SMOOTH",
"1094 944 OFFCURVE",
"920 1096 OFFCURVE",
"616 1096 CURVE SMOOTH",
"244 1096 OFFCURVE",
"-72 895 OFFCURVE",
"-293 686 CURVE",
"88 1096 LINE",
"201 582 LINE",
"-16 655 LINE",
"166 707 OFFCURVE",
"328 739 OFFCURVE",
"483 739 CURVE SMOOTH",
"588 739 OFFCURVE",
"649 719 OFFCURVE",
"649 637 CURVE SMOOTH",
"649 336 LINE SMOOTH"
);
},
{
closed = 1;
nodes = (
"659 317 LINE",
"610 291 OFFCURVE",
"557 274 OFFCURVE",
"514 274 CURVE SMOOTH",
"471 274 OFFCURVE",
"440 299 OFFCURVE",
"440 348 CURVE SMOOTH",
"440 385 OFFCURVE",
"453 414 OFFCURVE",
"520 432 CURVE SMOOTH",
"672 471 LINE",
"674 641 LINE",
"379 571 LINE SMOOTH",
"131 512 OFFCURVE",
"31 442 OFFCURVE",
"31 266 CURVE SMOOTH",
"31 61 OFFCURVE",
"201 -18 OFFCURVE",
"375 -18 CURVE SMOOTH",
"522 -18 OFFCURVE",
"651 55 OFFCURVE",
"762 150 CURVE"
);
}
);
};
layerId = "0BA56532-7AF4-4B5E-BD0D-3B6415B19D8E";
name = "Mar 13 18, 18:20";
paths = (
{
closed = 1;
nodes = (
"1217 389 LINE",
"1343 309 LINE",
"1266 301 OFFCURVE",
"1221 295 OFFCURVE",
"1178 295 CURVE SMOOTH",
"1106 295 OFFCURVE",
"1094 330 OFFCURVE",
"1094 358 CURVE SMOOTH",
"1094 655 LINE SMOOTH",
"1094 944 OFFCURVE",
"920 1096 OFFCURVE",
"616 1096 CURVE SMOOTH",
"244 1096 OFFCURVE",
"-72 895 OFFCURVE",
"-293 686 CURVE",
"88 1096 LINE",
"201 582 LINE",
"-16 655 LINE",
"166 707 OFFCURVE",
"328 739 OFFCURVE",
"483 739 CURVE SMOOTH",
"588 739 OFFCURVE",
"649 719 OFFCURVE",
"649 637 CURVE SMOOTH",
"649 336 LINE SMOOTH",
"649 311 OFFCURVE",
"651 289 OFFCURVE",
"655 266 CURVE",
"676 246 LINE",
"707 94 OFFCURVE",
"817 -18 OFFCURVE",
"1047 -18 CURVE SMOOTH",
"1098 -18 OFFCURVE",
"1206 12 OFFCURVE",
"1255 35 CURVE",
"1171 -92 LINE"
);
},
{
closed = 1;
nodes = (
"522 -18 OFFCURVE",
"651 55 OFFCURVE",
"762 150 CURVE",
"659 317 LINE",
"610 291 OFFCURVE",
"557 274 OFFCURVE",
"514 274 CURVE SMOOTH",
"471 274 OFFCURVE",
"440 299 OFFCURVE",
"440 348 CURVE SMOOTH",
"440 385 OFFCURVE",
"453 414 OFFCURVE",
"520 432 CURVE SMOOTH",
"672 471 LINE",
"674 641 LINE",
"379 571 LINE SMOOTH",
"131 512 OFFCURVE",
"31 442 OFFCURVE",
"31 266 CURVE SMOOTH",
"31 61 OFFCURVE",
"201 -18 OFFCURVE",
"375 -18 CURVE SMOOTH"
);
}
);
width = 1223;
},
{
associatedMasterId = "5C950900-0D0F-4959-81DE-75F048290F1B";
background = {
paths = (
{
closed = 1;
nodes = (
"1239 389 LINE",
"1368 309 LINE",
"1288 301 OFFCURVE",
"1243 295 OFFCURVE",
"1200 295 CURVE SMOOTH",
"1126 295 OFFCURVE",
"1114 330 OFFCURVE",
"1114 358 CURVE SMOOTH",
"1114 655 LINE SMOOTH",
"1114 944 OFFCURVE",
"936 1096 OFFCURVE",
"627 1096 CURVE SMOOTH",
"467 1096 OFFCURVE",
"311 1057 OFFCURVE",
"178 1001 CURVE SMOOTH",
"-158 864 LINE",
"90 1096 LINE",
"195 633 LINE",
"70 684 LINE",
"236 715 LINE SMOOTH",
"328 731 OFFCURVE",
"418 739 OFFCURVE",
"502 739 CURVE SMOOTH",
"610 739 OFFCURVE",
"674 719 OFFCURVE",
"674 637 CURVE SMOOTH",
"674 336 LINE SMOOTH",
"674 311 OFFCURVE",
"678 289 OFFCURVE",
"682 266 CURVE",
"702 246 LINE",
"733 94 OFFCURVE",
"842 -18 OFFCURVE",
"1071 -18 CURVE SMOOTH",
"1122 -18 OFFCURVE",
"1231 12 OFFCURVE",
"1278 35 CURVE",
"1186 -92 LINE"
);
},
{
closed = 1;
nodes = (
"526 -18 OFFCURVE",
"655 55 OFFCURVE",
"758 150 CURVE",
"690 324 LINE",
"618 291 OFFCURVE",
"565 274 OFFCURVE",
"520 274 CURVE SMOOTH",
"475 274 OFFCURVE",
"442 299 OFFCURVE",
"442 348 CURVE SMOOTH",
"442 385 OFFCURVE",
"457 414 OFFCURVE",
"526 432 CURVE SMOOTH",
"684 471 LINE",
"686 662 LINE",
"385 592 LINE SMOOTH",
"133 532 OFFCURVE",
"31 459 OFFCURVE",
"31 276 CURVE SMOOTH",
"31 63 OFFCURVE",
"205 -18 OFFCURVE",
"381 -18 CURVE SMOOTH"
);
}
);
};
layerId = "DF06E098-D1D6-4C45-86B7-7FEEE28D71A1";
name = "Mar 18 18, 13:31";
paths = (
{
closed = 1;
nodes = (
"1239 389 LINE",
"1368 309 LINE",
"1288 301 OFFCURVE",
"1243 295 OFFCURVE",
"1200 295 CURVE SMOOTH",
"1126 295 OFFCURVE",
"1114 330 OFFCURVE",
"1114 358 CURVE SMOOTH",
"1114 655 LINE SMOOTH",
"1114 944 OFFCURVE",
"918 1096 OFFCURVE",
"575 1096 CURVE SMOOTH",
"416 1096 OFFCURVE",
"258 1034 OFFCURVE",
"125 952 CURVE SMOOTH",
"-23 858 LINE",
"104 1001 LINE",
"195 633 LINE",
"70 684 LINE",
"236 715 LINE SMOOTH",
"328 731 OFFCURVE",
"418 739 OFFCURVE",
"502 739 CURVE SMOOTH",
"610 739 OFFCURVE",
"674 719 OFFCURVE",
"674 637 CURVE SMOOTH",
"674 336 LINE SMOOTH",
"674 311 OFFCURVE",
"678 289 OFFCURVE",
"682 266 CURVE",
"702 246 LINE",
"733 94 OFFCURVE",
"842 -18 OFFCURVE",
"1071 -18 CURVE SMOOTH",
"1122 -18 OFFCURVE",
"1231 12 OFFCURVE",
"1278 35 CURVE",
"1186 -92 LINE"
);
},
{
closed = 1;
nodes = (
"526 -18 OFFCURVE",
"655 55 OFFCURVE",
"758 150 CURVE",
"690 324 LINE",
"618 291 OFFCURVE",
"565 274 OFFCURVE",
"520 274 CURVE SMOOTH",
"475 274 OFFCURVE",
"442 299 OFFCURVE",
"442 348 CURVE SMOOTH",
"442 385 OFFCURVE",
"457 414 OFFCURVE",
"526 432 CURVE SMOOTH",
"684 471 LINE",
"686 662 LINE",
"385 592 LINE SMOOTH",
"133 532 OFFCURVE",
"31 459 OFFCURVE",
"31 276 CURVE SMOOTH",
"31 63 OFFCURVE",
"205 -18 OFFCURVE",
"381 -18 CURVE SMOOTH"
);
}
);
width = 1247;
},
{
anchors = (
{
name = bottom;
position = "{553, -72}";
},
{
name = ogonek;
position = "{936, 20}";
},
{
name = top;
position = "{549, 1126}";
}
);
background = {
paths = (
{
closed = 1;
nodes = (
"1143 236 LINE",
"1186 154 LINE",
"1024 164 OFFCURVE",
"985 184 OFFCURVE",
"985 272 CURVE SMOOTH",
"985 662 LINE SMOOTH",
"985 926 OFFCURVE",
"811 1057 OFFCURVE",
"551 1057 CURVE SMOOTH",
"426 1057 OFFCURVE",
"303 1028 OFFCURVE",
"188 983 CURVE SMOOTH",
"-39 901 LINE",
"102 1030 LINE",
"178 741 LINE",
"98 788 LINE",
"221 817 LINE SMOOTH",
"303 836 OFFCURVE",
"397 856 OFFCURVE",
"489 856 CURVE SMOOTH",
"635 856 OFFCURVE",
"729 803 OFFCURVE",
"729 657 CURVE SMOOTH",
"729 258 LINE",
"729 246 OFFCURVE",
"731 231 OFFCURVE",
"733 219 CURVE",
"743 205 LINE SMOOTH",
"758 78 OFFCURVE",
"840 -16 OFFCURVE",
"1024 -16 CURVE SMOOTH",
"1065 -16 OFFCURVE",
"1135 2 OFFCURVE",
"1171 16 CURVE",
"1114 -72 LINE"
);
},
{
closed = 1;
nodes = (
"502 -16 OFFCURVE",
"623 25 OFFCURVE",
"717 106 CURVE SMOOTH",
"809 184 LINE",
"758 283 LINE",
"674 229 LINE SMOOTH",
"608 186 OFFCURVE",
"543 164 OFFCURVE",
"483 164 CURVE SMOOTH",
"377 164 OFFCURVE",
"303 215 OFFCURVE",
"303 305 CURVE SMOOTH",
"303 375 OFFCURVE",
"334 422 OFFCURVE",
"446 451 CURVE SMOOTH",
"758 532 LINE",
"758 666 LINE",
"369 569 LINE SMOOTH",
"160 518 OFFCURVE",
"59 442 OFFCURVE",
"59 270 CURVE SMOOTH",
"59 72 OFFCURVE",
"231 -16 OFFCURVE",
"401 -16 CURVE SMOOTH"
);
}
);
};
guideLines = (
{
position = "{235, 407}";
}
);
layerId = "514A1583-697A-4C0A-B081-2869E94CF283";
paths = (
{
closed = 1;
nodes = (
"496 -16 OFFCURVE",
"608 25 OFFCURVE",
"698 106 CURVE SMOOTH",
"745.584 149.258 LINE",
"785.889 55.103 OFFCURVE",
"864.128 -16 OFFCURVE",
"1008 -16 CURVE SMOOTH",
"1032.901 -16 OFFCURVE",
"1067.601 -11.713 OFFCURVE",
"1101.425 -4.834 CURVE",
"1115.385 164.889 LINE",
"991.17 175.493 OFFCURVE",
"963 196.348 OFFCURVE",
"963 281 CURVE SMOOTH",
"963 662 LINE SMOOTH",
"963 926 OFFCURVE",
"795 1057 OFFCURVE",
"549 1057 CURVE SMOOTH",
"432 1057 OFFCURVE",
"317 1033 OFFCURVE",
"180 983 CURVE SMOOTH",
"129.565 964.419 LINE",
"172.3 795.236 LINE",
"219 805 LINE SMOOTH",
"299 822 OFFCURVE",
"393 834 OFFCURVE",
"481 834 CURVE SMOOTH",
"633 834 OFFCURVE",
"707 780 OFFCURVE",
"707 662 CURVE SMOOTH",
"707 656.594 LINE",
"393 592 LINE SMOOTH",
"189 550 OFFCURVE",
"72 451 OFFCURVE",
"72 276 CURVE SMOOTH",
"72 78 OFFCURVE",
"233 -16 OFFCURVE",
"401 -16 CURVE SMOOTH"
);
},
{
closed = 1;
nodes = (
"379 199 OFFCURVE",
"322 238 OFFCURVE",
"322 309 CURVE SMOOTH",
"322 365 OFFCURVE",
"350 406 OFFCURVE",
"430 428 CURVE SMOOTH",
"707 505.879 LINE",
"707 294.556 LINE",
"662 264 LINE SMOOTH",
"598 221 OFFCURVE",
"532 199 OFFCURVE",
"479 199 CURVE SMOOTH"
);
}
);
width = 1137;
}
);
leftKerningGroup = a;
rightKerningGroup = a;
unicode = 0061;
},
{
glyphname = agrave;
lastChange = "2020-03-07 19:16:40 +0000";
layers = (
{
components = (
{
name = a;
},
{
name = gravecomb;
transform = "{1, 0, 0, 1, 473, 0}";
}
);
layerId = "620D8D18-E43F-4D11-9420-7EF908A5CAE8";
width = 1069;
},
{
components = (
{
name = a;
},
{
name = gravecomb;
transform = "{1, 0, 0, 1, 463, 0}";
}
);
layerId = "514A1583-697A-4C0A-B081-2869E94CF283";
width = 1137;
},
{
components = (
{
name = a;
},
{
name = gravecomb;
transform = "{1, 0, 0, 1, 516, 0}";
}
);
layerId = "5C950900-0D0F-4959-81DE-75F048290F1B";
width = 1233;
},
{
anchors = (
{
name = _top;
position = "{604, 1126}";
},
{
name = top;
position = "{604, 1126}";
}
);
associatedMasterId = "5C950900-0D0F-4959-81DE-75F048290F1B";
background = {
components = (
{
name = a;
},
{
name = gravecomb;
transform = "{1, 0, 0, 1, 259, 0}";
}
);
};
layerId = "F80DF4EC-DED8-4411-8E3A-94AB8D6BB5F3";
name = "Apr 22 18, 10:48";
paths = (
{
closed = 1;
nodes = (
"1239 389 LINE",
"1368 309 LINE",
"1288 301 OFFCURVE",
"1243 295 OFFCURVE",
"1200 295 CURVE SMOOTH",
"1126 295 OFFCURVE",
"1114 330 OFFCURVE",
"1114 358 CURVE SMOOTH",
"1114 655 LINE SMOOTH",
"1114 938 OFFCURVE",
"913 1096 OFFCURVE",
"602 1096 CURVE SMOOTH",
"465 1096 OFFCURVE",
"326 1063 OFFCURVE",
"195 1016 CURVE SMOOTH",
"-158 891 LINE",
"90 1096 LINE",
"195 633 LINE",
"70 705 LINE",
"236 735 LINE SMOOTH",
"328 752 OFFCURVE",
"418 760 OFFCURVE",
"502 760 CURVE SMOOTH",
"610 760 OFFCURVE",
"674 739 OFFCURVE",
"674 657 CURVE SMOOTH",
"674 336 LINE SMOOTH",
"674 311 OFFCURVE",
"678 289 OFFCURVE",
"682 266 CURVE",
"702 246 LINE",
"733 94 OFFCURVE",
"842 -18 OFFCURVE",
"1071 -18 CURVE SMOOTH",
"1122 -18 OFFCURVE",
"1231 12 OFFCURVE",
"1278 35 CURVE",
"1186 -92 LINE"
);
},
{
closed = 1;
nodes = (
"526 -18 OFFCURVE",
"655 55 OFFCURVE",
"758 150 CURVE",
"690 322 LINE",
"618 289 OFFCURVE",
"565 272 OFFCURVE",
"520 272 CURVE SMOOTH",
"475 272 OFFCURVE",
"442 297 OFFCURVE",
"442 346 CURVE SMOOTH",
"442 383 OFFCURVE",
"457 414 OFFCURVE",
"526 430 CURVE SMOOTH",
"684 469 LINE",
"686 672 LINE",
"385 602 LINE SMOOTH",
"133 545 OFFCURVE",
"31 465 OFFCURVE",
"31 283 CURVE SMOOTH",
"31 70 OFFCURVE",
"205 -18 OFFCURVE",
"381 -18 CURVE SMOOTH"
);
},
{
closed = 1;
nodes = (
"672 1532 LINE",
"231 1532 LINE",
"229 1452 LINE",
"510 1165 LINE",
"858 1165 LINE"
);
}
);
width = 1247;
}
);
leftKerningGroup = a;
rightKerningGroup = a;
unicode = 00E0;
},
{
color = 3;
glyphname = ae;
lastChange = "2021-02-24 21:41:01 +0000";
layers = (
{
anchors = (
{
name = top;
position = "{926, 1126}";
}
);
layerId = "620D8D18-E43F-4D11-9420-7EF908A5CAE8";
paths = (
{
closed = 1;
nodes = (
"535 -12 OFFCURVE",
"657 25 OFFCURVE",
"750 106 CURVE SMOOTH",
"862.049 199.232 LINE",
"957.407 59.8 OFFCURVE",
"1120.992 -12 OFFCURVE",
"1296 -12 CURVE SMOOTH",
"1393 -12 OFFCURVE",
"1493 12 OFFCURVE",
"1579 49 CURVE SMOOTH",
"1643.162 76.986 LINE",
"1619.624 124.431 LINE",
"1559 102 LINE SMOOTH",
"1468 70 OFFCURVE",
"1384 55 OFFCURVE",
"1292 55 CURVE SMOOTH",
"1063 55 OFFCURVE",
"852 219 OFFCURVE",
"852.03 508 CURVE",
"1683 508 LINE",
"1683 541 LINE SMOOTH",
"1683 793 OFFCURVE",
"1548 1016 OFFCURVE",
"1251 1016 CURVE SMOOTH",
"1078.736 1016 OFFCURVE",
"936.468 924.065 OFFCURVE",
"853.859 786.877 CURVE",
"812.6 945.979 OFFCURVE",
"684.307 1016 OFFCURVE",
"512 1016 CURVE SMOOTH",
"401 1016 OFFCURVE",
"293 991 OFFCURVE",
"195 950 CURVE SMOOTH",
"141.71 929.007 LINE",
"162.817 877.363 LINE",
"221 897 LINE SMOOTH",
"291 920 OFFCURVE",
"391 950 OFFCURVE",
"492 950 CURVE SMOOTH",
"674 950 OFFCURVE",
"797 866 OFFCURVE",
"794.246 644.328 CURVE",
"365 535 LINE SMOOTH",
"199 492 OFFCURVE",
"102 420 OFFCURVE",
"102 258 CURVE SMOOTH",
"102 74 OFFCURVE",
"270 -12 OFFCURVE",
"434 -12 CURVE SMOOTH"
);
},
{
closed = 1;
nodes = (
"291 55 OFFCURVE",
"176 131 OFFCURVE",
"176 262 CURVE SMOOTH",
"176 365 OFFCURVE",
"223 430 OFFCURVE",
"381 471 CURVE SMOOTH",
"781.129 577.298 LINE",
"777.743 552.022 OFFCURVE",
"776 526.204 OFFCURVE",
"776 500 CURVE SMOOTH",
"776 398.484 OFFCURVE",
"798.456 311.573 OFFCURVE",
"837.355 239.709 CURVE",
"721 156 LINE SMOOTH",
"633 92 OFFCURVE",
"547 55 OFFCURVE",
"461 55 CURVE SMOOTH"
);
},
{
closed = 1;
nodes = (
"885.277 802.442 OFFCURVE",
"1053.838 948 OFFCURVE",
"1253 948 CURVE SMOOTH",
"1474.55 948 OFFCURVE",
"1600.04 798.18 OFFCURVE",
"1614.576 573 CURVE",
"856.373 573 LINE"
);
}
);
width = 1785;
},
{
anchors = (
{
name = top;
position = "{977, 1126}";
}
);
background = {
paths = (
{
closed = 1;
nodes = (
"496 -16 OFFCURVE",
"608 25 OFFCURVE",
"698 106 CURVE SMOOTH",
"825 221 LINE",
"743 319 LINE",
"662 264 LINE SMOOTH",
"598 221 OFFCURVE",
"532 199 OFFCURVE",
"479 199 CURVE SMOOTH",
"379 199 OFFCURVE",
"322 238 OFFCURVE",
"322 309 CURVE SMOOTH",
"322 365 OFFCURVE",
"350 406 OFFCURVE",
"430 428 CURVE SMOOTH",
"743 516 LINE",
"743 674 LINE",
"393 602 LINE SMOOTH",
"188 561 OFFCURVE",
"72 457 OFFCURVE",
"72 281 CURVE SMOOTH",
"72 80 OFFCURVE",
"233 -16 OFFCURVE",
"401 -16 CURVE SMOOTH"
);
},
{
closed = 1;
nodes = (
"963 580 LINE",
"963 662 LINE SMOOTH",
"963 926 OFFCURVE",
"795 1057 OFFCURVE",
"549 1057 CURVE SMOOTH",
"432 1057 OFFCURVE",
"317 1032 OFFCURVE",
"180 983 CURVE SMOOTH",
"-10 913 LINE",
"113 1030 LINE",
"186 741 LINE",
"109 784 LINE",
"219 807 LINE SMOOTH",
"299 823 OFFCURVE",
"393 836 OFFCURVE",
"481 836 CURVE SMOOTH",
"629 836 OFFCURVE",
"707 778 OFFCURVE",
"707 647 CURVE SMOOTH",
"707 446 LINE"
);
},
{
closed = 1;
nodes = (
"1358 -16 OFFCURVE",
"1475 8 OFFCURVE",
"1585 61 CURVE SMOOTH",
"1704 119 LINE",
"1681 47 LINE",
"1571 311 LINE",
"1628 279 LINE",
"1503 244 LINE SMOOTH",
"1425 221 OFFCURVE",
"1348 209 OFFCURVE",
"1278 209 CURVE SMOOTH",
"1087 209 OFFCURVE",
"952 305 OFFCURVE",
"952 524 CURVE SMOOTH",
"952 711 OFFCURVE",
"1051 838 OFFCURVE",
"1219 838 CURVE SMOOTH",
"1378 838 OFFCURVE",
"1456 733 OFFCURVE",
"1456 559 CURVE",
"1528 639 LINE",
"868 639 LINE",
"868 451 LINE",
"1696 451 LINE",
"1696 532 LINE SMOOTH",
"1696 836 OFFCURVE",
"1530 1057 OFFCURVE",
"1219 1057 CURVE SMOOTH",
"930 1057 OFFCURVE",
"690 846 OFFCURVE",
"690 518 CURVE SMOOTH",
"690 172 OFFCURVE",
"946 -16 OFFCURVE",
"1249 -16 CURVE SMOOTH"
);
}
);
};
layerId = "514A1583-697A-4C0A-B081-2869E94CF283";
paths = (
{
closed = 1;
nodes = (
"496 -16 OFFCURVE",
"608 25 OFFCURVE",
"698 106 CURVE SMOOTH",
"791.598 190.754 LINE",
"893.743 55.251 OFFCURVE",
"1062.465 -16 OFFCURVE",
"1249 -16 CURVE SMOOTH",
"1358 -16 OFFCURVE",
"1475 8 OFFCURVE",
"1585 61 CURVE SMOOTH",
"1659.946 97.529 LINE",
"1588.896 268.051 LINE",
"1503 244 LINE SMOOTH",
"1425 221 OFFCURVE",
"1348 209 OFFCURVE",
"1278 209 CURVE SMOOTH",
"1109.728 209 OFFCURVE",
"984.921 283.512 OFFCURVE",
"957.602 451 CURVE",
"1696 451 LINE",
"1696 532 LINE SMOOTH",
"1696 836 OFFCURVE",
"1530 1057 OFFCURVE",
"1219 1057 CURVE SMOOTH",
"1087.211 1057 OFFCURVE",
"965.611 1013.122 OFFCURVE",
"872.314 934.28 CURVE",
"799.255 1016.209 OFFCURVE",
"686.272 1057 OFFCURVE",
"549 1057 CURVE SMOOTH",
"432 1057 OFFCURVE",
"317 1032 OFFCURVE",
"180 983 CURVE SMOOTH",
"129.565 964.419 LINE",
"171.821 797.135 LINE",
"219 807 LINE SMOOTH",
"299 823 OFFCURVE",
"393 836 OFFCURVE",
"481 836 CURVE SMOOTH",
"621.454 836 OFFCURVE",
"698.865 783.763 OFFCURVE",
"706.393 666.469 CURVE",
"393 602 LINE SMOOTH",
"188 561 OFFCURVE",
"72 457 OFFCURVE",
"72 281 CURVE SMOOTH",
"72 80 OFFCURVE",
"233 -16 OFFCURVE",
"401 -16 CURVE SMOOTH"
);
},
{
closed = 1;
nodes = (
"379 199 OFFCURVE",
"322 238 OFFCURVE",
"322 309 CURVE SMOOTH",
"322 365 OFFCURVE",
"350 406 OFFCURVE",
"430 428 CURVE SMOOTH",
"690.204 501.156 LINE",
"690 490 OFFCURVE",
"691 478 OFFCURVE",
"692 467 CURVE SMOOTH",
"696 409 OFFCURVE",
"708 356 OFFCURVE",
"726.801 308 CURVE",
"662 264 LINE SMOOTH",
"598 221 OFFCURVE",
"532 199 OFFCURVE",
"479 199 CURVE SMOOTH"
);
},
{
closed = 1;
nodes = (
"999.387 761.155 OFFCURVE",
"1088.318 838 OFFCURVE",
"1219 838 CURVE SMOOTH",
"1351.882 838 OFFCURVE",
"1428.19 764.662 OFFCURVE",
"1449.673 639 CURVE",
"966.326 639 LINE"
);
}
);
width = 1767;
},
{
anchors = (
{
name = top;
position = "{1001, 1126}";
}
);
background = {
paths = (
{
closed = 1;
nodes = (
"1225 389 LINE",
"1274 266 LINE",
"1143 285 OFFCURVE",
"1100 301 OFFCURVE",
"1100 369 CURVE SMOOTH",
"1100 655 LINE SMOOTH",
"1100 938 OFFCURVE",
"899 1096 OFFCURVE",
"588 1096 CURVE SMOOTH",
"451 1096 OFFCURVE",
"311 1063 OFFCURVE",
"180 1016 CURVE SMOOTH",
"-172 891 LINE",
"76 1096 LINE",
"180 633 LINE",
"55 705 LINE",
"221 735 LINE SMOOTH",
"313 752 OFFCURVE",
"403 760 OFFCURVE",
"487 760 CURVE SMOOTH",
"596 760 OFFCURVE",
"659 739 OFFCURVE",
"659 657 CURVE SMOOTH",
"659 336 LINE SMOOTH",
"659 311 OFFCURVE",
"664 289 OFFCURVE",
"668 266 CURVE",
"688 246 LINE",
"719 94 OFFCURVE",
"827 -18 OFFCURVE",
"1057 -18 CURVE SMOOTH",
"1108 -18 OFFCURVE",
"1217 12 OFFCURVE",
"1264 35 CURVE",
"1171 -92 LINE"
);
},
{
closed = 1;
nodes = (
"467 -18 OFFCURVE",
"588 23 OFFCURVE",
"682 104 CURVE SMOOTH",
"774 184 LINE",
"678 326 LINE",
"625 301 LINE SMOOTH",
"582 281 OFFCURVE",
"539 272 OFFCURVE",
"506 272 CURVE SMOOTH",
"461 272 OFFCURVE",
"428 297 OFFCURVE",
"428 346 CURVE SMOOTH",
"428 383 OFFCURVE",
"442 414 OFFCURVE",
"512 430 CURVE SMOOTH",
"670 469 LINE",
"672 672 LINE",
"371 602 LINE SMOOTH",
"119 545 OFFCURVE",
"16 465 OFFCURVE",
"16 283 CURVE SMOOTH",
"16 70 OFFCURVE",
"190 -18 OFFCURVE",
"367 -18 CURVE SMOOTH"
);
}
);
};
layerId = "5C950900-0D0F-4959-81DE-75F048290F1B";
paths = (
{
closed = 1;
nodes = (
"467 -18 OFFCURVE",
"588 23 OFFCURVE",
"682 104 CURVE SMOOTH",
"770.311 180.792 LINE",
"884.219 50.539 OFFCURVE",
"1065.395 -18 OFFCURVE",
"1270 -18 CURVE SMOOTH",
"1399 -18 OFFCURVE",
"1536 8 OFFCURVE",
"1673 66 CURVE SMOOTH",
"1761.352 102.813 LINE",
"1658.684 355.047 LINE",
"1575 338 LINE SMOOTH",
"1487 319 OFFCURVE",
"1407 309 OFFCURVE",
"1339 309 CURVE SMOOTH",
"1211.564 309 OFFCURVE",
"1129.141 336.996 OFFCURVE",
"1094.986 430 CURVE",
"1821 430 LINE",
"1821 522 LINE SMOOTH",
"1821 877 OFFCURVE",
"1608 1096 OFFCURVE",
"1264 1096 CURVE SMOOTH",
"1140.329 1096 OFFCURVE",
"1019.795 1068.07 OFFCURVE",
"918.444 1012.324 CURVE",
"833.09 1067.095 OFFCURVE",
"720.843 1096 OFFCURVE",
"588 1096 CURVE SMOOTH",
"451 1096 OFFCURVE",
"311 1063 OFFCURVE",
"180 1016 CURVE SMOOTH",
"100.325 987.706 LINE",
"159.582 723.9 LINE",
"221 735 LINE SMOOTH",
"313 752 OFFCURVE",
"403 760 OFFCURVE",
"487 760 CURVE SMOOTH",
"590.541 760 OFFCURVE",
"652.574 741.051 OFFCURVE",
"658.528 668.867 CURVE",
"371 602 LINE SMOOTH",
"119 545 OFFCURVE",
"16 465 OFFCURVE",
"16 283 CURVE SMOOTH",
"16 70 OFFCURVE",
"190 -18 OFFCURVE",
"367 -18 CURVE SMOOTH"
);
},
{
closed = 1;
nodes = (
"461 272 OFFCURVE",
"428 297 OFFCURVE",
"428 346 CURVE SMOOTH",
"428 383 OFFCURVE",
"442 414 OFFCURVE",
"512 430 CURVE SMOOTH",
"649.05 463.829 LINE",
"651.389 443.217 OFFCURVE",
"654.722 423.227 OFFCURVE",
"659 403.867 CURVE",
"666.157 373.106 OFFCURVE",
"673.248 350.076 OFFCURVE",
"681.71 328.046 CURVE",
"625 301 LINE SMOOTH",
"582 281 OFFCURVE",
"539 272 OFFCURVE",
"506 272 CURVE SMOOTH"
);
},
{
closed = 1;
nodes = (
"1107.756 769.545 OFFCURVE",
"1171.044 803 OFFCURVE",
"1264 803 CURVE SMOOTH",
"1364.556 803 OFFCURVE",
"1408.235 758.06 OFFCURVE",
"1419.75 657 CURVE",
"1085.669 657 LINE"
);
}
);
width = 1852;
}
);
leftKerningGroup = a;
leftMetricsKey = a;
rightKerningGroup = e;
rightMetricsKey = e;
unicode = 00E6;
},
{
color = 4;
glyphname = b;
lastChange = "2021-02-24 21:41:07 +0000";
layers = (
{
background = {
paths = (
{
closed = 1;
nodes = (
"891 -12 OFFCURVE",
"1112 178 OFFCURVE",
"1112 502 CURVE SMOOTH",
"1112 827 OFFCURVE",
"881 1016 OFFCURVE",
"602 1016 CURVE SMOOTH",
"516 1016 OFFCURVE",
"422 997 OFFCURVE",
"342 967 CURVE SMOOTH",
"246 930 LINE",
"279 977 LINE",
"319 856 LINE",
"233 868 LINE",
"367 909 LINE SMOOTH",
"446 934 OFFCURVE",
"522 946 OFFCURVE",
"592 946 CURVE SMOOTH",
"852 946 OFFCURVE",
"1036 784 OFFCURVE",
"1036 502 CURVE SMOOTH",
"1036 221 OFFCURVE",
"846 55 OFFCURVE",
"588 55 CURVE SMOOTH",
"514 55 OFFCURVE",
"434 70 OFFCURVE",
"362 94 CURVE SMOOTH",
"258 129 LINE",
"305 137 LINE",
"260 27 LINE",
"233 84 LINE",
"338 39 LINE SMOOTH",
"422 2 OFFCURVE",
"516 -12 OFFCURVE",
"604 -12 CURVE SMOOTH"
);
}
);
};
layerId = "620D8D18-E43F-4D11-9420-7EF908A5CAE8";
paths = (
{
closed = 1;
nodes = (
"907 -12 OFFCURVE",
"1102 209 OFFCURVE",
"1102 502 CURVE SMOOTH",
"1102 795 OFFCURVE",
"905 1016 OFFCURVE",
"623 1016 CURVE SMOOTH",
"522 1016 OFFCURVE",
"424 985 OFFCURVE",
"328 930 CURVE SMOOTH",
"240 879 LINE",
"256 868 LINE",
"256 1577 LINE",
"184 1511 LINE",
"184 0 LINE",
"238 0 LINE",
"256 152 LINE",
"256 166 LINE",
"256 831 LINE",
"358 879 LINE SMOOTH",
"461 928 OFFCURVE",
"535 946 OFFCURVE",
"610 946 CURVE SMOOTH",
"874 946 OFFCURVE",
"1026 737 OFFCURVE",
"1026 498 CURVE SMOOTH",
"1026 227 OFFCURVE",
"848 55 OFFCURVE",
"610 55 CURVE SMOOTH",
"535 55 OFFCURVE",
"461 78 OFFCURVE",
"358 125 CURVE SMOOTH",
"256 172 LINE",
"240 125 LINE",
"328 74 LINE SMOOTH",
"424 18 OFFCURVE",
"522 -12 OFFCURVE",
"623 -12 CURVE SMOOTH"
);
}
);
width = 1215;
},
{
background = {
paths = (
{
closed = 1;
nodes = (
"1159 -18 OFFCURVE",
"1292 279 OFFCURVE",
"1292 539 CURVE SMOOTH",
"1292 799 OFFCURVE",
"1159 1096 OFFCURVE",
"821 1096 CURVE SMOOTH",
"748 1096 OFFCURVE",
"643 1077 OFFCURVE",
"567 1040 CURVE SMOOTH",
"416 967 LINE",
"537 870 LINE",
"537 1577 LINE",
"92 1511 LINE",
"92 0 LINE",
"416 0 LINE",
"473 205 LINE",
"537 279 LINE",
"537 707 LINE",
"582 719 LINE SMOOTH",
"610 727 OFFCURVE",
"643 731 OFFCURVE",
"682 731 CURVE SMOOTH",
"786 731 OFFCURVE",
"846 688 OFFCURVE",
"846 539 CURVE SMOOTH",
"846 387 OFFCURVE",
"791 344 OFFCURVE",
"682 344 CURVE SMOOTH",
"637 344 OFFCURVE",
"578 360 OFFCURVE",
"526 389 CURVE",
"442 143 LINE",
"528 33 OFFCURVE",
"707 -18 OFFCURVE",
"821 -18 CURVE SMOOTH"
);
}
);
};
layerId = "5C950900-0D0F-4959-81DE-75F048290F1B";
paths = (
{
closed = 1;
nodes = (
"1098 -18 OFFCURVE",
"1292 207 OFFCURVE",
"1292 539 CURVE SMOOTH",
"1292 868 OFFCURVE",
"1100 1096 OFFCURVE",
"821 1096 CURVE SMOOTH",
"737 1096 OFFCURVE",
"635 1073 OFFCURVE",
"567 1040 CURVE SMOOTH",
"416 967 LINE",
"537 870 LINE",
"537 1577 LINE",
"92 1511 LINE",
"92 0 LINE",
"416 0 LINE",
"473 205 LINE",
"537 279 LINE",
"537 707 LINE",
"582 719 LINE SMOOTH",
"610 727 OFFCURVE",
"643 731 OFFCURVE",
"682 731 CURVE SMOOTH",
"799 731 OFFCURVE",
"846 674 OFFCURVE",
"846 539 CURVE SMOOTH",
"846 399 OFFCURVE",
"801 344 OFFCURVE",
"682 344 CURVE SMOOTH",
"645 344 OFFCURVE",
"602 354 OFFCURVE",
"567 371 CURVE SMOOTH",
"526 389 LINE",
"408 143 LINE",
"502 84 LINE SMOOTH",
"610 16 OFFCURVE",
"713 -18 OFFCURVE",
"811 -18 CURVE SMOOTH"
);
}
);
width = 1343;
},
{
background = {
paths = (
{
closed = 1;
nodes = (
"1098 -18 OFFCURVE",
"1292 207 OFFCURVE",
"1292 539 CURVE SMOOTH",
"1292 868 OFFCURVE",
"1100 1096 OFFCURVE",
"821 1096 CURVE SMOOTH",
"737 1096 OFFCURVE",
"635 1073 OFFCURVE",
"567 1040 CURVE SMOOTH",
"416 967 LINE",
"537 870 LINE",
"537 1577 LINE",
"92 1511 LINE",
"92 0 LINE",
"416 0 LINE",
"473 205 LINE",
"537 279 LINE",
"537 707 LINE",
"582 719 LINE SMOOTH",
"610 727 OFFCURVE",
"643 731 OFFCURVE",
"682 731 CURVE SMOOTH",
"799 731 OFFCURVE",
"846 674 OFFCURVE",
"846 539 CURVE SMOOTH",
"846 399 OFFCURVE",
"801 344 OFFCURVE",
"682 344 CURVE SMOOTH",
"645 344 OFFCURVE",
"602 354 OFFCURVE",
"567 371 CURVE SMOOTH",
"526 389 LINE",
"408 143 LINE",
"502 84 LINE SMOOTH",
"610 16 OFFCURVE",
"713 -18 OFFCURVE",
"811 -18 CURVE SMOOTH"
);
}
);
};
layerId = "514A1583-697A-4C0A-B081-2869E94CF283";
paths = (
{
closed = 1;
nodes = (
"971 -16 OFFCURVE",
"1161 207 OFFCURVE",
"1161 520 CURVE SMOOTH",
"1161 836 OFFCURVE",
"973 1057 OFFCURVE",
"702 1057 CURVE SMOOTH",
"625 1057 OFFCURVE",
"535 1036 OFFCURVE",
"463 1004 CURVE SMOOTH",
"326 942 LINE",
"401 874 LINE",
"401 1577 LINE",
"143 1511 LINE",
"143 0 LINE",
"338 0 LINE",
"371 190 LINE",
"401 233 LINE",
"401 768 LINE",
"471 793 LINE SMOOTH",
"530 813 OFFCURVE",
"582 823 OFFCURVE",
"629 823 CURVE SMOOTH",
"799 823 OFFCURVE",
"899 719 OFFCURVE",
"899 522 CURVE SMOOTH",
"899 326 OFFCURVE",
"807 219 OFFCURVE",
"643 219 CURVE SMOOTH",
"590 219 OFFCURVE",
"535 231 OFFCURVE",
"481 264 CURVE SMOOTH",
"389 319 LINE",
"338 141 LINE",
"422 84 LINE SMOOTH",
"518 18 OFFCURVE",
"616 -16 OFFCURVE",
"705 -16 CURVE SMOOTH"
);
}
);
width = 1253;
}
);
leftKerningGroup = h;
leftMetricsKey = n;
rightKerningGroup = o;
rightMetricsKey = o;
unicode = 0062;
},
